<?plantuml 1.2026.2?><svg xmlns="http://www.w3.org/2000/svg" xmlns:xlink="http://www.w3.org/1999/xlink" contentStyleType="text/css" data-diagram-type="DESCRIPTION" height="1039px" preserveAspectRatio="none" style="width:996px;height:1039px;background:#FFFFFF;" version="1.1" viewBox="0 0 996 1039" width="996px" zoomAndPan="magnify"><title>mmhashchainsigs &#8212; Component Architecture</title><defs/><g><g class="title" data-source-line="1"><text fill="#000000" font-family="sans-serif" font-size="14" font-weight="bold" lengthAdjust="spacing" textLength="329.3828" x="326.7396" y="23.5352">mmhashchainsigs &#8212; Component Architecture</text></g><!--cluster rsyslog host process--><g class="cluster" data-qualified-name="rsyslog host process" data-source-line="10" id="ent0002"><path d="M234.7,43.4883 L385.8104,43.4883 A3.75,3.75 0 0 1 388.3104,45.9883 L395.3104,65.9766 L739.7,65.9766 A2.5,2.5 0 0 1 742.2,68.4766 L742.2,578.8983 A2.5,2.5 0 0 1 739.7,581.3983 L234.7,581.3983 A2.5,2.5 0 0 1 232.2,578.8983 L232.2,45.9883 A2.5,2.5 0 0 1 234.7,43.4883" fill="none" style="stroke:#000000;stroke-width:1.5;"/><line style="stroke:#000000;stroke-width:1.5;" x1="232.2" x2="395.3104" y1="65.9766" y2="65.9766"/><text fill="#000000" font-family="sans-serif" font-size="14" font-weight="bold" lengthAdjust="spacing" textLength="150.1104" x="236.2" y="59.0234">rsyslog host process</text></g><!--cluster mmhashchainsigs.so--><g class="cluster" data-qualified-name="rsyslog host process.mmhashchainsigs.so" data-source-line="14" id="ent0005"><path d="M431.7,308.4483 L582.9471,308.4483 A3.75,3.75 0 0 1 585.4471,310.9483 L592.4471,330.9366 L715.7,330.9366 A2.5,2.5 0 0 1 718.2,333.4366 L718.2,554.8983 A2.5,2.5 0 0 1 715.7,557.3983 L431.7,557.3983 A2.5,2.5 0 0 1 429.2,554.8983 L429.2,310.9483 A2.5,2.5 0 0 1 431.7,308.4483" fill="none" style="stroke:#000000;stroke-width:1.5;"/><line style="stroke:#000000;stroke-width:1.5;" x1="429.2" x2="592.4471" y1="330.9366" y2="330.9366"/><text fill="#000000" font-family="sans-serif" font-size="14" font-weight="bold" lengthAdjust="spacing" textLength="150.2471" x="433.2" y="323.9834">mmhashchainsigs.so</text></g><!--cluster hcs shared library--><g class="cluster" data-qualified-name="hcs shared library" data-source-line="24" id="ent0011"><path d="M244.7,928.3483 L376.1775,928.3483 A3.75,3.75 0 0 1 378.6775,930.8483 L385.6775,950.8366 L712.7,950.8366 A2.5,2.5 0 0 1 715.2,953.3366 L715.2,1029.8283 A2.5,2.5 0 0 1 712.7,1032.3283 L244.7,1032.3283 A2.5,2.5 0 0 1 242.2,1029.8283 L242.2,930.8483 A2.5,2.5 0 0 1 244.7,928.3483" fill="none" style="stroke:#000000;stroke-width:1.5;"/><line style="stroke:#000000;stroke-width:1.5;" x1="242.2" x2="385.6775" y1="950.8366" y2="950.8366"/><text fill="#000000" font-family="sans-serif" font-size="14" font-weight="bold" lengthAdjust="spacing" textLength="130.4775" x="246.2" y="943.8834">hcs shared library</text></g><!--cluster verification tool--><g class="cluster" data-qualified-name="verification tool" data-source-line="29" id="ent0014"><path d="M78.7,630.3983 L194.2498,630.3983 A3.75,3.75 0 0 1 196.7498,632.8983 L203.7498,652.8866 L293.7,652.8866 A2.5,2.5 0 0 1 296.2,655.3866 L296.2,861.8483 A2.5,2.5 0 0 1 293.7,864.3483 L78.7,864.3483 A2.5,2.5 0 0 1 76.2,861.8483 L76.2,632.8983 A2.5,2.5 0 0 1 78.7,630.3983" fill="none" style="stroke:#000000;stroke-width:1.5;"/><line style="stroke:#000000;stroke-width:1.5;" x1="76.2" x2="203.7498" y1="652.8866" y2="652.8866"/><text fill="#000000" font-family="sans-serif" font-size="14" font-weight="bold" lengthAdjust="spacing" textLength="114.5498" x="80.2" y="645.9334">verification tool</text></g><!--entity Input--><g class="entity" data-qualified-name="rsyslog host process.Input" data-source-line="11" id="ent0003"><rect fill="#FDFDFD" height="69.4648" rx="2.5" ry="2.5" style="stroke:#555555;stroke-width:0.5;" width="97.2529" x="379.57" y="78.4883"/><text fill="#000000" font-family="sans-serif" font-size="14" lengthAdjust="spacing" textLength="77.2529" x="389.57" y="102.0234">imuxsock /</text><text fill="#000000" font-family="sans-serif" font-size="14" lengthAdjust="spacing" textLength="58.9189" x="389.57" y="118.5117">imptcp /</text><text fill="#000000" font-family="sans-serif" font-size="14" lengthAdjust="spacing" textLength="43.5039" x="389.57" y="135">imrelp</text></g><!--entity Engine--><g class="entity" data-qualified-name="rsyslog host process.Engine" data-source-line="12" id="ent0004"><rect fill="#FDFDFD" height="36.4883" rx="2.5" ry="2.5" style="stroke:#555555;stroke-width:0.5;" width="94.9287" x="380.73" y="208.9583"/><text fill="#000000" font-family="sans-serif" font-size="14" lengthAdjust="spacing" textLength="74.9287" x="390.73" y="232.4934">RuleEngine</text></g><!--entity Omfile--><g class="entity" data-qualified-name="rsyslog host process.Omfile" data-source-line="20" id="ent0009"><rect fill="#FDFDFD" height="36.4883" rx="2.5" ry="2.5" style="stroke:#555555;stroke-width:0.5;" width="62.7109" x="247.84" y="351.6883"/><text fill="#000000" font-family="sans-serif" font-size="14" lengthAdjust="spacing" textLength="42.7109" x="257.84" y="375.2234">omfile</text></g><!--entity Omrelp--><g class="entity" data-qualified-name="rsyslog host process.Omrelp" data-source-line="21" id="ent0010"><rect fill="#FDFDFD" height="36.4883" rx="2.5" ry="2.5" style="stroke:#555555;stroke-width:0.5;" width="68.0566" x="345.17" y="351.6883"/><text fill="#000000" font-family="sans-serif" font-size="14" lengthAdjust="spacing" textLength="48.0566" x="355.17" y="375.2234">omrelp</text></g><!--entity MMHCS--><g class="entity" data-qualified-name="rsyslog host process.mmhashchainsigs.so.MMHCS" data-source-line="15" id="ent0006"><rect fill="#FDFDFD" height="52.9766" rx="2.5" ry="2.5" style="stroke:#555555;stroke-width:0.5;" width="141.7617" x="531.32" y="343.4483"/><text fill="#000000" font-family="sans-serif" font-size="14" lengthAdjust="spacing" textLength="121.7617" x="541.32" y="366.9834">mmhashchainsigs</text><text fill="#000000" font-family="sans-serif" font-size="14" lengthAdjust="spacing" textLength="69.918" x="541.32" y="383.4717">(doAction)</text></g><!--entity Chain--><g class="entity" data-qualified-name="rsyslog host process.mmhashchainsigs.so.Chain" data-source-line="16" id="ent0007"><rect fill="#FDFDFD" height="52.9766" rx="2.5" ry="2.5" style="stroke:#555555;stroke-width:0.5;" width="132.0068" x="445.19" y="488.4183"/><text fill="#000000" font-family="sans-serif" font-size="14" lengthAdjust="spacing" textLength="68.5713" x="455.19" y="511.9534">hashchain</text><text fill="#000000" font-family="sans-serif" font-size="14" lengthAdjust="spacing" textLength="112.0068" x="455.19" y="528.4417">(SHA-256 chain)</text></g><!--entity Signer--><g class="entity" data-qualified-name="rsyslog host process.mmhashchainsigs.so.Signer" data-source-line="17" id="ent0008"><rect fill="#FDFDFD" height="52.9766" rx="2.5" ry="2.5" style="stroke:#555555;stroke-width:0.5;" width="89.7676" x="612.31" y="488.4183"/><text fill="#000000" font-family="sans-serif" font-size="14" lengthAdjust="spacing" textLength="42.1299" x="622.31" y="511.9534">signer</text><text fill="#000000" font-family="sans-serif" font-size="14" lengthAdjust="spacing" textLength="69.7676" x="622.31" y="528.4417">(Ed25519)</text></g><!--entity Crypto--><g class="entity" data-qualified-name="hcs shared library.Crypto" data-source-line="25" id="ent0012"><rect fill="#FDFDFD" height="52.9766" rx="2.5" ry="2.5" style="stroke:#555555;stroke-width:0.5;" width="226.5479" x="257.92" y="963.3483"/><text fill="#000000" font-family="sans-serif" font-size="14" lengthAdjust="spacing" textLength="72.8574" x="267.92" y="986.8834">hcs_crypto</text><text fill="#000000" font-family="sans-serif" font-size="14" lengthAdjust="spacing" textLength="206.5479" x="267.92" y="1003.3717">(SHA-256, Ed25519, key load)</text></g><!--entity Format--><g class="entity" data-qualified-name="hcs shared library.Format" data-source-line="26" id="ent0013"><rect fill="#FDFDFD" height="52.9766" rx="2.5" ry="2.5" style="stroke:#555555;stroke-width:0.5;" width="179.9268" x="519.23" y="963.3483"/><text fill="#000000" font-family="sans-serif" font-size="14" lengthAdjust="spacing" textLength="75.5098" x="529.23" y="986.8834">hcs_format</text><text fill="#000000" font-family="sans-serif" font-size="14" lengthAdjust="spacing" textLength="159.9268" x="529.23" y="1003.3717">(SD parse/format/strip)</text></g><!--entity VerifyCLI--><g class="entity" data-qualified-name="verification tool.VerifyCLI" data-source-line="30" id="ent0015"><rect fill="#FDFDFD" height="52.9766" rx="2.5" ry="2.5" style="stroke:#555555;stroke-width:0.5;" width="187.1455" x="92.62" y="665.3983"/><text fill="#000000" font-family="sans-serif" font-size="14" lengthAdjust="spacing" textLength="167.1455" x="102.62" y="688.9334">mmhashchainsigs-verify</text><text fill="#000000" font-family="sans-serif" font-size="14" lengthAdjust="spacing" textLength="30.29" x="102.62" y="705.4217">(CLI)</text></g><!--entity Verifier--><g class="entity" data-qualified-name="verification tool.Verifier" data-source-line="31" id="ent0016"><rect fill="#FDFDFD" height="52.9766" rx="2.5" ry="2.5" style="stroke:#555555;stroke-width:0.5;" width="123.8721" x="148.26" y="795.3783"/><text fill="#000000" font-family="sans-serif" font-size="14" lengthAdjust="spacing" textLength="47.5439" x="158.26" y="818.9134">verifier</text><text fill="#000000" font-family="sans-serif" font-size="14" lengthAdjust="spacing" textLength="103.8721" x="158.26" y="835.4017">(state machine)</text></g><!--entity Privkey--><g class="entity" data-qualified-name="Privkey" data-source-line="34" id="ent0017"><path d="M424.49,667.8983 L424.49,715.8748 A2.5,2.5 0 0 0 426.99,718.3748 L581.4089,718.3748 A2.5,2.5 0 0 0 583.9089,715.8748 L583.9089,675.3983 L573.9089,665.3983 L426.99,665.3983 A2.5,2.5 0 0 0 424.49,667.8983" fill="#F1F1F1" style="stroke:#181818;stroke-width:0.5;"/><path d="M573.9089,665.3983 L573.9089,672.8983 A2.5,2.5 0 0 0 576.4089,675.3983 L583.9089,675.3983" fill="#F1F1F1" style="stroke:#181818;stroke-width:0.5;"/><text fill="#000000" font-family="sans-serif" font-size="14" lengthAdjust="spacing" textLength="139.4189" x="434.49" y="688.9334">Ed25519 private key</text><text fill="#000000" font-family="sans-serif" font-size="14" lengthAdjust="spacing" textLength="44.5156" x="434.49" y="705.4217">(0600)</text></g><!--entity Pubkey--><g class="entity" data-qualified-name="Pubkey" data-source-line="35" id="ent0018"><path d="M6,974.0983 L6,1005.5866 A2.5,2.5 0 0 0 8.5,1008.0866 L157.8945,1008.0866 A2.5,2.5 0 0 0 160.3945,1005.5866 L160.3945,981.5983 L150.3945,971.5983 L8.5,971.5983 A2.5,2.5 0 0 0 6,974.0983" fill="#F1F1F1" style="stroke:#181818;stroke-width:0.5;"/><path d="M150.3945,971.5983 L150.3945,979.0983 A2.5,2.5 0 0 0 152.8945,981.5983 L160.3945,981.5983" fill="#F1F1F1" style="stroke:#181818;stroke-width:0.5;"/><text fill="#000000" font-family="sans-serif" font-size="14" lengthAdjust="spacing" textLength="134.3945" x="16" y="995.1334">Ed25519 public key</text></g><!--entity LogFile--><g class="entity" data-qualified-name="LogFile" data-source-line="36" id="ent0019"><path d="M48.43,499.1683 L48.43,530.6566 A2.5,2.5 0 0 0 50.93,533.1566 L213.4564,533.1566 A2.5,2.5 0 0 0 215.9564,530.6566 L215.9564,506.6683 L205.9564,496.6683 L50.93,496.6683 A2.5,2.5 0 0 0 48.43,499.1683" fill="#F1F1F1" style="stroke:#181818;stroke-width:0.5;"/><path d="M205.9564,496.6683 L205.9564,504.1683 A2.5,2.5 0 0 0 208.4564,506.6683 L215.9564,506.6683" fill="#F1F1F1" style="stroke:#181818;stroke-width:0.5;"/><text fill="#000000" font-family="sans-serif" font-size="14" lengthAdjust="spacing" textLength="147.5264" x="58.43" y="520.2034">/var/log/...secure.log</text></g><!--entity StateFile--><g class="entity" data-qualified-name="StateFile" data-source-line="37" id="ent0020"><path d="M810.53,490.9183 L810.53,538.8948 A2.5,2.5 0 0 0 813.03,541.3948 L987.362,541.3948 A2.5,2.5 0 0 0 989.862,538.8948 L989.862,498.4183 L979.862,488.4183 L813.03,488.4183 A2.5,2.5 0 0 0 810.53,490.9183" fill="#F1F1F1" style="stroke:#181818;stroke-width:0.5;"/><path d="M979.862,488.4183 L979.862,495.9183 A2.5,2.5 0 0 0 982.362,498.4183 L989.862,498.4183" fill="#F1F1F1" style="stroke:#181818;stroke-width:0.5;"/><text fill="#000000" font-family="sans-serif" font-size="14" lengthAdjust="spacing" textLength="159.332" x="820.53" y="511.9534">mmhashchainsigs.state</text><text fill="#000000" font-family="sans-serif" font-size="14" lengthAdjust="spacing" textLength="81.874" x="820.53" y="528.4417">(statefiledir)</text></g><!--link Input to Engine--><g class="link" data-entity-1="ent0003" data-entity-2="ent0004" data-link-type="dependency" data-source-line="39" id="lnk21"><path d="M428.2,148.4283 C428.2,168.3683 428.2,186.6683 428.2,202.7483" fill="none" id="Input-to-Engine" style="stroke:#181818;stroke-width:1;"/><polygon fill="#181818" points="428.2,208.7483,432.2,199.7483,428.2,203.7483,424.2,199.7483,428.2,208.7483" style="stroke:#181818;stroke-width:1;"/></g><!--link Engine to MMHCS--><g class="link" data-entity-1="ent0004" data-entity-2="ent0006" data-link-type="dependency" data-source-line="40" id="lnk22"><path d="M473.48,245.7583 C490.32,253.4683 509.01,263.5083 524.2,275.4483 C548.62,294.6483 567.2563,317.729 581.6363,338.069" fill="none" id="Engine-to-MMHCS" style="stroke:#181818;stroke-width:1;"/><polygon fill="#181818" points="585.1,342.9683,583.1706,333.3102,582.2136,338.8856,576.6383,337.9285,585.1,342.9683" style="stroke:#181818;stroke-width:1;"/></g><!--link MMHCS to Chain--><g class="link" data-entity-1="ent0006" data-entity-2="ent0007" data-link-type="dependency" data-source-line="41" id="lnk23"><path d="M585.72,396.8283 C569.23,422.7383 547.2221,457.3069 530.7721,483.1469" fill="none" id="MMHCS-to-Chain" style="stroke:#181818;stroke-width:1;"/><polygon fill="#181818" points="527.55,488.2083,535.7575,482.7643,530.2351,483.9904,529.0089,478.4681,527.55,488.2083" style="stroke:#181818;stroke-width:1;"/><text fill="#000000" font-family="sans-serif" font-size="13" lengthAdjust="spacing" textLength="43.7163" x="565.85" y="447.4866">update</text></g><!--link MMHCS to Signer--><g class="link" data-entity-1="ent0006" data-entity-2="ent0008" data-link-type="dependency" data-source-line="42" id="lnk24"><path d="M609.91,396.8683 C615.35,414.4283 623.08,438.0583 631.2,458.4183 C635.1,468.2083 637.2954,473.2987 641.6754,482.5187" fill="none" id="MMHCS-to-Signer" style="stroke:#181818;stroke-width:1;"/><polygon fill="#181818" points="644.25,487.9383,644.0012,478.0926,642.1045,483.422,636.7751,481.5253,644.25,487.9383" style="stroke:#181818;stroke-width:1;"/><text fill="#000000" font-family="sans-serif" font-size="13" lengthAdjust="spacing" textLength="98.4585" x="632.2" y="447.4866">sign chain hash</text></g><!--link MMHCS to Format--><g class="link" data-entity-1="ent0006" data-entity-2="ent0013" data-link-type="dependency" data-source-line="43" id="lnk25"><path d="M673.36,387.0183 C695.96,395.3583 719.2,407.8383 735.2,426.4183 C761.36,456.7983 757.2,473.8183 757.2,513.9083 C757.2,513.9083 757.2,513.9083 757.2,822.8683 C757.2,885.0183 703.6897,931.3769 660.2397,959.6369" fill="none" id="MMHCS-to-Format" style="stroke:#181818;stroke-width:1;"/><polygon fill="#181818" points="655.21,962.9083,664.9355,961.3544,659.4014,960.1822,660.5737,954.6481,655.21,962.9083" style="stroke:#181818;stroke-width:1;"/><text fill="#000000" font-family="sans-serif" font-size="13" lengthAdjust="spacing" textLength="117.7808" x="758.2" y="689.4566">format SD element</text><text fill="#000000" font-family="sans-serif" font-size="13" lengthAdjust="spacing" textLength="94.688" x="769.7464" y="704.7672">strip client SDs</text></g><!--link MMHCS to StateFile--><g class="link" data-entity-1="ent0006" data-entity-2="ent0020" data-link-type="dependency" data-source-line="44" id="lnk26"><path d="M673.57,386.7283 C707.81,395.8183 748.76,408.9383 783.2,426.4183 C815.99,443.0683 844.6055,465.034 867.2155,484.324" fill="none" id="MMHCS-to-StateFile" style="stroke:#181818;stroke-width:1;stroke-dasharray:7,7;"/><polygon fill="#181818" points="871.78,488.2183,867.5294,479.3339,867.9762,484.9731,862.3371,485.4199,871.78,488.2183" style="stroke:#181818;stroke-width:1;"/><text fill="#000000" font-family="sans-serif" font-size="13" lengthAdjust="spacing" textLength="113.9341" x="835" y="439.9866">save on shutdown</text><text fill="#000000" font-family="sans-serif" font-size="13" lengthAdjust="spacing" textLength="96.4844" x="843.7249" y="455.2972">load on startup</text></g><!--link Chain to Crypto--><g class="link" data-entity-1="ent0007" data-entity-2="ent0012" data-link-type="dependency" data-source-line="45" id="lnk27"><path d="M475.64,541.6983 C451.93,561.0383 422.41,589.7183 407.2,622.3983 C352.56,739.7483 361.2278,894.7586 367.4978,956.9186" fill="none" id="Chain-to-Crypto" style="stroke:#181818;stroke-width:1;stroke-dasharray:7,7;"/><polygon fill="#181818" points="368.1,962.8883,371.1766,953.5323,367.5982,957.9135,363.217,954.3352,368.1,962.8883" style="stroke:#181818;stroke-width:1;"/><text fill="#000000" font-family="sans-serif" font-size="13" lengthAdjust="spacing" textLength="114.6196" x="371.98" y="761.9466">hcs_sha256_chain</text></g><!--link Signer to Crypto--><g class="link" data-entity-1="ent0008" data-entity-2="ent0012" data-link-type="dependency" data-source-line="46" id="lnk28"><path d="M651.56,541.5983 C642.34,584.3383 623.87,672.8083 612.2,748.3783 C601,820.8783 645.79,861.1983 593.2,912.3483 C578.65,926.5083 521.68,914.6483 502.2,920.3483 C469.68,929.8683 441.0112,944.685 415.8812,959.805" fill="none" id="Signer-to-Crypto" style="stroke:#181818;stroke-width:1;stroke-dasharray:7,7;"/><polygon fill="#181818" points="410.74,962.8983,420.5139,961.6858,415.0243,960.3205,416.3896,954.8309,410.74,962.8983" style="stroke:#181818;stroke-width:1;"/><text fill="#000000" font-family="sans-serif" font-size="13" lengthAdjust="spacing" textLength="117.438" x="613.2" y="761.9466">hcs_ed25519_sign</text></g><!--link Signer to Privkey--><g class="link" data-entity-1="ent0008" data-entity-2="ent0017" data-link-type="dependency" data-source-line="47" id="lnk29"><path d="M642.59,541.8883 C631.78,558.4683 615.44,578.7683 595.2,589.3983 C578.99,597.9083 526.14,584.4483 513.2,597.3983 C495.91,614.7083 494.9832,637.8828 497.8532,659.0328" fill="none" id="Signer-to-Privkey" style="stroke:#181818;stroke-width:1;stroke-dasharray:7,7;"/><polygon fill="#181818" points="498.66,664.9783,501.4135,655.5222,497.9877,660.0237,493.4861,656.5979,498.66,664.9783" style="stroke:#181818;stroke-width:1;"/><text fill="#000000" font-family="sans-serif" font-size="13" lengthAdjust="spacing" textLength="96.4844" x="514.2" y="610.9666">load on startup</text></g><!--link Engine to Omfile--><g class="link" data-entity-1="ent0004" data-entity-2="ent0009" data-link-type="dependency" data-source-line="48" id="lnk30"><path d="M380.55,232.5783 C350.95,237.8983 314.57,249.6183 293.2,275.4483 C275.51,296.8083 274.5745,324.7296 276.3145,345.3096" fill="none" id="Engine-to-Omfile" style="stroke:#181818;stroke-width:1;"/><polygon fill="#181818" points="276.82,351.2883,280.0476,341.9833,276.3988,346.3061,272.076,342.6573,276.82,351.2883" style="stroke:#181818;stroke-width:1;"/><text fill="#000000" font-family="sans-serif" font-size="13" lengthAdjust="spacing" textLength="103.5112" x="294.2" y="289.0166">enriched smsg_t</text></g><!--link Engine to Omrelp--><g class="link" data-entity-1="ent0004" data-entity-2="ent0010" data-link-type="dependency" data-source-line="49" id="lnk31"><path d="M422.09,245.7383 C412.65,272.8583 396.5922,318.9717 387.2022,345.9517" fill="none" id="Engine-to-Omrelp" style="stroke:#181818;stroke-width:1;"/><polygon fill="#181818" points="385.23,351.6183,391.966,344.4332,386.8735,346.8961,384.4105,341.8036,385.23,351.6183" style="stroke:#181818;stroke-width:1;"/><text fill="#000000" font-family="sans-serif" font-size="13" lengthAdjust="spacing" textLength="103.5112" x="411.95" y="289.0166">enriched smsg_t</text></g><!--link Omfile to LogFile--><g class="link" data-entity-1="ent0009" data-entity-2="ent0019" data-link-type="dependency" data-source-line="50" id="lnk32"><path d="M261.17,388.4683 C232.96,415.9083 182.9707,464.5246 154.6707,492.0546" fill="none" id="Omfile-to-LogFile" style="stroke:#181818;stroke-width:1;"/><polygon fill="#181818" points="150.37,496.2383,159.6103,492.8299,153.954,492.7518,154.032,487.0955,150.37,496.2383" style="stroke:#181818;stroke-width:1;"/></g><!--link VerifyCLI to Verifier--><g class="link" data-entity-1="ent0015" data-entity-2="ent0016" data-link-type="dependency" data-source-line="52" id="lnk33"><path d="M191.05,718.7883 C195.22,740.9883 200.0849,766.9109 204.2449,789.1109" fill="none" id="VerifyCLI-to-Verifier" style="stroke:#181818;stroke-width:1;"/><polygon fill="#181818" points="205.35,795.0083,207.6239,785.4255,204.4291,790.0938,199.7608,786.899,205.35,795.0083" style="stroke:#181818;stroke-width:1;"/></g><!--link Verifier to Format--><g class="link" data-entity-1="ent0016" data-entity-2="ent0013" data-link-type="dependency" data-source-line="53" id="lnk34"><path d="M272.6,838.8583 C332.93,855.4283 426.13,883.9983 502.2,920.3483 C527.27,932.3383 548.6393,945.7039 568.8993,959.6639" fill="none" id="Verifier-to-Format" style="stroke:#181818;stroke-width:1;stroke-dasharray:7,7;"/><polygon fill="#181818" points="573.84,963.0683,568.6985,954.668,569.7228,960.2313,564.1594,961.2556,573.84,963.0683" style="stroke:#181818;stroke-width:1;"/><text fill="#000000" font-family="sans-serif" font-size="13" lengthAdjust="spacing" textLength="143.9585" x="480.54" y="893.9166">hcs_strip_sd_from_line</text><text fill="#000000" font-family="sans-serif" font-size="13" lengthAdjust="spacing" textLength="83.7129" x="510.6628" y="909.2272">hcs_parse_sd</text></g><!--link Verifier to Crypto--><g class="link" data-entity-1="ent0016" data-entity-2="ent0012" data-link-type="dependency" data-source-line="54" id="lnk35"><path d="M206.19,848.6083 C204.6,867.7983 205.55,893.7883 218.2,912.3483 C233.67,935.0483 252.4944,948.7877 277.1844,960.3277" fill="none" id="Verifier-to-Crypto" style="stroke:#181818;stroke-width:1;stroke-dasharray:7,7;"/><polygon fill="#181818" points="282.62,962.8683,276.1603,955.4337,278.0904,960.7511,272.7729,962.6812,282.62,962.8683" style="stroke:#181818;stroke-width:1;"/><text fill="#000000" font-family="sans-serif" font-size="13" lengthAdjust="spacing" textLength="114.6196" x="224.6399" y="893.9166">hcs_sha256_chain</text><text fill="#000000" font-family="sans-serif" font-size="13" lengthAdjust="spacing" textLength="125.4995" x="219.2" y="909.2272">hcs_ed25519_verify</text></g><!--link Verifier to Pubkey--><g class="link" data-entity-1="ent0016" data-entity-2="ent0018" data-link-type="dependency" data-source-line="55" id="lnk36"><path d="M148.07,834.7583 C122.53,843.0483 95.41,856.9883 80.2,880.3483 C62.2,907.9783 68.4852,942.7915 75.3552,965.6815" fill="none" id="Verifier-to-Pubkey" style="stroke:#181818;stroke-width:1;stroke-dasharray:7,7;"/><polygon fill="#181818" points="77.08,971.4283,78.324,961.6583,75.6427,966.6393,70.6617,963.958,77.08,971.4283" style="stroke:#181818;stroke-width:1;"/><text fill="#000000" font-family="sans-serif" font-size="13" lengthAdjust="spacing" textLength="96.4844" x="81.2" y="901.4166">load on startup</text></g><!--link LogFile to VerifyCLI--><g class="link" data-entity-1="ent0019" data-entity-2="ent0015" data-link-type="dependency" data-source-line="56" id="lnk37"><path d="M137.67,533.6483 C147.24,564.6683 165.2906,623.1451 176.4106,659.1751" fill="none" id="LogFile-to-VerifyCLI" style="stroke:#181818;stroke-width:1;"/><polygon fill="#181818" points="178.18,664.9083,179.348,655.1289,176.7055,660.1306,171.7037,657.4882,178.18,664.9083" style="stroke:#181818;stroke-width:1;"/><text fill="#000000" font-family="sans-serif" font-size="13" lengthAdjust="spacing" textLength="51.4922" x="163.43" y="610.9666">getline()</text></g><?plantuml-src TLHTQzim57tthxXaBoqqJbP8ONqeP6bB2oqT2-mfO5HPiKLaoKXojZ0A-n7xXViblRgoy-5w3YJorJbNH_UU6o-z4b1L9NCbBvdKJXOE_ltv2mjJrKOBxM5kUIczuBwn8adSHkgQMLO1xn1BlyCa5X5C5qeSGLp9SlDJwWBMJ3anH8RV2U3pbV5DOKsZyuLHniAdTHu-SS_ONDWsFgCdUKkI6Yci432oRkUKAQ0qpaDj3HVEZTgyXtD6icf-ESCtC5bfMTMUrt5bXQf7m1mywhhnVTRtHeaxNKWj21EN2Q7s0dhrIvtfZkybwm5N-YmtS-wbqUUK_VdvOR4S8kvfI5a-pCUNiokWzyXRXEKG3q_HmYBfBh-SpJv_YV0bHGd_blGlRAgrLF6oBxJy2DXNx8MM9yqekGjjjo879Lyjixk1LY0eutPNUtEupmMq6YzW8tQW3ClRon5mACNQs8hvaE8Mcs6TcCJ8n7ahwyY-fyY9nAsmSYqv2tK7RumQKDZhr9WuEpngyVGO4_-W2BxsgJ4zLTrvvd6y60wG5aSqt0sAGdLXr5uRdIkt0OwtH-hqQZgDZ6yOnrWVtRmgoGCuWfhN0sQoPNQ24p59qzG9ZdERuXlXdann7teQWH-C6_HskWCabxQrJ8WGCw4nWV7ufXk6-4EHQ63wfdSo9bn3K-V8Fzg85iITuD1ePGXQZY2nSmY9JGLiib2YmXglD3KOk9AXuijRrzBIzEQWD2HdMm7OP5Ss7l-8S7g2hIZYcVLDdKI1WHTjXgJWB7GmMZ8ZNKchzGD8n5PauGh7eBPXYEgVTbIfE5k84TfANkAukCeLcJ_5XF4QmBJaWEaQckpzIE6zpRe5ATkNbEuOQfYvF5jRKsKA3rtf4AT9mlWfzR_bYQIk5d5EJgdHcmFbQBKV19FyQoY43tBEpfDt?></g></svg>