<?plantuml 1.2026.2?><svg xmlns="http://www.w3.org/2000/svg" xmlns:xlink="http://www.w3.org/1999/xlink" contentStyleType="text/css" data-diagram-type="DESCRIPTION" height="1024px" preserveAspectRatio="none" style="width:1006px;height:1024px;background:#FFFFFF;" version="1.1" viewBox="0 0 1006 1024" width="1006px" zoomAndPan="magnify"><title>mmhashchainsigs &#8212; Component Architecture</title><defs/><g><g class="title" data-source-line="1"><text fill="#000000" font-family="sans-serif" font-size="14" font-weight="bold" lengthAdjust="spacing" textLength="329.3828" x="331.799" y="23.5352">mmhashchainsigs &#8212; Component Architecture</text></g><!--cluster rsyslog host process--><g class="cluster" data-qualified-name="rsyslog host process" data-source-line="10" id="ent0002"><path d="M307.7,43.4883 L458.8104,43.4883 A3.75,3.75 0 0 1 461.3104,45.9883 L468.3104,65.9766 L812.7,65.9766 A2.5,2.5 0 0 1 815.2,68.4766 L815.2,563.8983 A2.5,2.5 0 0 1 812.7,566.3983 L307.7,566.3983 A2.5,2.5 0 0 1 305.2,563.8983 L305.2,45.9883 A2.5,2.5 0 0 1 307.7,43.4883" fill="none" style="stroke:#000000;stroke-width:1.5;"/><line style="stroke:#000000;stroke-width:1.5;" x1="305.2" x2="468.3104" y1="65.9766" y2="65.9766"/><text fill="#000000" font-family="sans-serif" font-size="14" font-weight="bold" lengthAdjust="spacing" textLength="150.1104" x="309.2" y="59.0234">rsyslog host process</text></g><!--cluster mmhashchainsigs.so--><g class="cluster" data-qualified-name="rsyslog host process.mmhashchainsigs.so" data-source-line="14" id="ent0005"><path d="M504.7,308.4483 L655.9471,308.4483 A3.75,3.75 0 0 1 658.4471,310.9483 L665.4471,330.9366 L788.7,330.9366 A2.5,2.5 0 0 1 791.2,333.4366 L791.2,539.8983 A2.5,2.5 0 0 1 788.7,542.3983 L504.7,542.3983 A2.5,2.5 0 0 1 502.2,539.8983 L502.2,310.9483 A2.5,2.5 0 0 1 504.7,308.4483" fill="none" style="stroke:#000000;stroke-width:1.5;"/><line style="stroke:#000000;stroke-width:1.5;" x1="502.2" x2="665.4471" y1="330.9366" y2="330.9366"/><text fill="#000000" font-family="sans-serif" font-size="14" font-weight="bold" lengthAdjust="spacing" textLength="150.2471" x="506.2" y="323.9834">mmhashchainsigs.so</text></g><!--cluster hcs shared library--><g class="cluster" data-qualified-name="hcs shared library" data-source-line="24" id="ent0011"><path d="M244.7,913.3483 L376.1775,913.3483 A3.75,3.75 0 0 1 378.6775,915.8483 L385.6775,935.8366 L712.7,935.8366 A2.5,2.5 0 0 1 715.2,938.3366 L715.2,1014.8283 A2.5,2.5 0 0 1 712.7,1017.3283 L244.7,1017.3283 A2.5,2.5 0 0 1 242.2,1014.8283 L242.2,915.8483 A2.5,2.5 0 0 1 244.7,913.3483" fill="none" style="stroke:#000000;stroke-width:1.5;"/><line style="stroke:#000000;stroke-width:1.5;" x1="242.2" x2="385.6775" y1="935.8366" y2="935.8366"/><text fill="#000000" font-family="sans-serif" font-size="14" font-weight="bold" lengthAdjust="spacing" textLength="130.4775" x="246.2" y="928.8834">hcs shared library</text></g><!--cluster verification tool--><g class="cluster" data-qualified-name="verification tool" data-source-line="29" id="ent0014"><path d="M101.7,615.3983 L217.2498,615.3983 A3.75,3.75 0 0 1 219.7498,617.8983 L226.7498,637.8866 L316.7,637.8866 A2.5,2.5 0 0 1 319.2,640.3866 L319.2,846.8483 A2.5,2.5 0 0 1 316.7,849.3483 L101.7,849.3483 A2.5,2.5 0 0 1 99.2,846.8483 L99.2,617.8983 A2.5,2.5 0 0 1 101.7,615.3983" fill="none" style="stroke:#000000;stroke-width:1.5;"/><line style="stroke:#000000;stroke-width:1.5;" x1="99.2" x2="226.7498" y1="637.8866" y2="637.8866"/><text fill="#000000" font-family="sans-serif" font-size="14" font-weight="bold" lengthAdjust="spacing" textLength="114.5498" x="103.2" y="630.9334">verification tool</text></g><!--entity Input--><g class="entity" data-qualified-name="rsyslog host process.Input" data-source-line="11" id="ent0003"><rect fill="#FDFDFD" height="69.4648" rx="2.5" ry="2.5" style="stroke:#555555;stroke-width:0.5;" width="97.2529" x="452.57" y="78.4883"/><text fill="#000000" font-family="sans-serif" font-size="14" lengthAdjust="spacing" textLength="77.2529" x="462.57" y="102.0234">imuxsock /</text><text fill="#000000" font-family="sans-serif" font-size="14" lengthAdjust="spacing" textLength="58.9189" x="462.57" y="118.5117">imptcp /</text><text fill="#000000" font-family="sans-serif" font-size="14" lengthAdjust="spacing" textLength="43.5039" x="462.57" y="135">imrelp</text></g><!--entity Engine--><g class="entity" data-qualified-name="rsyslog host process.Engine" data-source-line="12" id="ent0004"><rect fill="#FDFDFD" height="36.4883" rx="2.5" ry="2.5" style="stroke:#555555;stroke-width:0.5;" width="94.9287" x="453.73" y="208.9583"/><text fill="#000000" font-family="sans-serif" font-size="14" lengthAdjust="spacing" textLength="74.9287" x="463.73" y="232.4934">RuleEngine</text></g><!--entity Omfile--><g class="entity" data-qualified-name="rsyslog host process.Omfile" data-source-line="20" id="ent0009"><rect fill="#FDFDFD" height="36.4883" rx="2.5" ry="2.5" style="stroke:#555555;stroke-width:0.5;" width="62.7109" x="320.84" y="351.6883"/><text fill="#000000" font-family="sans-serif" font-size="14" lengthAdjust="spacing" textLength="42.7109" x="330.84" y="375.2234">omfile</text></g><!--entity Omrelp--><g class="entity" data-qualified-name="rsyslog host process.Omrelp" data-source-line="21" id="ent0010"><rect fill="#FDFDFD" height="36.4883" rx="2.5" ry="2.5" style="stroke:#555555;stroke-width:0.5;" width="68.0566" x="418.17" y="351.6883"/><text fill="#000000" font-family="sans-serif" font-size="14" lengthAdjust="spacing" textLength="48.0566" x="428.17" y="375.2234">omrelp</text></g><!--entity MMHCS--><g class="entity" data-qualified-name="rsyslog host process.mmhashchainsigs.so.MMHCS" data-source-line="15" id="ent0006"><rect fill="#FDFDFD" height="52.9766" rx="2.5" ry="2.5" style="stroke:#555555;stroke-width:0.5;" width="141.7617" x="586.32" y="343.4483"/><text fill="#000000" font-family="sans-serif" font-size="14" lengthAdjust="spacing" textLength="121.7617" x="596.32" y="366.9834">mmhashchainsigs</text><text fill="#000000" font-family="sans-serif" font-size="14" lengthAdjust="spacing" textLength="69.918" x="596.32" y="383.4717">(doAction)</text></g><!--entity Chain--><g class="entity" data-qualified-name="rsyslog host process.mmhashchainsigs.so.Chain" data-source-line="16" id="ent0007"><rect fill="#FDFDFD" height="52.9766" rx="2.5" ry="2.5" style="stroke:#555555;stroke-width:0.5;" width="132.0068" x="518.19" y="473.4183"/><text fill="#000000" font-family="sans-serif" font-size="14" lengthAdjust="spacing" textLength="68.5713" x="528.19" y="496.9534">hashchain</text><text fill="#000000" font-family="sans-serif" font-size="14" lengthAdjust="spacing" textLength="112.0068" x="528.19" y="513.4417">(SHA-256 chain)</text></g><!--entity Signer--><g class="entity" data-qualified-name="rsyslog host process.mmhashchainsigs.so.Signer" data-source-line="17" id="ent0008"><rect fill="#FDFDFD" height="52.9766" rx="2.5" ry="2.5" style="stroke:#555555;stroke-width:0.5;" width="89.7676" x="685.31" y="473.4183"/><text fill="#000000" font-family="sans-serif" font-size="14" lengthAdjust="spacing" textLength="42.1299" x="695.31" y="496.9534">signer</text><text fill="#000000" font-family="sans-serif" font-size="14" lengthAdjust="spacing" textLength="69.7676" x="695.31" y="513.4417">(Ed25519)</text></g><!--entity Crypto--><g class="entity" data-qualified-name="hcs shared library.Crypto" data-source-line="25" id="ent0012"><rect fill="#FDFDFD" height="52.9766" rx="2.5" ry="2.5" style="stroke:#555555;stroke-width:0.5;" width="226.5479" x="257.92" y="948.3483"/><text fill="#000000" font-family="sans-serif" font-size="14" lengthAdjust="spacing" textLength="72.8574" x="267.92" y="971.8834">hcs_crypto</text><text fill="#000000" font-family="sans-serif" font-size="14" lengthAdjust="spacing" textLength="206.5479" x="267.92" y="988.3717">(SHA-256, Ed25519, key load)</text></g><!--entity Format--><g class="entity" data-qualified-name="hcs shared library.Format" data-source-line="26" id="ent0013"><rect fill="#FDFDFD" height="52.9766" rx="2.5" ry="2.5" style="stroke:#555555;stroke-width:0.5;" width="179.9268" x="519.23" y="948.3483"/><text fill="#000000" font-family="sans-serif" font-size="14" lengthAdjust="spacing" textLength="75.5098" x="529.23" y="971.8834">hcs_format</text><text fill="#000000" font-family="sans-serif" font-size="14" lengthAdjust="spacing" textLength="159.9268" x="529.23" y="988.3717">(SD parse/format/strip)</text></g><!--entity VerifyCLI--><g class="entity" data-qualified-name="verification tool.VerifyCLI" data-source-line="30" id="ent0015"><rect fill="#FDFDFD" height="52.9766" rx="2.5" ry="2.5" style="stroke:#555555;stroke-width:0.5;" width="187.1455" x="115.62" y="650.3983"/><text fill="#000000" font-family="sans-serif" font-size="14" lengthAdjust="spacing" textLength="167.1455" x="125.62" y="673.9334">mmhashchainsigs-verify</text><text fill="#000000" font-family="sans-serif" font-size="14" lengthAdjust="spacing" textLength="30.29" x="125.62" y="690.4217">(CLI)</text></g><!--entity Verifier--><g class="entity" data-qualified-name="verification tool.Verifier" data-source-line="31" id="ent0016"><rect fill="#FDFDFD" height="52.9766" rx="2.5" ry="2.5" style="stroke:#555555;stroke-width:0.5;" width="123.8721" x="156.26" y="780.3783"/><text fill="#000000" font-family="sans-serif" font-size="14" lengthAdjust="spacing" textLength="47.5439" x="166.26" y="803.9134">verifier</text><text fill="#000000" font-family="sans-serif" font-size="14" lengthAdjust="spacing" textLength="103.8721" x="166.26" y="820.4017">(state machine)</text></g><!--entity Privkey--><g class="entity" data-qualified-name="Privkey" data-source-line="34" id="ent0017"><path d="M650.49,652.8983 L650.49,700.8748 A2.5,2.5 0 0 0 652.99,703.3748 L807.4089,703.3748 A2.5,2.5 0 0 0 809.9089,700.8748 L809.9089,660.3983 L799.9089,650.3983 L652.99,650.3983 A2.5,2.5 0 0 0 650.49,652.8983" fill="#F1F1F1" style="stroke:#181818;stroke-width:0.5;"/><path d="M799.9089,650.3983 L799.9089,657.8983 A2.5,2.5 0 0 0 802.4089,660.3983 L809.9089,660.3983" fill="#F1F1F1" style="stroke:#181818;stroke-width:0.5;"/><text fill="#000000" font-family="sans-serif" font-size="14" lengthAdjust="spacing" textLength="139.4189" x="660.49" y="673.9334">Ed25519 private key</text><text fill="#000000" font-family="sans-serif" font-size="14" lengthAdjust="spacing" textLength="44.5156" x="660.49" y="690.4217">(0600)</text></g><!--entity Pubkey--><g class="entity" data-qualified-name="Pubkey" data-source-line="35" id="ent0018"><path d="M6,959.0983 L6,990.5866 A2.5,2.5 0 0 0 8.5,993.0866 L157.8945,993.0866 A2.5,2.5 0 0 0 160.3945,990.5866 L160.3945,966.5983 L150.3945,956.5983 L8.5,956.5983 A2.5,2.5 0 0 0 6,959.0983" fill="#F1F1F1" style="stroke:#181818;stroke-width:0.5;"/><path d="M150.3945,956.5983 L150.3945,964.0983 A2.5,2.5 0 0 0 152.8945,966.5983 L160.3945,966.5983" fill="#F1F1F1" style="stroke:#181818;stroke-width:0.5;"/><text fill="#000000" font-family="sans-serif" font-size="14" lengthAdjust="spacing" textLength="134.3945" x="16" y="980.1334">Ed25519 public key</text></g><!--entity LogFile--><g class="entity" data-qualified-name="LogFile" data-source-line="36" id="ent0019"><path d="M121.43,484.1683 L121.43,515.6566 A2.5,2.5 0 0 0 123.93,518.1566 L286.4564,518.1566 A2.5,2.5 0 0 0 288.9564,515.6566 L288.9564,491.6683 L278.9564,481.6683 L123.93,481.6683 A2.5,2.5 0 0 0 121.43,484.1683" fill="#F1F1F1" style="stroke:#181818;stroke-width:0.5;"/><path d="M278.9564,481.6683 L278.9564,489.1683 A2.5,2.5 0 0 0 281.4564,491.6683 L288.9564,491.6683" fill="#F1F1F1" style="stroke:#181818;stroke-width:0.5;"/><text fill="#000000" font-family="sans-serif" font-size="14" lengthAdjust="spacing" textLength="147.5264" x="131.43" y="505.2034">/var/log/...secure.log</text></g><!--link Input to Engine--><g class="link" data-entity-1="ent0003" data-entity-2="ent0004" data-link-type="dependency" data-source-line="38" id="lnk20"><path d="M501.2,148.4283 C501.2,168.3683 501.2,186.6683 501.2,202.7483" fill="none" id="Input-to-Engine" style="stroke:#181818;stroke-width:1;"/><polygon fill="#181818" points="501.2,208.7483,505.2,199.7483,501.2,203.7483,497.2,199.7483,501.2,208.7483" style="stroke:#181818;stroke-width:1;"/></g><!--link Engine to MMHCS--><g class="link" data-entity-1="ent0004" data-entity-2="ent0006" data-link-type="dependency" data-source-line="39" id="lnk21"><path d="M548.77,245.4483 C565.31,252.9583 583.2,262.9483 597.2,275.4483 C618.49,294.4583 632.52,317.3701 642.84,337.8501" fill="none" id="Engine-to-MMHCS" style="stroke:#181818;stroke-width:1;"/><polygon fill="#181818" points="645.54,343.2083,645.0621,333.371,643.29,338.7431,637.9179,336.971,645.54,343.2083" style="stroke:#181818;stroke-width:1;"/></g><!--link MMHCS to Chain--><g class="link" data-entity-1="ent0006" data-entity-2="ent0007" data-link-type="dependency" data-source-line="40" id="lnk22"><path d="M609.91,396.7783 C599.57,404.8283 590,414.7283 584.2,426.4183 C577.1,440.7383 576.3191,452.7317 578.0691,467.1917" fill="none" id="MMHCS-to-Chain" style="stroke:#181818;stroke-width:1;"/><polygon fill="#181818" points="578.79,473.1483,581.6797,463.7329,578.1893,468.1845,573.7377,464.6941,578.79,473.1483" style="stroke:#181818;stroke-width:1;"/><text fill="#000000" font-family="sans-serif" font-size="13" lengthAdjust="spacing" textLength="43.7163" x="585.2" y="439.9866">update</text></g><!--link MMHCS to Signer--><g class="link" data-entity-1="ent0006" data-entity-2="ent0008" data-link-type="dependency" data-source-line="41" id="lnk23"><path d="M671.97,396.8283 C684.64,419.0383 699.8167,445.6468 712.4767,467.8368" fill="none" id="MMHCS-to-Signer" style="stroke:#181818;stroke-width:1;"/><polygon fill="#181818" points="715.45,473.0483,714.4644,463.2489,712.9723,468.7054,707.5157,467.2133,715.45,473.0483" style="stroke:#181818;stroke-width:1;"/><text fill="#000000" font-family="sans-serif" font-size="13" lengthAdjust="spacing" textLength="98.4585" x="699.07" y="439.9866">sign chain hash</text></g><!--link MMHCS to Format--><g class="link" data-entity-1="ent0006" data-entity-2="ent0013" data-link-type="dependency" data-source-line="42" id="lnk24"><path d="M728.37,381.4283 C793.63,395.5583 880.2,427.7083 880.2,498.9083 C880.2,498.9083 880.2,498.9083 880.2,807.8683 C880.2,894.4783 784.0831,935.8024 705.2531,955.9524" fill="none" id="MMHCS-to-Format" style="stroke:#181818;stroke-width:1;"/><polygon fill="#181818" points="699.44,957.4383,709.1502,959.0848,704.2842,956.2,707.169,951.334,699.44,957.4383" style="stroke:#181818;stroke-width:1;"/><text fill="#000000" font-family="sans-serif" font-size="13" lengthAdjust="spacing" textLength="117.7808" x="881.2" y="674.4566">format SD element</text><text fill="#000000" font-family="sans-serif" font-size="13" lengthAdjust="spacing" textLength="94.688" x="892.7464" y="689.7672">strip client SDs</text></g><!--link Chain to Crypto--><g class="link" data-entity-1="ent0007" data-entity-2="ent0012" data-link-type="dependency" data-source-line="43" id="lnk25"><path d="M564.46,526.6983 C533.57,568.1683 473.65,653.1683 438.2,733.3783 C405.17,808.0883 385.5803,897.2557 376.9603,942.1957" fill="none" id="Chain-to-Crypto" style="stroke:#181818;stroke-width:1;stroke-dasharray:7,7;"/><polygon fill="#181818" points="375.83,948.0883,381.4538,940.0029,376.7719,943.1778,373.597,938.4959,375.83,948.0883" style="stroke:#181818;stroke-width:1;"/><text fill="#000000" font-family="sans-serif" font-size="13" lengthAdjust="spacing" textLength="114.6196" x="439.2" y="746.9466">hcs_sha256_chain</text></g><!--link Signer to Crypto--><g class="link" data-entity-1="ent0008" data-entity-2="ent0012" data-link-type="dependency" data-source-line="44" id="lnk26"><path d="M709.65,526.6983 C697.9,541.0783 682.65,559.1183 668.2,574.3983 C653.5,589.9283 643.56,588.6983 633.2,607.3983 C569.49,722.3483 672.14,808.6183 575.2,897.3483 C563.16,908.3683 517.81,900.5983 502.2,905.3483 C469.91,915.1783 441.3829,929.9046 416.2529,944.8946" fill="none" id="Signer-to-Crypto" style="stroke:#181818;stroke-width:1;stroke-dasharray:7,7;"/><polygon fill="#181818" points="411.1,947.9683,420.8785,946.793,415.3941,945.4069,416.7802,939.9225,411.1,947.9683" style="stroke:#181818;stroke-width:1;"/><text fill="#000000" font-family="sans-serif" font-size="13" lengthAdjust="spacing" textLength="117.438" x="616.04" y="746.9466">hcs_ed25519_sign</text></g><!--link Signer to Privkey--><g class="link" data-entity-1="ent0008" data-entity-2="ent0017" data-link-type="dependency" data-source-line="45" id="lnk27"><path d="M730.2,526.7283 C730.2,559.8083 730.2,610.8283 730.2,643.9583" fill="none" id="Signer-to-Privkey" style="stroke:#181818;stroke-width:1;stroke-dasharray:7,7;"/><polygon fill="#181818" points="730.2,649.9583,734.2,640.9583,730.2,644.9583,726.2,640.9583,730.2,649.9583" style="stroke:#181818;stroke-width:1;"/><text fill="#000000" font-family="sans-serif" font-size="13" lengthAdjust="spacing" textLength="96.4844" x="731.2" y="595.9666">load on startup</text></g><!--link Engine to Omfile--><g class="link" data-entity-1="ent0004" data-entity-2="ent0009" data-link-type="dependency" data-source-line="46" id="lnk28"><path d="M453.55,232.5783 C423.95,237.8983 387.57,249.6183 366.2,275.4483 C348.51,296.8083 347.5745,324.7296 349.3145,345.3096" fill="none" id="Engine-to-Omfile" style="stroke:#181818;stroke-width:1;"/><polygon fill="#181818" points="349.82,351.2883,353.0476,341.9833,349.3988,346.3061,345.076,342.6573,349.82,351.2883" style="stroke:#181818;stroke-width:1;"/><text fill="#000000" font-family="sans-serif" font-size="13" lengthAdjust="spacing" textLength="103.5112" x="367.2" y="289.0166">enriched smsg_t</text></g><!--link Engine to Omrelp--><g class="link" data-entity-1="ent0004" data-entity-2="ent0010" data-link-type="dependency" data-source-line="47" id="lnk29"><path d="M495.09,245.7383 C485.65,272.8583 469.5922,318.9717 460.2022,345.9517" fill="none" id="Engine-to-Omrelp" style="stroke:#181818;stroke-width:1;"/><polygon fill="#181818" points="458.23,351.6183,464.966,344.4332,459.8735,346.8961,457.4105,341.8036,458.23,351.6183" style="stroke:#181818;stroke-width:1;"/><text fill="#000000" font-family="sans-serif" font-size="13" lengthAdjust="spacing" textLength="103.5112" x="484.95" y="289.0166">enriched smsg_t</text></g><!--link Omfile to LogFile--><g class="link" data-entity-1="ent0009" data-entity-2="ent0019" data-link-type="dependency" data-source-line="48" id="lnk30"><path d="M332.07,388.4583 C304.07,412.8283 258.1947,452.7679 230.0847,477.2479" fill="none" id="Omfile-to-LogFile" style="stroke:#181818;stroke-width:1;"/><polygon fill="#181818" points="225.56,481.1883,234.974,478.2941,229.3306,477.9046,229.7201,472.2612,225.56,481.1883" style="stroke:#181818;stroke-width:1;"/></g><!--link VerifyCLI to Verifier--><g class="link" data-entity-1="ent0015" data-entity-2="ent0016" data-link-type="dependency" data-source-line="50" id="lnk31"><path d="M211.02,703.7883 C212.58,725.9883 214.3994,751.823 215.9594,774.023" fill="none" id="VerifyCLI-to-Verifier" style="stroke:#181818;stroke-width:1;"/><polygon fill="#181818" points="216.38,780.0083,219.7393,770.75,216.0295,775.0206,211.759,771.3108,216.38,780.0083" style="stroke:#181818;stroke-width:1;"/></g><!--link Verifier to Format--><g class="link" data-entity-1="ent0016" data-entity-2="ent0013" data-link-type="dependency" data-source-line="51" id="lnk32"><path d="M280.54,824.5983 C339.24,841.4283 428.85,869.9183 502.2,905.3483 C527.22,917.4383 548.5851,930.82 568.8551,944.75" fill="none" id="Verifier-to-Format" style="stroke:#181818;stroke-width:1;stroke-dasharray:7,7;"/><polygon fill="#181818" points="573.8,948.1483,568.6482,939.7543,569.6793,945.3164,564.1172,946.3475,573.8,948.1483" style="stroke:#181818;stroke-width:1;"/><text fill="#000000" font-family="sans-serif" font-size="13" lengthAdjust="spacing" textLength="143.9585" x="481.14" y="878.9166">hcs_strip_sd_from_line</text><text fill="#000000" font-family="sans-serif" font-size="13" lengthAdjust="spacing" textLength="83.7129" x="511.2628" y="894.2272">hcs_parse_sd</text></g><!--link Verifier to Crypto--><g class="link" data-entity-1="ent0016" data-entity-2="ent0012" data-link-type="dependency" data-source-line="52" id="lnk33"><path d="M211.37,833.7283 C207.89,852.7483 206.52,878.4583 218.2,897.3483 C232.33,920.2083 250.1694,933.8959 274.3394,945.3659" fill="none" id="Verifier-to-Crypto" style="stroke:#181818;stroke-width:1;stroke-dasharray:7,7;"/><polygon fill="#181818" points="279.76,947.9383,273.344,940.466,275.2428,945.7946,269.9142,947.6935,279.76,947.9383" style="stroke:#181818;stroke-width:1;"/><text fill="#000000" font-family="sans-serif" font-size="13" lengthAdjust="spacing" textLength="114.6196" x="224.6399" y="878.9166">hcs_sha256_chain</text><text fill="#000000" font-family="sans-serif" font-size="13" lengthAdjust="spacing" textLength="125.4995" x="219.2" y="894.2272">hcs_ed25519_verify</text></g><!--link Verifier to Pubkey--><g class="link" data-entity-1="ent0016" data-entity-2="ent0018" data-link-type="dependency" data-source-line="53" id="lnk34"><path d="M155.94,817.7583 C127.83,825.6683 97.19,839.8683 80.2,865.3483 C61.91,892.7883 68.2771,927.667 75.2471,950.627" fill="none" id="Verifier-to-Pubkey" style="stroke:#181818;stroke-width:1;stroke-dasharray:7,7;"/><polygon fill="#181818" points="76.99,956.3683,78.2032,946.5944,75.5376,951.5839,70.5481,948.9183,76.99,956.3683" style="stroke:#181818;stroke-width:1;"/><text fill="#000000" font-family="sans-serif" font-size="13" lengthAdjust="spacing" textLength="96.4844" x="81.2" y="886.4166">load on startup</text></g><!--link LogFile to VerifyCLI--><g class="link" data-entity-1="ent0019" data-entity-2="ent0015" data-link-type="dependency" data-source-line="54" id="lnk35"><path d="M205.6,518.6483 C206.31,549.6683 207.6435,607.8798 208.4635,643.9098" fill="none" id="LogFile-to-VerifyCLI" style="stroke:#181818;stroke-width:1;"/><polygon fill="#181818" points="208.6,649.9083,212.3942,640.8196,208.4862,644.9096,204.3963,641.0016,208.6,649.9083" style="stroke:#181818;stroke-width:1;"/><text fill="#000000" font-family="sans-serif" font-size="13" lengthAdjust="spacing" textLength="51.4922" x="208.44" y="595.9666">getline()</text></g><?plantuml-src TLFHQjim57ttLroobnOQ9okai3uKihIbXPQE1VOKC8gis2AoP2IvMnY5VSI-S5_Igol7ILmlWKIwEkVgtdEFlFHAG5MLp9MyP58xMJZuz-SlB4nL6osqXxdbfVI2-yQA975RgMjcMGLyZrZw7IQnY62wKE88uagMcvzI5x1XoeaXClnE03zV6TyMrZGwNnXbB7pQvE4RpupDXMtZC_eaRqbI8uKL0aRMxPmo1PJ6UQYjuSAvKPltSCz8LiqlP_WM9YijgzhpEgwiKFK8c8D7NJU-p_hUA76d2wa5OU8o8LHNG4-_r9dzzRraFU1Ad-Lcphqq-fooFpy_B9P3n8w6bEN3V7mvkmBQHzuYB8TuU8iM5abt-ULizlbBX2yfIlYtfD-mgJPInMPVQFaHq2dsGikJOPJSXR5RaOEIQyliRc0K2CgutTNU7FgvWBR62zYA7IZ3yhOv0Wwbs1XRCHzItE8mh1EJ69auRsKTsVSKEIdnLLYvaPm5tS4RemOgx4rgJ9mTNhLuUeo9Vr04jtrgJ4-gEyyyFY-63qYB8ngUXeg2kZ1gsqRdojS0n-wHEhsQJYFZ6yOnraStQoLv04TGipvW9g_CJl15JD8qTOBZkqrnHxWdKzo7cIPaTXYFR_QMZdyKYJQaNzgJlU0QcZh70eyEef7m9FWi6XA2RaUGg3z2ucW0HoMKg52fbQOn0LSowBQyTKcyA4rlsg4ZBSmP_OG6oIX_qjxv0IIYC5aevHZKoeUeO2d0aUDKh6_guuwZqn4Zj9MyHFEwoXMPFyK4imzWMdB0TF9sxg1mD_JzWYhhfA4UWnQPoxEDDLMcyDAL3d7oDSPFgV-L9vBsMaJNdbAZKmRaQ6i_54pbNqCXV2Zdx3nv1m00?></g></svg>