<?plantuml 1.2026.2?><svg xmlns="http://www.w3.org/2000/svg" xmlns:xlink="http://www.w3.org/1999/xlink" contentStyleType="text/css" data-diagram-type="SEQUENCE" height="1565px" preserveAspectRatio="none" style="width:1785px;height:1565px;background:#FFFFFF;" version="1.1" viewBox="0 0 1785 1565" width="1785px" zoomAndPan="magnify"><title>mmhashchainsigs &#8212; End-to-end Message Processing (one message)</title><defs/><g><text fill="#000000" font-family="sans-serif" font-size="14" font-weight="bold" lengthAdjust="spacing" textLength="498.4355" x="641.1343" y="28.5352">mmhashchainsigs &#8212; End-to-end Message Processing (one message)</text><g><title>mmhashchainsigs</title><rect fill="#FFFFFF" height="979.1582" style="stroke:#181818;stroke-width:1;" width="10" x="885.0376" y="340.4609"/></g><rect fill="none" height="308.0156" style="stroke:#000000;stroke-width:1.5;" width="631.0063" x="812.1567" y="940.9824"/><g class="participant-lifeline" data-entity-uid="part1" data-qualified-name="App" id="part1-lifeline"><g><title>Application</title><rect fill="#000000" fill-opacity="0.00000" height="1365.5059" width="8" x="42.4248" y="118.9766"/><line style="stroke:#181818;stroke-width:0.5;stroke-dasharray:5,5;" x1="46" x2="46" y1="118.9766" y2="1484.4824"/></g></g><g class="participant-lifeline" data-entity-uid="part2" data-qualified-name="Kernel" id="part2-lifeline"><g><title>Kernel</title><rect fill="#000000" fill-opacity="0.00000" height="1365.5059" width="8" x="159.6909" y="118.9766"/><line style="stroke:#181818;stroke-width:0.5;stroke-dasharray:5,5;" x1="163.2461" x2="163.2461" y1="118.9766" y2="1484.4824"/></g></g><g class="participant-lifeline" data-entity-uid="part3" data-qualified-name="Input" id="part3-lifeline"><g><title>rsyslog imuxsock.</title><rect fill="#000000" fill-opacity="0.00000" height="1365.5059" width="8" x="294.1084" y="118.9766"/><line style="stroke:#181818;stroke-width:0.5;stroke-dasharray:5,5;" x1="297.1357" x2="297.1357" y1="118.9766" y2="1484.4824"/></g></g><g class="participant-lifeline" data-entity-uid="part4" data-qualified-name="Parser" id="part4-lifeline"><g><title>rsyslog parser</title><rect fill="#000000" fill-opacity="0.00000" height="1365.5059" width="8" x="447.1914" y="118.9766"/><line style="stroke:#181818;stroke-width:0.5;stroke-dasharray:5,5;" x1="451.0811" x2="451.0811" y1="118.9766" y2="1484.4824"/></g></g><g class="participant-lifeline" data-entity-uid="part5" data-qualified-name="Engine" id="part5-lifeline"><g><title>RuleEngine</title><rect fill="#000000" fill-opacity="0.00000" height="1365.5059" width="8" x="662.3677" y="118.9766"/><line style="stroke:#181818;stroke-width:0.5;stroke-dasharray:5,5;" x1="665.9033" x2="665.9033" y1="118.9766" y2="1484.4824"/></g></g><g class="participant-lifeline" data-entity-uid="part6" data-qualified-name="MMHCS" id="part6-lifeline"><g><title>mmhashchainsigs</title><rect fill="#000000" fill-opacity="0.00000" height="1365.5059" width="8" x="886.0376" y="118.9766"/><line style="stroke:#181818;stroke-width:0.5;stroke-dasharray:5,5;" x1="889.1567" x2="889.1567" y1="118.9766" y2="1484.4824"/></g></g><g class="participant-lifeline" data-entity-uid="part7" data-qualified-name="Chain" id="part7-lifeline"><g><title>hashchain</title><rect fill="#000000" fill-opacity="0.00000" height="1365.5059" width="8" x="1209.1162" y="118.9766"/><line style="stroke:#181818;stroke-width:0.5;stroke-dasharray:5,5;" x1="1212.8306" x2="1212.8306" y1="118.9766" y2="1484.4824"/></g></g><g class="participant-lifeline" data-entity-uid="part8" data-qualified-name="Signer" id="part8-lifeline"><g><title>signer</title><rect fill="#000000" fill-opacity="0.00000" height="1365.5059" width="8" x="1401.0981" y="118.9766"/><line style="stroke:#181818;stroke-width:0.5;stroke-dasharray:5,5;" x1="1405.0332" x2="1405.0332" y1="118.9766" y2="1484.4824"/></g></g><g class="participant-lifeline" data-entity-uid="part9" data-qualified-name="Omfile" id="part9-lifeline"><g><title>omfile</title><rect fill="#000000" fill-opacity="0.00000" height="1365.5059" width="8" x="1491.7656" y="118.9766"/><line style="stroke:#181818;stroke-width:0.5;stroke-dasharray:5,5;" x1="1495.1631" x2="1495.1631" y1="118.9766" y2="1484.4824"/></g></g><g class="participant-lifeline" data-entity-uid="part10" data-qualified-name="File" id="part10-lifeline"><g><title>log file</title><rect fill="#000000" fill-opacity="0.00000" height="1365.5059" width="8" x="1746.2808" y="118.9766"/><line style="stroke:#181818;stroke-width:0.5;stroke-dasharray:5,5;" x1="1749.8574" x2="1749.8574" y1="118.9766" y2="1484.4824"/></g></g><g class="participant participant-head" data-entity-uid="part1" data-qualified-name="App" id="part1-head"><text fill="#000000" font-family="sans-serif" font-size="14" lengthAdjust="spacing" textLength="76.8496" x="5" y="116.0234">Application</text><ellipse cx="46.4248" cy="50.9883" fill="#E2E2F0" rx="8" ry="8" style="stroke:#181818;stroke-width:0.5;"/><path d="M46.4248,58.9883 L46.4248,85.9883 M33.4248,66.9883 L59.4248,66.9883 M46.4248,85.9883 L33.4248,100.9883 M46.4248,85.9883 L59.4248,100.9883" fill="none" style="stroke:#181818;stroke-width:0.5;"/></g><g class="participant participant-tail" data-entity-uid="part1" data-qualified-name="App" id="part1-tail"><text fill="#000000" font-family="sans-serif" font-size="14" lengthAdjust="spacing" textLength="76.8496" x="5" y="1497.0176">Application</text><ellipse cx="46.4248" cy="1508.4707" fill="#E2E2F0" rx="8" ry="8" style="stroke:#181818;stroke-width:0.5;"/><path d="M46.4248,1516.4707 L46.4248,1543.4707 M33.4248,1524.4707 L59.4248,1524.4707 M46.4248,1543.4707 L33.4248,1558.4707 M46.4248,1543.4707 L59.4248,1558.4707" fill="none" style="stroke:#181818;stroke-width:0.5;"/></g><g class="participant participant-head" data-entity-uid="part2" data-qualified-name="Kernel" id="part2-head"><rect fill="#E2E2F0" height="63.4648" rx="2.5" ry="2.5" style="stroke:#181818;stroke-width:0.5;" width="108.8896" x="109.2461" y="54.5117"/><text fill="#000000" font-family="sans-serif" font-size="14" lengthAdjust="spacing" textLength="43.2031" x="142.0894" y="75.0469">Kernel</text><text fill="#000000" font-family="sans-serif" font-size="14" lengthAdjust="spacing" textLength="94.8896" x="116.2461" y="91.5352">(unix socket /</text><text fill="#000000" font-family="sans-serif" font-size="14" lengthAdjust="spacing" textLength="30.8301" x="148.2759" y="108.0234">TCP)</text></g><g class="participant participant-tail" data-entity-uid="part2" data-qualified-name="Kernel" id="part2-tail"><rect fill="#E2E2F0" height="63.4648" rx="2.5" ry="2.5" style="stroke:#181818;stroke-width:0.5;" width="108.8896" x="109.2461" y="1483.4824"/><text fill="#000000" font-family="sans-serif" font-size="14" lengthAdjust="spacing" textLength="43.2031" x="142.0894" y="1504.0176">Kernel</text><text fill="#000000" font-family="sans-serif" font-size="14" lengthAdjust="spacing" textLength="94.8896" x="116.2461" y="1520.5059">(unix socket /</text><text fill="#000000" font-family="sans-serif" font-size="14" lengthAdjust="spacing" textLength="30.8301" x="148.2759" y="1536.9941">TCP)</text></g><g class="participant participant-head" data-entity-uid="part3" data-qualified-name="Input" id="part3-head"><rect fill="#E2E2F0" height="46.9766" rx="2.5" ry="2.5" style="stroke:#181818;stroke-width:0.5;" width="139.9453" x="228.1357" y="71"/><text fill="#000000" font-family="sans-serif" font-size="14" lengthAdjust="spacing" textLength="125.9453" x="235.1357" y="91.5352">rsyslog imuxsock/</text><text fill="#000000" font-family="sans-serif" font-size="14" lengthAdjust="spacing" textLength="47.1475" x="274.5347" y="108.0234">imptcp</text></g><g class="participant participant-tail" data-entity-uid="part3" data-qualified-name="Input" id="part3-tail"><rect fill="#E2E2F0" height="46.9766" rx="2.5" ry="2.5" style="stroke:#181818;stroke-width:0.5;" width="139.9453" x="228.1357" y="1483.4824"/><text fill="#000000" font-family="sans-serif" font-size="14" lengthAdjust="spacing" textLength="125.9453" x="235.1357" y="1504.0176">rsyslog imuxsock/</text><text fill="#000000" font-family="sans-serif" font-size="14" lengthAdjust="spacing" textLength="47.1475" x="274.5347" y="1520.5059">imptcp</text></g><g class="participant participant-head" data-entity-uid="part4" data-qualified-name="Parser" id="part4-head"><rect fill="#E2E2F0" height="46.9766" rx="2.5" ry="2.5" style="stroke:#181818;stroke-width:0.5;" width="146.2207" x="378.0811" y="71"/><text fill="#000000" font-family="sans-serif" font-size="14" lengthAdjust="spacing" textLength="96.0586" x="403.1621" y="91.5352">rsyslog parser</text><text fill="#000000" font-family="sans-serif" font-size="14" lengthAdjust="spacing" textLength="132.2207" x="385.0811" y="108.0234">(rfc3164 / rfc5424)</text></g><g class="participant participant-tail" data-entity-uid="part4" data-qualified-name="Parser" id="part4-tail"><rect fill="#E2E2F0" height="46.9766" rx="2.5" ry="2.5" style="stroke:#181818;stroke-width:0.5;" width="146.2207" x="378.0811" y="1483.4824"/><text fill="#000000" font-family="sans-serif" font-size="14" lengthAdjust="spacing" textLength="96.0586" x="403.1621" y="1504.0176">rsyslog parser</text><text fill="#000000" font-family="sans-serif" font-size="14" lengthAdjust="spacing" textLength="132.2207" x="385.0811" y="1520.5059">(rfc3164 / rfc5424)</text></g><g class="participant participant-head" data-entity-uid="part5" data-qualified-name="Engine" id="part5-head"><rect fill="#E2E2F0" height="30.4883" rx="2.5" ry="2.5" style="stroke:#181818;stroke-width:0.5;" width="88.9287" x="621.9033" y="87.4883"/><text fill="#000000" font-family="sans-serif" font-size="14" lengthAdjust="spacing" textLength="74.9287" x="628.9033" y="108.0234">RuleEngine</text></g><g class="participant participant-tail" data-entity-uid="part5" data-qualified-name="Engine" id="part5-tail"><rect fill="#E2E2F0" height="30.4883" rx="2.5" ry="2.5" style="stroke:#181818;stroke-width:0.5;" width="88.9287" x="621.9033" y="1483.4824"/><text fill="#000000" font-family="sans-serif" font-size="14" lengthAdjust="spacing" textLength="74.9287" x="628.9033" y="1504.0176">RuleEngine</text></g><g class="participant participant-head" data-entity-uid="part6" data-qualified-name="MMHCS" id="part6-head"><rect fill="#E2E2F0" height="46.9766" rx="2.5" ry="2.5" style="stroke:#181818;stroke-width:0.5;" width="135.7617" x="822.1567" y="71"/><text fill="#000000" font-family="sans-serif" font-size="14" lengthAdjust="spacing" textLength="121.7617" x="829.1567" y="91.5352">mmhashchainsigs</text><text fill="#000000" font-family="sans-serif" font-size="14" lengthAdjust="spacing" textLength="69.918" x="855.0786" y="108.0234">(doAction)</text></g><g class="participant participant-tail" data-entity-uid="part6" data-qualified-name="MMHCS" id="part6-tail"><rect fill="#E2E2F0" height="46.9766" rx="2.5" ry="2.5" style="stroke:#181818;stroke-width:0.5;" width="135.7617" x="822.1567" y="1483.4824"/><text fill="#000000" font-family="sans-serif" font-size="14" lengthAdjust="spacing" textLength="121.7617" x="829.1567" y="1504.0176">mmhashchainsigs</text><text fill="#000000" font-family="sans-serif" font-size="14" lengthAdjust="spacing" textLength="69.918" x="855.0786" y="1520.5059">(doAction)</text></g><g class="participant participant-head" data-entity-uid="part7" data-qualified-name="Chain" id="part7-head"><rect fill="#E2E2F0" height="30.4883" rx="2.5" ry="2.5" style="stroke:#181818;stroke-width:0.5;" width="82.5713" x="1171.8306" y="87.4883"/><text fill="#000000" font-family="sans-serif" font-size="14" lengthAdjust="spacing" textLength="68.5713" x="1178.8306" y="108.0234">hashchain</text></g><g class="participant participant-tail" data-entity-uid="part7" data-qualified-name="Chain" id="part7-tail"><rect fill="#E2E2F0" height="30.4883" rx="2.5" ry="2.5" style="stroke:#181818;stroke-width:0.5;" width="82.5713" x="1171.8306" y="1483.4824"/><text fill="#000000" font-family="sans-serif" font-size="14" lengthAdjust="spacing" textLength="68.5713" x="1178.8306" y="1504.0176">hashchain</text></g><g class="participant participant-head" data-entity-uid="part8" data-qualified-name="Signer" id="part8-head"><rect fill="#E2E2F0" height="30.4883" rx="2.5" ry="2.5" style="stroke:#181818;stroke-width:0.5;" width="56.1299" x="1377.0332" y="87.4883"/><text fill="#000000" font-family="sans-serif" font-size="14" lengthAdjust="spacing" textLength="42.1299" x="1384.0332" y="108.0234">signer</text></g><g class="participant participant-tail" data-entity-uid="part8" data-qualified-name="Signer" id="part8-tail"><rect fill="#E2E2F0" height="30.4883" rx="2.5" ry="2.5" style="stroke:#181818;stroke-width:0.5;" width="56.1299" x="1377.0332" y="1483.4824"/><text fill="#000000" font-family="sans-serif" font-size="14" lengthAdjust="spacing" textLength="42.1299" x="1384.0332" y="1504.0176">signer</text></g><g class="participant participant-head" data-entity-uid="part9" data-qualified-name="Omfile" id="part9-head"><rect fill="#E2E2F0" height="46.9766" rx="2.5" ry="2.5" style="stroke:#181818;stroke-width:0.5;" width="105.2051" x="1443.1631" y="71"/><text fill="#000000" font-family="sans-serif" font-size="14" lengthAdjust="spacing" textLength="42.7109" x="1474.4102" y="91.5352">omfile</text><text fill="#000000" font-family="sans-serif" font-size="14" lengthAdjust="spacing" textLength="91.2051" x="1450.1631" y="108.0234">(sd-preserve)</text></g><g class="participant participant-tail" data-entity-uid="part9" data-qualified-name="Omfile" id="part9-tail"><rect fill="#E2E2F0" height="46.9766" rx="2.5" ry="2.5" style="stroke:#181818;stroke-width:0.5;" width="105.2051" x="1443.1631" y="1483.4824"/><text fill="#000000" font-family="sans-serif" font-size="14" lengthAdjust="spacing" textLength="42.7109" x="1474.4102" y="1504.0176">omfile</text><text fill="#000000" font-family="sans-serif" font-size="14" lengthAdjust="spacing" textLength="91.2051" x="1450.1631" y="1520.5059">(sd-preserve)</text></g><g class="participant participant-head" data-entity-uid="part10" data-qualified-name="File" id="part10-head"><text fill="#000000" font-family="sans-serif" font-size="14" lengthAdjust="spacing" textLength="46.8467" x="1723.8574" y="116.0234">log file</text><path d="M1732.2808,66.4883 C1732.2808,56.4883 1750.2808,56.4883 1750.2808,56.4883 C1750.2808,56.4883 1768.2808,56.4883 1768.2808,66.4883 L1768.2808,92.4883 C1768.2808,102.4883 1750.2808,102.4883 1750.2808,102.4883 C1750.2808,102.4883 1732.2808,102.4883 1732.2808,92.4883 L1732.2808,66.4883" fill="#E2E2F0" style="stroke:#181818;stroke-width:0.5;"/><path d="M1732.2808,66.4883 C1732.2808,76.4883 1750.2808,76.4883 1750.2808,76.4883 C1750.2808,76.4883 1768.2808,76.4883 1768.2808,66.4883" fill="none" style="stroke:#181818;stroke-width:0.5;"/></g><g class="participant participant-tail" data-entity-uid="part10" data-qualified-name="File" id="part10-tail"><text fill="#000000" font-family="sans-serif" font-size="14" lengthAdjust="spacing" textLength="46.8467" x="1723.8574" y="1497.0176">log file</text><path d="M1732.2808,1509.9707 C1732.2808,1499.9707 1750.2808,1499.9707 1750.2808,1499.9707 C1750.2808,1499.9707 1768.2808,1499.9707 1768.2808,1509.9707 L1768.2808,1535.9707 C1768.2808,1545.9707 1750.2808,1545.9707 1750.2808,1545.9707 C1750.2808,1545.9707 1732.2808,1545.9707 1732.2808,1535.9707 L1732.2808,1509.9707" fill="#E2E2F0" style="stroke:#181818;stroke-width:0.5;"/><path d="M1732.2808,1509.9707 C1732.2808,1519.9707 1750.2808,1519.9707 1750.2808,1519.9707 C1750.2808,1519.9707 1768.2808,1519.9707 1768.2808,1509.9707" fill="none" style="stroke:#181818;stroke-width:0.5;"/></g><g><title>mmhashchainsigs</title><rect fill="#FFFFFF" height="979.1582" style="stroke:#181818;stroke-width:1;" width="10" x="885.0376" y="340.4609"/></g><g class="message" data-entity-1="part1" data-entity-2="part2" id="msg1"><polygon fill="#181818" points="151.6909,146.2871,161.6909,150.2871,151.6909,154.2871,155.6909,150.2871" style="stroke:#181818;stroke-width:1;"/><line style="stroke:#181818;stroke-width:1;" x1="46.4248" x2="157.6909" y1="150.2871" y2="150.2871"/><text fill="#000000" font-family="sans-serif" font-size="13" lengthAdjust="spacing" textLength="93.2661" x="58.4248" y="145.5449">syslog payload</text></g><g class="message" data-entity-1="part2" data-entity-2="part3" id="msg2"><polygon fill="#181818" points="286.1084,175.5977,296.1084,179.5977,286.1084,183.5977,290.1084,179.5977" style="stroke:#181818;stroke-width:1;"/><line style="stroke:#181818;stroke-width:1;" x1="163.6909" x2="292.1084" y1="179.5977" y2="179.5977"/><text fill="#000000" font-family="sans-serif" font-size="13" lengthAdjust="spacing" textLength="51.4224" x="205.1885" y="174.8555">sendto()</text></g><g class="message" data-entity-1="part3" data-entity-2="part4" id="msg3"><polygon fill="#181818" points="439.1914,204.9082,449.1914,208.9082,439.1914,212.9082,443.1914,208.9082" style="stroke:#181818;stroke-width:1;"/><line style="stroke:#181818;stroke-width:1;" x1="298.1084" x2="445.1914" y1="208.9082" y2="208.9082"/><text fill="#000000" font-family="sans-serif" font-size="13" lengthAdjust="spacing" textLength="64.8667" x="342.2166" y="204.166">raw octets</text></g><g class="message" data-entity-1="part4" data-entity-2="part4" id="msg4"><line style="stroke:#181818;stroke-width:1;" x1="451.1914" x2="493.1914" y1="268.8398" y2="268.8398"/><line style="stroke:#181818;stroke-width:1;" x1="493.1914" x2="493.1914" y1="268.8398" y2="281.8398"/><line style="stroke:#181818;stroke-width:1;" x1="452.1914" x2="493.1914" y1="281.8398" y2="281.8398"/><polygon fill="#181818" points="462.1914,277.8398,452.1914,281.8398,462.1914,285.8398,458.1914,281.8398" style="stroke:#181818;stroke-width:1;"/><text fill="#000000" font-family="sans-serif" font-size="13" lengthAdjust="spacing" textLength="142.8921" x="487.3335" y="233.4766">populate smsg_t fields</text><text fill="#000000" font-family="sans-serif" font-size="13" lengthAdjust="spacing" textLength="146.1738" x="485.6926" y="248.7871">(PRI, TS, HOST, APP, ...,</text><text fill="#000000" font-family="sans-serif" font-size="13" lengthAdjust="spacing" textLength="201.1763" x="458.1914" y="264.0977">%STRUCTURED-DATA%, %msg%)</text></g><g class="message" data-entity-1="part4" data-entity-2="part5" id="msg5"><polygon fill="#181818" points="654.3677,307.1504,664.3677,311.1504,654.3677,315.1504,658.3677,311.1504" style="stroke:#181818;stroke-width:1;"/><line style="stroke:#181818;stroke-width:1;" x1="451.1914" x2="660.3677" y1="311.1504" y2="311.1504"/><text fill="#000000" font-family="sans-serif" font-size="13" lengthAdjust="spacing" textLength="44.8589" x="536.3501" y="306.4082">smsg_t</text></g><g class="message" data-entity-1="part5" data-entity-2="part6" id="msg6"><polygon fill="#181818" points="873.0376,336.4609,883.0376,340.4609,873.0376,344.4609,877.0376,340.4609" style="stroke:#181818;stroke-width:1;"/><line style="stroke:#181818;stroke-width:1;" x1="666.3677" x2="879.0376" y1="340.4609" y2="340.4609"/><text fill="#000000" font-family="sans-serif" font-size="13" lengthAdjust="spacing" textLength="91.8252" x="729.79" y="335.7188">action(smsg_t)</text></g><g class="message" data-entity-1="part6" data-entity-2="part6" id="msg7"><line style="stroke:#181818;stroke-width:1;" x1="895.0376" x2="937.0376" y1="369.7715" y2="369.7715"/><line style="stroke:#181818;stroke-width:1;" x1="937.0376" x2="937.0376" y1="369.7715" y2="382.7715"/><line style="stroke:#181818;stroke-width:1;" x1="896.0376" x2="937.0376" y1="382.7715" y2="382.7715"/><polygon fill="#181818" points="906.0376,378.7715,896.0376,382.7715,906.0376,386.7715,902.0376,382.7715" style="stroke:#181818;stroke-width:1;"/><text fill="#000000" font-family="sans-serif" font-size="13" lengthAdjust="spacing" textLength="135.8018" x="902.0376" y="365.0293">msg = getMSG(pMsg)</text></g><g class="message" data-entity-1="part6" data-entity-2="part6" id="msg8"><line style="stroke:#181818;stroke-width:1;" x1="895.0376" x2="937.0376" y1="442.7031" y2="442.7031"/><line style="stroke:#181818;stroke-width:1;" x1="937.0376" x2="937.0376" y1="442.7031" y2="455.7031"/><line style="stroke:#181818;stroke-width:1;" x1="896.0376" x2="937.0376" y1="455.7031" y2="455.7031"/><polygon fill="#181818" points="906.0376,451.7031,896.0376,455.7031,906.0376,459.7031,902.0376,455.7031" style="stroke:#181818;stroke-width:1;"/><text fill="#000000" font-family="sans-serif" font-size="13" lengthAdjust="spacing" textLength="128.4829" x="902.0376" y="407.3398">capture pri, ts, host,</text><text fill="#000000" font-family="sans-serif" font-size="13" lengthAdjust="spacing" textLength="118.8916" x="906.8333" y="422.6504">app, procid, msgid</text><text fill="#000000" font-family="sans-serif" font-size="13" lengthAdjust="spacing" textLength="106.9072" x="912.8254" y="437.9609">from pMsg fields</text></g><g class="message" data-entity-1="part6" data-entity-2="part6" id="msg9"><line style="stroke:#181818;stroke-width:1;" x1="895.0376" x2="937.0376" y1="500.3242" y2="500.3242"/><line style="stroke:#181818;stroke-width:1;" x1="937.0376" x2="937.0376" y1="500.3242" y2="513.3242"/><line style="stroke:#181818;stroke-width:1;" x1="896.0376" x2="937.0376" y1="513.3242" y2="513.3242"/><polygon fill="#181818" points="906.0376,509.3242,896.0376,513.3242,906.0376,517.3242,902.0376,513.3242" style="stroke:#181818;stroke-width:1;"/><text fill="#000000" font-family="sans-serif" font-size="13" lengthAdjust="spacing" textLength="185.1611" x="915.6152" y="480.2715">hdr_sd = hcs_format_sd_hdr(</text><text fill="#000000" font-family="sans-serif" font-size="13" lengthAdjust="spacing" textLength="204.0898" x="910.2642" y="495.582">pri, ts, host, app, procid, msgid)</text></g><g class="message" data-entity-1="part6" data-entity-2="part6" id="msg10"><line style="stroke:#181818;stroke-width:1;" x1="895.0376" x2="937.0376" y1="542.6348" y2="542.6348"/><line style="stroke:#181818;stroke-width:1;" x1="937.0376" x2="937.0376" y1="542.6348" y2="555.6348"/><line style="stroke:#181818;stroke-width:1;" x1="896.0376" x2="937.0376" y1="555.6348" y2="555.6348"/><polygon fill="#181818" points="906.0376,551.6348,896.0376,555.6348,906.0376,559.6348,902.0376,555.6348" style="stroke:#181818;stroke-width:1;"/><text fill="#000000" font-family="sans-serif" font-size="13" lengthAdjust="spacing" textLength="244.4546" x="902.0376" y="537.8926">cur_sd = MsgGetStructuredData(pMsg)</text></g><g class="message" data-entity-1="part6" data-entity-2="part6" id="msg11"><line style="stroke:#181818;stroke-width:1;" x1="895.0376" x2="937.0376" y1="630.877" y2="630.877"/><line style="stroke:#181818;stroke-width:1;" x1="937.0376" x2="937.0376" y1="630.877" y2="643.877"/><line style="stroke:#181818;stroke-width:1;" x1="896.0376" x2="937.0376" y1="643.877" y2="643.877"/><polygon fill="#181818" points="906.0376,639.877,896.0376,643.877,906.0376,647.877,902.0376,643.877" style="stroke:#181818;stroke-width:1;"/><text fill="#000000" font-family="sans-serif" font-size="13" lengthAdjust="spacing" textLength="174.2495" x="902.8215" y="580.2031">stripped = hcs_strip_all_sd(</text><text fill="#000000" font-family="sans-serif" font-size="13" lengthAdjust="spacing" textLength="122.5796" x="932.7698" y="595.5137">cur_sd, HCS_SD_ID)</text><text fill="#000000" font-family="sans-serif" font-size="13" lengthAdjust="spacing" textLength="174.2495" x="902.8215" y="610.8242">stripped = hcs_strip_all_sd(</text><text fill="#000000" font-family="sans-serif" font-size="13" lengthAdjust="spacing" textLength="167.5908" x="910.2642" y="626.1348">stripped, HCS_SD_HDR_ID)</text></g><path d="M900,656.877 L900,727.877 L1140,727.877 L1140,666.877 L1130,656.877 L900,656.877" fill="#FEFFDD" style="stroke:#181818;stroke-width:0.5;"/><path d="M1130,656.877 L1130,666.877 L1140,666.877 L1130,656.877" fill="#FEFFDD" style="stroke:#181818;stroke-width:0.5;"/><text fill="#000000" font-family="sans-serif" font-size="13" lengthAdjust="spacing" textLength="163.9854" x="906" y="674.4453">Drops any client-supplied</text><text fill="#000000" font-family="sans-serif" font-size="13" lengthAdjust="spacing" textLength="207.6509" x="906" y="689.7559">[mmhashchainsigs@32473 ...] or</text><text fill="#000000" font-family="sans-serif" font-size="13" lengthAdjust="spacing" textLength="219.3242" x="906" y="705.0664">[mmhashchainsigs-hdr@32473 ...]</text><text fill="#000000" font-family="sans-serif" font-size="13" lengthAdjust="spacing" textLength="160.8369" x="906" y="720.377">element (collision policy).</text><g class="message" data-entity-1="part6" data-entity-2="part6" id="msg12"><line style="stroke:#181818;stroke-width:1;" x1="895.0376" x2="937.0376" y1="754.4297" y2="754.4297"/><line style="stroke:#181818;stroke-width:1;" x1="937.0376" x2="937.0376" y1="754.4297" y2="767.4297"/><line style="stroke:#181818;stroke-width:1;" x1="896.0376" x2="937.0376" y1="767.4297" y2="767.4297"/><polygon fill="#181818" points="906.0376,763.4297,896.0376,767.4297,906.0376,771.4297,902.0376,767.4297" style="stroke:#181818;stroke-width:1;"/><text fill="#000000" font-family="sans-serif" font-size="13" lengthAdjust="spacing" textLength="201.373" x="902.0376" y="749.6875">cleaned_sd = hdr_sd || stripped</text></g><g class="message" data-entity-1="part6" data-entity-2="part6" id="msg13"><line style="stroke:#181818;stroke-width:1;" x1="895.0376" x2="937.0376" y1="796.7402" y2="796.7402"/><line style="stroke:#181818;stroke-width:1;" x1="937.0376" x2="937.0376" y1="796.7402" y2="809.7402"/><line style="stroke:#181818;stroke-width:1;" x1="896.0376" x2="937.0376" y1="809.7402" y2="809.7402"/><polygon fill="#181818" points="906.0376,805.7402,896.0376,809.7402,906.0376,813.7402,902.0376,809.7402" style="stroke:#181818;stroke-width:1;"/><text fill="#000000" font-family="sans-serif" font-size="13" lengthAdjust="spacing" textLength="182.2666" x="902.0376" y="791.998">payload = cleaned_sd || msg</text></g><g class="message" data-entity-1="part6" data-entity-2="part7" id="msg14"><polygon fill="#181818" points="1201.1162,835.0508,1211.1162,839.0508,1201.1162,843.0508,1205.1162,839.0508" style="stroke:#181818;stroke-width:1;"/><line style="stroke:#181818;stroke-width:1;" x1="895.0376" x2="1207.1162" y1="839.0508" y2="839.0508"/><text fill="#000000" font-family="sans-serif" font-size="13" lengthAdjust="spacing" textLength="171.6025" x="968.2756" y="834.3086">hashchain_update(payload)</text></g><g class="message" data-entity-1="part7" data-entity-2="part7" id="msg15"><line style="stroke:#181818;stroke-width:1;" x1="1213.1162" x2="1255.1162" y1="883.6719" y2="883.6719"/><line style="stroke:#181818;stroke-width:1;" x1="1255.1162" x2="1255.1162" y1="883.6719" y2="896.6719"/><line style="stroke:#181818;stroke-width:1;" x1="1214.1162" x2="1255.1162" y1="896.6719" y2="896.6719"/><polygon fill="#181818" points="1224.1162,892.6719,1214.1162,896.6719,1224.1162,900.6719,1220.1162,896.6719" style="stroke:#181818;stroke-width:1;"/><text fill="#000000" font-family="sans-serif" font-size="13" lengthAdjust="spacing" textLength="106.5708" x="1255.8218" y="863.6191">H(n) = SHA-256(</text><text fill="#000000" font-family="sans-serif" font-size="13" lengthAdjust="spacing" textLength="169.7554" x="1228.3428" y="878.9297">H(n-1) || seq(n) || payload)</text></g><g class="message" data-entity-1="part7" data-entity-2="part6" id="msg16"><polygon fill="#181818" points="906.0376,921.9824,896.0376,925.9824,906.0376,929.9824,902.0376,925.9824" style="stroke:#181818;stroke-width:1;"/><line style="stroke:#181818;stroke-width:1;stroke-dasharray:2,2;" x1="900.0376" x2="1212.1162" y1="925.9824" y2="925.9824"/><text fill="#000000" font-family="sans-serif" font-size="13" lengthAdjust="spacing" textLength="97.2271" x="1005.4634" y="921.2402">new chain hash</text></g><path d="M812.1567,940.9824 L874.2954,940.9824 L874.2954,948.293 L864.2954,958.293 L812.1567,958.293 L812.1567,940.9824" fill="#EEEEEE" style="stroke:#000000;stroke-width:1.5;"/><rect fill="none" height="308.0156" style="stroke:#000000;stroke-width:1.5;" width="631.0063" x="812.1567" y="940.9824"/><text fill="#000000" font-family="sans-serif" font-size="13" font-weight="bold" lengthAdjust="spacing" textLength="17.1387" x="827.1567" y="954.5508">alt</text><text fill="#000000" font-family="sans-serif" font-size="11" font-weight="bold" lengthAdjust="spacing" textLength="167.3848" x="889.2954" y="953.6172">[msg_count &gt;= sign_interval]</text><g class="message" data-entity-1="part6" data-entity-2="part8" id="msg17"><polygon fill="#181818" points="1393.0981,975.6035,1403.0981,979.6035,1393.0981,983.6035,1397.0981,979.6035" style="stroke:#181818;stroke-width:1;"/><line style="stroke:#181818;stroke-width:1;" x1="895.0376" x2="1399.0981" y1="979.6035" y2="979.6035"/><text fill="#000000" font-family="sans-serif" font-size="13" lengthAdjust="spacing" textLength="150.8076" x="1074.6641" y="974.8613">signer_sign(chain_hash)</text></g><g class="message" data-entity-1="part8" data-entity-2="part6" id="msg18"><polygon fill="#181818" points="906.0376,1004.9141,896.0376,1008.9141,906.0376,1012.9141,902.0376,1008.9141" style="stroke:#181818;stroke-width:1;"/><line style="stroke:#181818;stroke-width:1;stroke-dasharray:2,2;" x1="900.0376" x2="1404.0981" y1="1008.9141" y2="1008.9141"/><text fill="#000000" font-family="sans-serif" font-size="13" lengthAdjust="spacing" textLength="119.6724" x="1090.2317" y="1004.1719">Ed25519 signature</text></g><g class="message" data-entity-1="part6" data-entity-2="part6" id="msg19"><line style="stroke:#181818;stroke-width:1;" x1="895.0376" x2="937.0376" y1="1053.5352" y2="1053.5352"/><line style="stroke:#181818;stroke-width:1;" x1="937.0376" x2="937.0376" y1="1053.5352" y2="1066.5352"/><line style="stroke:#181818;stroke-width:1;" x1="896.0376" x2="937.0376" y1="1066.5352" y2="1066.5352"/><polygon fill="#181818" points="906.0376,1062.5352,896.0376,1066.5352,906.0376,1070.5352,902.0376,1066.5352" style="stroke:#181818;stroke-width:1;"/><text fill="#000000" font-family="sans-serif" font-size="13" lengthAdjust="spacing" textLength="142.0352" x="902.0376" y="1033.4824">format SIG SD element</text><text fill="#000000" font-family="sans-serif" font-size="13" lengthAdjust="spacing" textLength="130.3809" x="907.8647" y="1048.793">(t="S", q, h, qf, qt, s)</text></g><g class="message" data-entity-1="part6" data-entity-2="part7" id="msg20"><polygon fill="#181818" points="1201.1162,1091.8457,1211.1162,1095.8457,1201.1162,1099.8457,1205.1162,1095.8457" style="stroke:#181818;stroke-width:1;"/><line style="stroke:#181818;stroke-width:1;" x1="895.0376" x2="1207.1162" y1="1095.8457" y2="1095.8457"/><text fill="#000000" font-family="sans-serif" font-size="13" lengthAdjust="spacing" textLength="152.0645" x="978.0447" y="1091.1035">hashchain_reset_count()</text></g><line style="stroke:#000000;stroke-width:1;stroke-dasharray:2,2;" x1="812.1567" x2="1443.1631" y1="1104.8457" y2="1104.8457"/><text fill="#000000" font-family="sans-serif" font-size="11" font-weight="bold" lengthAdjust="spacing" textLength="85.3145" x="817.1567" y="1115.4805">[first message]</text><g class="message" data-entity-1="part6" data-entity-2="part6" id="msg21"><line style="stroke:#181818;stroke-width:1;" x1="895.0376" x2="937.0376" y1="1155.4219" y2="1155.4219"/><line style="stroke:#181818;stroke-width:1;" x1="937.0376" x2="937.0376" y1="1155.4219" y2="1168.4219"/><line style="stroke:#181818;stroke-width:1;" x1="896.0376" x2="937.0376" y1="1168.4219" y2="1168.4219"/><polygon fill="#181818" points="906.0376,1164.4219,896.0376,1168.4219,906.0376,1172.4219,902.0376,1168.4219" style="stroke:#181818;stroke-width:1;"/><text fill="#000000" font-family="sans-serif" font-size="13" lengthAdjust="spacing" textLength="147.2085" x="902.0376" y="1135.3691">format INIT SD element</text><text fill="#000000" font-family="sans-serif" font-size="13" lengthAdjust="spacing" textLength="82.8179" x="934.2329" y="1150.6797">(t="I", q, h, f)</text></g><line style="stroke:#000000;stroke-width:1;stroke-dasharray:2,2;" x1="812.1567" x2="1443.1631" y1="1177.4219" y2="1177.4219"/><text fill="#000000" font-family="sans-serif" font-size="11" font-weight="bold" lengthAdjust="spacing" textLength="109.4951" x="817.1567" y="1188.0566">[ordinary message]</text><g class="message" data-entity-1="part6" data-entity-2="part6" id="msg22"><line style="stroke:#181818;stroke-width:1;" x1="895.0376" x2="937.0376" y1="1227.998" y2="1227.998"/><line style="stroke:#181818;stroke-width:1;" x1="937.0376" x2="937.0376" y1="1227.998" y2="1240.998"/><line style="stroke:#181818;stroke-width:1;" x1="896.0376" x2="937.0376" y1="1240.998" y2="1240.998"/><polygon fill="#181818" points="906.0376,1236.998,896.0376,1240.998,906.0376,1244.998,902.0376,1240.998" style="stroke:#181818;stroke-width:1;"/><text fill="#000000" font-family="sans-serif" font-size="13" lengthAdjust="spacing" textLength="149.4873" x="902.0376" y="1207.9453">format MSG SD element</text><text fill="#000000" font-family="sans-serif" font-size="13" lengthAdjust="spacing" textLength="32.9316" x="960.3154" y="1223.2559">(q, h)</text></g><g class="message" data-entity-1="part6" data-entity-2="part6" id="msg23"><line style="stroke:#181818;stroke-width:1;" x1="895.0376" x2="937.0376" y1="1277.3086" y2="1277.3086"/><line style="stroke:#181818;stroke-width:1;" x1="937.0376" x2="937.0376" y1="1277.3086" y2="1290.3086"/><line style="stroke:#181818;stroke-width:1;" x1="896.0376" x2="937.0376" y1="1290.3086" y2="1290.3086"/><polygon fill="#181818" points="906.0376,1286.3086,896.0376,1290.3086,906.0376,1294.3086,902.0376,1290.3086" style="stroke:#181818;stroke-width:1;"/><text fill="#000000" font-family="sans-serif" font-size="13" lengthAdjust="spacing" textLength="289.0786" x="902.0376" y="1272.5664">new_sd = mmhashchainsigs_SD || cleaned_sd</text></g><g class="message" data-entity-1="part6" data-entity-2="part5" id="msg24"><polygon fill="#181818" points="677.3677,1315.6191,667.3677,1319.6191,677.3677,1323.6191,673.3677,1319.6191" style="stroke:#181818;stroke-width:1;"/><line style="stroke:#181818;stroke-width:1;" x1="671.3677" x2="889.0376" y1="1319.6191" y2="1319.6191"/><text fill="#000000" font-family="sans-serif" font-size="13" lengthAdjust="spacing" textLength="194.6699" x="680.8677" y="1314.877">MsgSetStructuredData(new_sd)</text></g><g class="message" data-entity-1="part5" data-entity-2="part9" id="msg25"><polygon fill="#181818" points="1483.7656,1344.9297,1493.7656,1348.9297,1483.7656,1352.9297,1487.7656,1348.9297" style="stroke:#181818;stroke-width:1;"/><line style="stroke:#181818;stroke-width:1;" x1="666.3677" x2="1489.7656" y1="1348.9297" y2="1348.9297"/><text fill="#000000" font-family="sans-serif" font-size="13" lengthAdjust="spacing" textLength="103.5112" x="1029.311" y="1344.1875">enriched smsg_t</text></g><g class="message" data-entity-1="part9" data-entity-2="part9" id="msg26"><line style="stroke:#181818;stroke-width:1;" x1="1495.7656" x2="1537.7656" y1="1393.5508" y2="1393.5508"/><line style="stroke:#181818;stroke-width:1;" x1="1537.7656" x2="1537.7656" y1="1393.5508" y2="1406.5508"/><line style="stroke:#181818;stroke-width:1;" x1="1496.7656" x2="1537.7656" y1="1406.5508" y2="1406.5508"/><polygon fill="#181818" points="1506.7656,1402.5508,1496.7656,1406.5508,1506.7656,1410.5508,1502.7656,1406.5508" style="stroke:#181818;stroke-width:1;"/><text fill="#000000" font-family="sans-serif" font-size="13" lengthAdjust="spacing" textLength="100.9531" x="1558.9487" y="1373.498">render template</text><text fill="#000000" font-family="sans-serif" font-size="13" lengthAdjust="spacing" textLength="213.3193" x="1502.7656" y="1388.8086">"%STRUCTURED-DATA%%msg%\n"</text></g><g class="message" data-entity-1="part9" data-entity-2="part10" id="msg27"><polygon fill="#181818" points="1738.2808,1462.4824,1748.2808,1466.4824,1738.2808,1470.4824,1742.2808,1466.4824" style="stroke:#181818;stroke-width:1;"/><line style="stroke:#181818;stroke-width:1;" x1="1495.7656" x2="1744.2808" y1="1466.4824" y2="1466.4824"/><text fill="#000000" font-family="sans-serif" font-size="13" lengthAdjust="spacing" textLength="230.5151" x="1507.7656" y="1431.1191">write("[mmhashchainsigs@32473 ...]</text><text fill="#000000" font-family="sans-serif" font-size="13" lengthAdjust="spacing" textLength="219.3242" x="1513.3611" y="1446.4297">[mmhashchainsigs-hdr@32473 ...]</text><text fill="#000000" font-family="sans-serif" font-size="13" lengthAdjust="spacing" textLength="172.4341" x="1536.8062" y="1461.7402">[cleaned_client_SD]MSG\n")</text></g><?plantuml-src ZLNTRjis5BxNKnmO2201SehyjTY053FiD346huRbNis5m56qJ9GY6P9AQg0NUuWzuPwaXwJio7RMxY8EnVDztpawVtBS2GPDio5sGpU4Iyjh2__-_G_SoMher9392cRCMb8pc1j5ySXb3QcII8ltMPBOBrngOaW3TaCgzUmXQo8iwrlOOyiaPPtQIF1Q0cNICPCaX3fbOAIru9GuhYGGwnyJv3fEkIRImU1tPYGJAvcsady5g-WNvk3DIYx7yspW6H5mI39sQuMgWJVjLqz1F6-qepemfbAtxdK2Nbfcq9jPqwkBjzVm1l1qStrv7PtDW_sGksW5kvCrbon0ul4GSfHirA_KYFftZhApsSEuEAJi2G4mzgT300f9PeAr2CT3ishMN33qPAkXDWoZVcBHsSTWIIhYo5_4CXZu5_TNmVh1sn8i0mpVTxc5Ns6VdgrGf4gwUqI4N7e0DerJQPR42xJ4LA79a6TGr35da-wkRzLAju8u1hQnTUam42Ogdw7vOfh3iiZXuMEnp64qd-TmVdwUh-HPiLny6Yy_BUucmybeEJhBuGp9PrbFFrR11nPaa-uPBI7NQ20X_scqPw4T-PCF91OZmdfunC4jrCpDYljKpsoTdM8eqQur3BJXEJYRmqPPXn4JhNEyL9HNkHVYrKgkZMh0wtIlVAgsgKnfAtIweRPSAzCGXyybNgSh2KTEuDJ7Qm6sdIJwlMUkSAQbFk9gWjtmNszbdU5QirqauR4aGg1I22IAOg76HLbCokaaMycVSNRsFUjXil3CH2eiWU7rne5QTxK0c1YbBH2v1Ieuxe-XRVtUO1NQ_ZoQhj-kBg_VNVbU-GpAl08OOWPx84GmmHfKXPGg8RZrkqWhN4lRx3pnsz07zKeo1IEILLsDOh6-VTk_sYcX6nz4zwZ8m6ebB-WmwxxykvZBLkEmihIZPqb4zA0FgSnGjNWO3IzlteO4uzNm8Wlni4TlnjEnG2yqoPuXE0jkSHg4ys6LLBMOb_UtuDTDoVtcVY82KmQm3pYk7zyeuL3wVscCt8jb0Ts1-ZxlgikRcujV0etuBZoKtS5YvqCnlOTYiYiLBWXtEoW6EJpY0E3l6lzm2cnsA7AQJByBNNmlN5SCFrWuWCQwtQVjXq5C_vWkJwAOxgDOTuBAL5mIi_rVchXF3YMzLkRxBZbj8QnJxBUZdiOHyXL-wQiNwduLudGN9pCV1REaOaSBiBSounS35PWqd6vmghkjsXdw48DnOvqTQxHVwoivE5dNOLclqDBZVuZiPyEnqGS_6EcL_Cau8s2NXRWhC3MVCSVUOPPy1m00?></g></svg>