<?plantuml 1.2026.2?><svg xmlns="http://www.w3.org/2000/svg" xmlns:xlink="http://www.w3.org/1999/xlink" contentStyleType="text/css" data-diagram-type="DESCRIPTION" height="1214px" preserveAspectRatio="none" style="width:1202px;height:1214px;background:#FFFFFF;" version="1.1" viewBox="0 0 1202 1214" width="1202px" zoomAndPan="magnify"><title>mmhashchainsigs &#8212; RELP Deployment Pipeline</title><defs/><g><g class="title" data-source-line="1"><text fill="#000000" font-family="sans-serif" font-size="14" font-weight="bold" lengthAdjust="spacing" textLength="341.1885" x="423.8722" y="23.5352">mmhashchainsigs &#8212; RELP Deployment Pipeline</text></g><!--cluster Origin--><g class="cluster" data-qualified-name="Origin" data-source-line="9" id="ent0002"><polygon fill="#FDFDFD" points="46,53.4883,56,43.4883,813,43.4883,813,574.6883,803,584.6883,46,584.6883,46,53.4883" style="stroke:#555555;stroke-width:1;"/><line style="stroke:#555555;stroke-width:1;" x1="803" x2="813" y1="53.4883" y2="43.4883"/><line style="stroke:#555555;stroke-width:1;" x1="46" x2="803" y1="53.4883" y2="53.4883"/><line style="stroke:#555555;stroke-width:1;" x1="803" x2="803" y1="53.4883" y2="584.6883"/><text fill="#000000" font-family="sans-serif" font-size="14" font-weight="bold" lengthAdjust="spacing" textLength="81.7646" x="384.6177" y="70.0234">Origin host</text></g><!--cluster RsyslogA--><g class="cluster" data-qualified-name="Origin.RsyslogA" data-source-line="11" id="ent0004"><polygon fill="#FDFDFD" points="70,202.9783,80,192.9783,336,192.9783,336,550.6883,326,560.6883,70,560.6883,70,202.9783" style="stroke:#555555;stroke-width:1;"/><line style="stroke:#555555;stroke-width:1;" x1="326" x2="336" y1="202.9783" y2="192.9783"/><line style="stroke:#555555;stroke-width:1;" x1="70" x2="326" y1="202.9783" y2="202.9783"/><line style="stroke:#555555;stroke-width:1;" x1="326" x2="326" y1="202.9783" y2="560.6883"/><text fill="#000000" font-family="sans-serif" font-size="14" font-weight="bold" lengthAdjust="spacing" textLength="53.0879" x="172.4561" y="219.5134">rsyslog</text></g><!--cluster Receiver--><g class="cluster" data-qualified-name="Receiver" data-source-line="22" id="ent0011"><polygon fill="#FDFDFD" points="16,743.1783,26,733.1783,357,733.1783,357,1182.6083,347,1192.6083,16,1192.6083,16,743.1783" style="stroke:#555555;stroke-width:1;"/><line style="stroke:#555555;stroke-width:1;" x1="347" x2="357" y1="743.1783" y2="733.1783"/><line style="stroke:#555555;stroke-width:1;" x1="16" x2="347" y1="743.1783" y2="743.1783"/><line style="stroke:#555555;stroke-width:1;" x1="347" x2="347" y1="743.1783" y2="1192.6083"/><text fill="#000000" font-family="sans-serif" font-size="14" font-weight="bold" lengthAdjust="spacing" textLength="97.2822" x="133.8589" y="759.7134">Receiver host</text></g><!--cluster RsyslogB--><g class="cluster" data-qualified-name="Receiver.RsyslogB" data-source-line="23" id="ent0012"><polygon fill="#FDFDFD" points="48,799.1783,58,789.1783,212,789.1783,212,1034.3983,202,1044.3983,48,1044.3983,48,799.1783" style="stroke:#555555;stroke-width:1;"/><line style="stroke:#555555;stroke-width:1;" x1="202" x2="212" y1="799.1783" y2="789.1783"/><line style="stroke:#555555;stroke-width:1;" x1="48" x2="202" y1="799.1783" y2="799.1783"/><line style="stroke:#555555;stroke-width:1;" x1="202" x2="202" y1="799.1783" y2="1044.3983"/><text fill="#000000" font-family="sans-serif" font-size="14" font-weight="bold" lengthAdjust="spacing" textLength="53.0879" x="99.4561" y="815.7134">rsyslog</text></g><!--cluster Audit--><g class="cluster" data-qualified-name="Audit" data-source-line="30" id="ent0016"><polygon fill="#FDFDFD" points="647,940.6683,657,930.6683,940,930.6683,940,1187.6083,930,1197.6083,647,1197.6083,647,940.6683" style="stroke:#555555;stroke-width:1;"/><line style="stroke:#555555;stroke-width:1;" x1="930" x2="940" y1="940.6683" y2="930.6683"/><line style="stroke:#555555;stroke-width:1;" x1="647" x2="930" y1="940.6683" y2="940.6683"/><line style="stroke:#555555;stroke-width:1;" x1="930" x2="930" y1="940.6683" y2="1197.6083"/><text fill="#000000" font-family="sans-serif" font-size="14" font-weight="bold" lengthAdjust="spacing" textLength="93.8027" x="742.5986" y="957.2034">Audit station</text></g><!--entity App--><g class="entity" data-qualified-name="Origin.App" data-source-line="10" id="ent0003"><rect fill="#F1F1F1" height="46.4883" rx="2.5" ry="2.5" style="stroke:#181818;stroke-width:0.5;" width="131.1641" x="173.42" y="83.4883"/><rect fill="#F1F1F1" height="10" style="stroke:#181818;stroke-width:0.5;" width="15" x="284.5841" y="88.4883"/><rect fill="#F1F1F1" height="2" style="stroke:#181818;stroke-width:0.5;" width="4" x="282.5841" y="90.4883"/><rect fill="#F1F1F1" height="2" style="stroke:#181818;stroke-width:0.5;" width="4" x="282.5841" y="94.4883"/><text fill="#000000" font-family="sans-serif" font-size="14" lengthAdjust="spacing" textLength="91.1641" x="188.42" y="117.0234">application(s)</text></g><!--entity PrivKey--><g class="entity" data-qualified-name="Origin.PrivKey" data-source-line="16" id="ent0008"><path d="M351.71,232.2383 L351.71,280.2148 A2.5,2.5 0 0 0 354.21,282.7148 L579.7842,282.7148 A2.5,2.5 0 0 0 582.2842,280.2148 L582.2842,239.7383 L572.2842,229.7383 L354.21,229.7383 A2.5,2.5 0 0 0 351.71,232.2383" fill="#F1F1F1" style="stroke:#181818;stroke-width:0.5;"/><path d="M572.2842,229.7383 L572.2842,237.2383 A2.5,2.5 0 0 0 574.7842,239.7383 L582.2842,239.7383" fill="#F1F1F1" style="stroke:#181818;stroke-width:0.5;"/><text fill="#000000" font-family="sans-serif" font-size="14" lengthAdjust="spacing" textLength="210.5742" x="361.71" y="253.2734">mmhashchainsigs-private.pem</text><text fill="#000000" font-family="sans-serif" font-size="14" lengthAdjust="spacing" textLength="87.2266" x="361.71" y="269.7617">(mode 0600)</text></g><!--entity StateFile--><g class="entity" data-qualified-name="Origin.StateFile" data-source-line="17" id="ent0009"><path d="M617.33,232.2383 L617.33,280.2148 A2.5,2.5 0 0 0 619.83,282.7148 L794.162,282.7148 A2.5,2.5 0 0 0 796.662,280.2148 L796.662,239.7383 L786.662,229.7383 L619.83,229.7383 A2.5,2.5 0 0 0 617.33,232.2383" fill="#F1F1F1" style="stroke:#181818;stroke-width:0.5;"/><path d="M786.662,229.7383 L786.662,237.2383 A2.5,2.5 0 0 0 789.162,239.7383 L796.662,239.7383" fill="#F1F1F1" style="stroke:#181818;stroke-width:0.5;"/><text fill="#000000" font-family="sans-serif" font-size="14" lengthAdjust="spacing" textLength="159.332" x="627.33" y="253.2734">mmhashchainsigs.state</text><text fill="#000000" font-family="sans-serif" font-size="14" lengthAdjust="spacing" textLength="81.874" x="627.33" y="269.7617">(statefiledir)</text></g><!--entity InA--><g class="entity" data-qualified-name="Origin.RsyslogA.InA" data-source-line="12" id="ent0005"><rect fill="#F1F1F1" height="46.4883" rx="2.5" ry="2.5" style="stroke:#181818;stroke-width:0.5;" width="105.4814" x="186.26" y="232.9783"/><rect fill="#F1F1F1" height="10" style="stroke:#181818;stroke-width:0.5;" width="15" x="271.7414" y="237.9783"/><rect fill="#F1F1F1" height="2" style="stroke:#181818;stroke-width:0.5;" width="4" x="269.7414" y="239.9783"/><rect fill="#F1F1F1" height="2" style="stroke:#181818;stroke-width:0.5;" width="4" x="269.7414" y="243.9783"/><text fill="#000000" font-family="sans-serif" font-size="14" lengthAdjust="spacing" textLength="65.4814" x="201.26" y="266.5134">imuxsock</text></g><!--entity MMA--><g class="entity" data-qualified-name="Origin.RsyslogA.MMA" data-source-line="13" id="ent0006"><rect fill="#F1F1F1" height="46.4883" rx="2.5" ry="2.5" style="stroke:#181818;stroke-width:0.5;" width="161.7617" x="158.12" y="374.7083"/><rect fill="#F1F1F1" height="10" style="stroke:#181818;stroke-width:0.5;" width="15" x="299.8817" y="379.7083"/><rect fill="#F1F1F1" height="2" style="stroke:#181818;stroke-width:0.5;" width="4" x="297.8817" y="381.7083"/><rect fill="#F1F1F1" height="2" style="stroke:#181818;stroke-width:0.5;" width="4" x="297.8817" y="385.7083"/><text fill="#000000" font-family="sans-serif" font-size="14" lengthAdjust="spacing" textLength="121.7617" x="173.12" y="408.2434">mmhashchainsigs</text></g><!--entity RelpOut--><g class="entity" data-qualified-name="Origin.RsyslogA.RelpOut" data-source-line="14" id="ent0007"><rect fill="#F1F1F1" height="46.4883" rx="2.5" ry="2.5" style="stroke:#181818;stroke-width:0.5;" width="88.0566" x="85.97" y="498.1983"/><rect fill="#F1F1F1" height="10" style="stroke:#181818;stroke-width:0.5;" width="15" x="154.0266" y="503.1983"/><rect fill="#F1F1F1" height="2" style="stroke:#181818;stroke-width:0.5;" width="4" x="152.0266" y="505.1983"/><rect fill="#F1F1F1" height="2" style="stroke:#181818;stroke-width:0.5;" width="4" x="152.0266" y="509.1983"/><text fill="#000000" font-family="sans-serif" font-size="14" lengthAdjust="spacing" textLength="48.0566" x="100.97" y="531.7334">omrelp</text></g><!--entity LogFile--><g class="entity" data-qualified-name="Receiver.LogFile" data-source-line="27" id="ent0015"><path d="M101.08,1134.6183 L101.08,1166.1066 A2.5,2.5 0 0 0 103.58,1168.6066 L260.412,1168.6066 A2.5,2.5 0 0 0 262.912,1166.1066 L262.912,1142.1183 L252.912,1132.1183 L103.58,1132.1183 A2.5,2.5 0 0 0 101.08,1134.6183" fill="#F1F1F1" style="stroke:#181818;stroke-width:0.5;"/><path d="M252.912,1132.1183 L252.912,1139.6183 A2.5,2.5 0 0 0 255.412,1142.1183 L262.912,1142.1183" fill="#F1F1F1" style="stroke:#181818;stroke-width:0.5;"/><text fill="#000000" font-family="sans-serif" font-size="14" lengthAdjust="spacing" textLength="141.832" x="111.08" y="1155.6534">/var/log/&lt;host&gt;.log</text></g><!--entity RelpIn--><g class="entity" data-qualified-name="Receiver.RsyslogB.RelpIn" data-source-line="24" id="ent0013"><rect fill="#F1F1F1" height="46.4883" rx="2.5" ry="2.5" style="stroke:#181818;stroke-width:0.5;" width="83.5039" x="88.25" y="829.1783"/><rect fill="#F1F1F1" height="10" style="stroke:#181818;stroke-width:0.5;" width="15" x="151.7539" y="834.1783"/><rect fill="#F1F1F1" height="2" style="stroke:#181818;stroke-width:0.5;" width="4" x="149.7539" y="836.1783"/><rect fill="#F1F1F1" height="2" style="stroke:#181818;stroke-width:0.5;" width="4" x="149.7539" y="840.1783"/><text fill="#000000" font-family="sans-serif" font-size="14" lengthAdjust="spacing" textLength="43.5039" x="103.25" y="862.7134">imrelp</text></g><!--entity OmfileB--><g class="entity" data-qualified-name="Receiver.RsyslogB.OmfileB" data-source-line="25" id="ent0014"><rect fill="#F1F1F1" height="62.9766" rx="2.5" ry="2.5" style="stroke:#181818;stroke-width:0.5;" width="131.2051" x="64.4" y="965.4183"/><rect fill="#F1F1F1" height="10" style="stroke:#181818;stroke-width:0.5;" width="15" x="175.6051" y="970.4183"/><rect fill="#F1F1F1" height="2" style="stroke:#181818;stroke-width:0.5;" width="4" x="173.6051" y="972.4183"/><rect fill="#F1F1F1" height="2" style="stroke:#181818;stroke-width:0.5;" width="4" x="173.6051" y="976.4183"/><text fill="#000000" font-family="sans-serif" font-size="14" lengthAdjust="spacing" textLength="42.7109" x="79.4" y="998.9534">omfile</text><text fill="#000000" font-family="sans-serif" font-size="14" lengthAdjust="spacing" textLength="91.2051" x="79.4" y="1015.4417">(sd-preserve)</text></g><!--entity Verifier--><g class="entity" data-qualified-name="Audit.Verifier" data-source-line="31" id="ent0017"><rect fill="#F1F1F1" height="46.4883" rx="2.5" ry="2.5" style="stroke:#181818;stroke-width:0.5;" width="207.1455" x="675.43" y="1127.1183"/><rect fill="#F1F1F1" height="10" style="stroke:#181818;stroke-width:0.5;" width="15" x="862.5755" y="1132.1183"/><rect fill="#F1F1F1" height="2" style="stroke:#181818;stroke-width:0.5;" width="4" x="860.5755" y="1134.1183"/><rect fill="#F1F1F1" height="2" style="stroke:#181818;stroke-width:0.5;" width="4" x="860.5755" y="1138.1183"/><text fill="#000000" font-family="sans-serif" font-size="14" lengthAdjust="spacing" textLength="167.1455" x="690.43" y="1160.6534">mmhashchainsigs-verify</text></g><!--entity PubKey--><g class="entity" data-qualified-name="Audit.PubKey" data-source-line="32" id="ent0018"><path d="M671.23,981.1683 L671.23,1012.6566 A2.5,2.5 0 0 0 673.73,1015.1566 L894.2798,1015.1566 A2.5,2.5 0 0 0 896.7798,1012.6566 L896.7798,988.6683 L886.7798,978.6683 L673.73,978.6683 A2.5,2.5 0 0 0 671.23,981.1683" fill="#F1F1F1" style="stroke:#181818;stroke-width:0.5;"/><path d="M886.7798,978.6683 L886.7798,986.1683 A2.5,2.5 0 0 0 889.2798,988.6683 L896.7798,988.6683" fill="#F1F1F1" style="stroke:#181818;stroke-width:0.5;"/><text fill="#000000" font-family="sans-serif" font-size="14" lengthAdjust="spacing" textLength="205.5498" x="681.23" y="1002.2034">mmhashchainsigs-public.pem</text></g><!--entity RELP--><g class="entity" data-qualified-name="RELP" data-source-line="20" id="ent0010"><path d="M87.3538,640.2944 C91.5842,631.5246 98.8634,632.7044 103.4616,639.9239 C107.3444,633.1892 111.6097,632.2096 117.2502,637.9869 C120.8133,630.479 127.8428,630.5857 131.7276,637.6677 C134.9647,631.8789 141.3246,631.9303 144.5282,637.7048 C149.6996,630.101 156.2664,631.5521 160.247,638.9523 C165.4796,631.9442 170.1579,633.9191 173.9519,640.4125 C184.2418,642.1095 186.6406,649.214 179.558,656.8397 C184.2639,662.6854 182.4464,669.1289 175.0098,671.1025 C171.8438,678.5968 166.5392,680.5962 160.5286,674.0328 C156.2658,681.565 149.6294,681.4711 145.3392,674.0605 C142.7734,680.6899 136.3898,682.5439 131.7183,676.2861 C126.9536,683.6627 119.9808,681.8134 116.1891,675.2056 C111.9791,682.2542 105.2724,680.3803 102.4151,673.8351 C97.5414,678.9575 91.0703,677.9971 88.3057,671.3144 C80.6444,668.004 79.7364,662.5396 86.1573,657.1007 C78.5252,652.1238 78.0031,644.0623 87.3538,640.2944" fill="#F1F1F1" style="stroke:#181818;stroke-width:0.5;"/><text fill="#000000" font-family="sans-serif" font-size="14" lengthAdjust="spacing" textLength="71.7021" x="94.15" y="660.2234">TLS / RELP</text></g><g class="entity" data-qualified-name="GMN30" data-source-line="49" id="ent0031"><path d="M381.19,968.9483 L381.19,1024.8799 L622.8028,1024.8799 L622.8028,978.9483 L612.8028,968.9483 L381.19,968.9483" fill="#FEFFDD" style="stroke:#181818;stroke-width:0.5;"/><path d="M612.8028,968.9483 L612.8028,978.9483 L622.8028,978.9483 L612.8028,968.9483" fill="#FEFFDD" style="stroke:#181818;stroke-width:1;"/><text fill="#000000" font-family="sans-serif" font-size="13" lengthAdjust="spacing" textLength="220.6128" x="387.19" y="986.5166">Receiver stores messages verbatim</text><text fill="#000000" font-family="sans-serif" font-size="13" lengthAdjust="spacing" textLength="218.8037" x="387.19" y="1001.8272">through the sd-preserve template;</text><text fill="#000000" font-family="sans-serif" font-size="13" lengthAdjust="spacing" textLength="154.6099" x="387.19" y="1017.1377">it holds no signing keys.</text></g><g class="entity" data-qualified-name="GMN33" data-source-line="55" id="ent0034"><path d="M964.07,1122.3983 L964.07,1178.3299 L1195.9328,1178.3299 L1195.9328,1132.3983 L1185.9328,1122.3983 L964.07,1122.3983" fill="#FEFFDD" style="stroke:#181818;stroke-width:0.5;"/><path d="M1185.9328,1122.3983 L1185.9328,1132.3983 L1195.9328,1132.3983 L1185.9328,1122.3983" fill="#FEFFDD" style="stroke:#181818;stroke-width:1;"/><text fill="#000000" font-family="sans-serif" font-size="13" lengthAdjust="spacing" textLength="210.8628" x="970.07" y="1139.9666">Verifier needs only the public key</text><text fill="#000000" font-family="sans-serif" font-size="13" lengthAdjust="spacing" textLength="195.2095" x="970.07" y="1155.2772">and the log file. It can run on a</text><text fill="#000000" font-family="sans-serif" font-size="13" lengthAdjust="spacing" textLength="207.105" x="970.07" y="1170.5877">different host -- or later in time.</text></g><!--link App to InA--><g class="link" data-entity-1="ent0003" data-entity-2="ent0005" data-link-type="dependency" data-source-line="35" id="lnk19"><path d="M239,130.4583 C239,158.2583 239,199.0183 239,226.7183" fill="none" id="App-to-InA" style="stroke:#181818;stroke-width:1;"/><polygon fill="#181818" points="239,232.7183,243,223.7183,239,227.7183,235,223.7183,239,232.7183" style="stroke:#181818;stroke-width:1;"/><text fill="#000000" font-family="sans-serif" font-size="13" lengthAdjust="spacing" textLength="48.3501" x="240" y="173.5466">syslog()</text></g><!--link InA to MMA--><g class="link" data-entity-1="ent0005" data-entity-2="ent0006" data-link-type="dependency" data-source-line="36" id="lnk20"><path d="M220.15,279.7583 C213.35,289.3083 206.49,300.9283 203,312.7083 C198.96,326.3483 198.77,331.1283 203,344.7083 C206.31,355.3383 209.043,360.8837 215.453,369.5537" fill="none" id="InA-to-MMA" style="stroke:#181818;stroke-width:1;"/><polygon fill="#181818" points="219.02,374.3783,216.8859,364.7634,216.0475,370.3578,210.4531,369.5194,219.02,374.3783" style="stroke:#181818;stroke-width:1;"/><text fill="#000000" font-family="sans-serif" font-size="13" lengthAdjust="spacing" textLength="44.8589" x="204" y="333.7766">smsg_t</text></g><!--link MMA to RelpOut--><g class="link" data-entity-1="ent0006" data-entity-2="ent0007" data-link-type="dependency" data-source-line="37" id="lnk21"><path d="M218.75,421.5183 C199.18,443.3483 173.6868,471.7522 154.1468,493.5322" fill="none" id="MMA-to-RelpOut" style="stroke:#181818;stroke-width:1;"/><polygon fill="#181818" points="150.14,497.9983,159.1275,493.9703,153.479,494.2765,153.1728,488.628,150.14,497.9983" style="stroke:#181818;stroke-width:1;"/><text fill="#000000" font-family="sans-serif" font-size="13" lengthAdjust="spacing" textLength="197.3359" x="192.03" y="464.7666">smsg_t + mmhashchainsigs SD</text></g><!--link PrivKey to MMA--><g class="link" data-entity-1="ent0008" data-entity-2="ent0006" data-link-type="dependency" data-source-line="38" id="lnk22"><path d="M424.65,283.1783 C381.89,309.3783 321.6463,346.3141 280.9663,371.2341" fill="none" id="PrivKey-to-MMA" style="stroke:#181818;stroke-width:1;stroke-dasharray:7,7;"/><polygon fill="#181818" points="275.85,374.3683,285.614,373.0779,280.1136,371.7565,281.435,366.2561,275.85,374.3683" style="stroke:#181818;stroke-width:1;"/><text fill="#000000" font-family="sans-serif" font-size="13" lengthAdjust="spacing" textLength="76.2227" x="374.42" y="333.7766">load at start</text></g><!--link StateFile to MMA--><g class="link" data-entity-1="ent0009" data-entity-2="ent0006" data-link-type="dependency" data-source-line="39" id="lnk23"><path d="M639.74,283.1283 C590.21,301.6683 520.98,326.4783 459,344.7083 C413.53,358.0883 367.8552,369.1681 326.1152,378.5081" fill="none" id="StateFile-to-MMA" style="stroke:#181818;stroke-width:1;stroke-dasharray:7,7;"/><polygon fill="#181818" points="320.26,379.8183,329.9163,381.7565,325.1393,378.7265,328.1693,373.9495,320.26,379.8183" style="stroke:#181818;stroke-width:1;"/><text fill="#000000" font-family="sans-serif" font-size="13" lengthAdjust="spacing" textLength="113.9341" x="556.27" y="326.2766">save on shutdown</text><text fill="#000000" font-family="sans-serif" font-size="13" lengthAdjust="spacing" textLength="96.4844" x="564.9949" y="341.5872">load on startup</text></g><!--link RelpOut to RELP--><g class="link" data-entity-1="ent0007" data-entity-2="ent0010" data-link-type="dependency" data-source-line="40" id="lnk24"><path d="M130,545.0483 C130,569.2783 130,601.5083 130,625.6283" fill="none" id="RelpOut-to-RELP" style="stroke:#181818;stroke-width:1;"/><polygon fill="#181818" points="130,631.6283,134,622.6283,130,626.6283,126,622.6283,130,631.6283" style="stroke:#181818;stroke-width:1;"/></g><!--link RELP to RelpIn--><g class="link" data-entity-1="ent0010" data-entity-2="ent0013" data-link-type="dependency" data-source-line="41" id="lnk25"><path d="M130,678.3583 C130,715.9683 130,785.3283 130,822.9583" fill="none" id="RELP-to-RelpIn" style="stroke:#181818;stroke-width:1;"/><polygon fill="#181818" points="130,828.9583,134,819.9583,130,823.9583,126,819.9583,130,828.9583" style="stroke:#181818;stroke-width:1;"/></g><!--link RelpIn to OmfileB--><g class="link" data-entity-1="ent0013" data-entity-2="ent0014" data-link-type="dependency" data-source-line="42" id="lnk26"><path d="M130,875.9983 C130,900.0083 130,932.1483 130,958.9583" fill="none" id="RelpIn-to-OmfileB" style="stroke:#181818;stroke-width:1;"/><polygon fill="#181818" points="130,964.9583,134,955.9583,130,959.9583,126,955.9583,130,964.9583" style="stroke:#181818;stroke-width:1;"/></g><!--link OmfileB to LogFile--><g class="link" data-entity-1="ent0014" data-entity-2="ent0015" data-link-type="dependency" data-source-line="43" id="lnk27"><path d="M140.52,1028.5583 C151.21,1059.6783 165.4207,1101.0838 174.0807,1126.2938" fill="none" id="OmfileB-to-LogFile" style="stroke:#181818;stroke-width:1;"/><polygon fill="#181818" points="176.03,1131.9683,176.8891,1122.157,174.4056,1127.2395,169.3231,1124.756,176.03,1131.9683" style="stroke:#181818;stroke-width:1;"/><text fill="#000000" font-family="sans-serif" font-size="13" lengthAdjust="spacing" textLength="73.9756" x="250.4544" y="1073.9666">append line</text><text fill="#000000" font-family="sans-serif" font-size="13" lengthAdjust="spacing" textLength="248.5044" x="163.19" y="1089.2772">[mmhashchainsigs SD][client SD]MSG\n</text></g><!--link LogFile to Verifier--><g class="link" data-entity-1="ent0015" data-entity-2="ent0017" data-link-type="dependency" data-source-line="45" id="lnk28"><path d="M263.14,1150.3683 C369.94,1150.3683 551.82,1150.3683 668.96,1150.3683" fill="none" id="LogFile-to-Verifier" style="stroke:#181818;stroke-width:1;"/><polygon fill="#181818" points="674.96,1150.3683,665.96,1146.3683,669.96,1150.3683,665.96,1154.3683,674.96,1150.3683" style="stroke:#181818;stroke-width:1;"/><text fill="#000000" font-family="sans-serif" font-size="13" lengthAdjust="spacing" textLength="132.4375" x="403.17" y="1143.9366">copy / fetch / mount</text></g><!--link PubKey to Verifier--><g class="link" data-entity-1="ent0018" data-entity-2="ent0017" data-link-type="dependency" data-source-line="46" id="lnk29"><path d="M783.42,1015.5783 C782.51,1043.1283 780.9475,1090.2815 779.9475,1120.6415" fill="none" id="PubKey-to-Verifier" style="stroke:#181818;stroke-width:1;stroke-dasharray:7,7;"/><polygon fill="#181818" points="779.75,1126.6383,784.0441,1117.7748,779.9146,1121.641,776.0485,1117.5115,779.75,1126.6383" style="stroke:#181818;stroke-width:1;"/></g><!--link Receiver to GMN30--><g class="link" data-entity-1="ent0011" data-entity-2="ent0031" data-link-type="association" data-source-line="49" id="lnk32"><path d="M357.0803,860.9491 C357.1811,861.043 357.2828,861.1377 357.3853,861.2331 C357.5904,861.424 357.7987,861.618 358.0103,861.8151 C359.7032,863.3914 361.6047,865.1619 363.6887,867.1025 C372.025,874.8648 383.2825,885.3477 395.795,896.9995 C420.82,920.3033 450.865,948.2833 472.6,968.5283" fill="none" id="Receiver-GMN30" style="stroke:#181818;stroke-width:1;stroke-dasharray:7,7;"/></g><!--link Audit to GMN33--><g class="link" data-entity-1="ent0016" data-entity-2="ent0034" data-link-type="association" data-source-line="55" id="lnk35"><path d="M940.3003,1006.4019 C940.5034,1006.6097 940.7097,1006.8208 940.9193,1007.0353 C942.5957,1008.7511 944.4784,1010.6779 946.5413,1012.7891 C954.7925,1021.2336 965.925,1032.6264 978.26,1045.2495 C1002.93,1070.4958 1032.41,1100.6633 1053.27,1122.0083" fill="none" id="Audit-GMN33" style="stroke:#181818;stroke-width:1;stroke-dasharray:7,7;"/></g><?plantuml-src VLHHRzCm47xthpYLbqsewLxW0T2aZW6QsBHfHRoi2Bd99R4Qsv7j5A9f4Z-2NyWluSvEIcctfL9jd-_EttttsK651a7hMlewhwKoNbKU_lpw3RSVBc_W7Dl6zXfDW1lLOgCC2k7NohJIIGs-beNzeKm5fMmyxkmOMo3S2w3lJERhojdE5EzjOnsyA0l-fJth2dI3_LNyn8CGCNfoxLIb3DJMXmb83yCwPSsjRgrXO1FPjetAPL3M7FdZw3fls-YL4ZdV-yPMSUSspUT3chrKIdS_lStNqVN2p1_psIChkbvTFUfgjSEcJUVIvBeBqUiX_fUAcD_FDcsTsiY0MOjwQOuqupzvVNAIohgXpS_OFnsU-K3151X7TYcKIx4Bjdma2nESDxOhOFBbSW6psEc4aIOZ-RUOezgW-qV_rdB_FBLdJr7x7nSNvd7263FZBuW9zEWscE1Vnvsp0_vc6-bcTEhi7GCzpKOmbxOQYqr8vrsX0Z0lf9CaacWvaDD-HwXaLVOnuYjF5Rhd-jUjI8pSljInRiKD8nGaIPXEJrbLy0OILKV7WfTi9WMnMVlgUn2yOECWckq6l3ougejpCQW2icnCqrXPW8pLkY2sdT_ny7A3O0tTu2xG5JPB4sFOmZ5TAyQp8muMHdmGHbJKlZH4ozYSOOoseG5q5jrFD0Nmux4qTuS5VBlB6yNKq_HgyMcvD4ACqPHe99qovRRjIR0bXhocKTEZ4aIYEDQsxG_rF22iR0XMWostsgN6RMNiWoM5WKRlPKKJigr879fyGatlLLNJYB2ZH0YesuR8V4i-99tQDeMdYm1KYE5NS8szpmGNo-SVe8Y2ez1jHGQH4bZJzF6ef1tEGawIih2HP1Abbi55W5mQS9tXFadoALHPecFgMFn4Ez0xoW0Tq4D9jU0Echy0?></g></svg>