<?plantuml 1.2026.2?><svg xmlns="http://www.w3.org/2000/svg" xmlns:xlink="http://www.w3.org/1999/xlink" contentStyleType="text/css" data-diagram-type="DESCRIPTION" height="1199px" preserveAspectRatio="none" style="width:1098px;height:1199px;background:#FFFFFF;" version="1.1" viewBox="0 0 1098 1199" width="1098px" zoomAndPan="magnify"><title>mmhashchainsigs &#8212; RELP Deployment Pipeline</title><defs/><g><g class="title" data-source-line="1"><text fill="#000000" font-family="sans-serif" font-size="14" font-weight="bold" lengthAdjust="spacing" textLength="341.1885" x="371.8722" y="23.5352">mmhashchainsigs &#8212; RELP Deployment Pipeline</text></g><!--cluster Origin--><g class="cluster" data-qualified-name="Origin" data-source-line="9" id="ent0002"><polygon fill="#FDFDFD" points="46,53.4883,56,43.4883,446,43.4883,446,559.6883,436,569.6883,46,569.6883,46,53.4883" style="stroke:#555555;stroke-width:1;"/><line style="stroke:#555555;stroke-width:1;" x1="436" x2="446" y1="53.4883" y2="43.4883"/><line style="stroke:#555555;stroke-width:1;" x1="46" x2="436" y1="53.4883" y2="53.4883"/><line style="stroke:#555555;stroke-width:1;" x1="436" x2="436" y1="53.4883" y2="569.6883"/><text fill="#000000" font-family="sans-serif" font-size="14" font-weight="bold" lengthAdjust="spacing" textLength="81.7646" x="201.1177" y="70.0234">Origin host</text></g><!--cluster RsyslogA--><g class="cluster" data-qualified-name="Origin.RsyslogA" data-source-line="11" id="ent0004"><polygon fill="#FDFDFD" points="70,202.9783,80,192.9783,264,192.9783,264,535.6883,254,545.6883,70,545.6883,70,202.9783" style="stroke:#555555;stroke-width:1;"/><line style="stroke:#555555;stroke-width:1;" x1="254" x2="264" y1="202.9783" y2="192.9783"/><line style="stroke:#555555;stroke-width:1;" x1="70" x2="254" y1="202.9783" y2="202.9783"/><line style="stroke:#555555;stroke-width:1;" x1="254" x2="254" y1="202.9783" y2="545.6883"/><text fill="#000000" font-family="sans-serif" font-size="14" font-weight="bold" lengthAdjust="spacing" textLength="53.0879" x="136.4561" y="219.5134">rsyslog</text></g><!--cluster Receiver--><g class="cluster" data-qualified-name="Receiver" data-source-line="21" id="ent0010"><polygon fill="#FDFDFD" points="16,728.1783,26,718.1783,282,718.1783,282,1167.6083,272,1177.6083,16,1177.6083,16,728.1783" style="stroke:#555555;stroke-width:1;"/><line style="stroke:#555555;stroke-width:1;" x1="272" x2="282" y1="728.1783" y2="718.1783"/><line style="stroke:#555555;stroke-width:1;" x1="16" x2="272" y1="728.1783" y2="728.1783"/><line style="stroke:#555555;stroke-width:1;" x1="272" x2="272" y1="728.1783" y2="1177.6083"/><text fill="#000000" font-family="sans-serif" font-size="14" font-weight="bold" lengthAdjust="spacing" textLength="97.2822" x="96.3589" y="744.7134">Receiver host</text></g><!--cluster RsyslogB--><g class="cluster" data-qualified-name="Receiver.RsyslogB" data-source-line="22" id="ent0011"><polygon fill="#FDFDFD" points="48,784.1783,58,774.1783,212,774.1783,212,1019.3983,202,1029.3983,48,1029.3983,48,784.1783" style="stroke:#555555;stroke-width:1;"/><line style="stroke:#555555;stroke-width:1;" x1="202" x2="212" y1="784.1783" y2="774.1783"/><line style="stroke:#555555;stroke-width:1;" x1="48" x2="202" y1="784.1783" y2="784.1783"/><line style="stroke:#555555;stroke-width:1;" x1="202" x2="202" y1="784.1783" y2="1029.3983"/><text fill="#000000" font-family="sans-serif" font-size="14" font-weight="bold" lengthAdjust="spacing" textLength="53.0879" x="99.4561" y="800.7134">rsyslog</text></g><!--cluster Audit--><g class="cluster" data-qualified-name="Audit" data-source-line="29" id="ent0015"><polygon fill="#FDFDFD" points="572,925.6683,582,915.6683,836,915.6683,836,1172.6083,826,1182.6083,572,1182.6083,572,925.6683" style="stroke:#555555;stroke-width:1;"/><line style="stroke:#555555;stroke-width:1;" x1="826" x2="836" y1="925.6683" y2="915.6683"/><line style="stroke:#555555;stroke-width:1;" x1="572" x2="826" y1="925.6683" y2="925.6683"/><line style="stroke:#555555;stroke-width:1;" x1="826" x2="826" y1="925.6683" y2="1182.6083"/><text fill="#000000" font-family="sans-serif" font-size="14" font-weight="bold" lengthAdjust="spacing" textLength="93.8027" x="653.0986" y="942.2034">Audit station</text></g><!--entity App--><g class="entity" data-qualified-name="Origin.App" data-source-line="10" id="ent0003"><rect fill="#F1F1F1" height="46.4883" rx="2.5" ry="2.5" style="stroke:#181818;stroke-width:0.5;" width="131.1641" x="101.42" y="83.4883"/><rect fill="#F1F1F1" height="10" style="stroke:#181818;stroke-width:0.5;" width="15" x="212.5841" y="88.4883"/><rect fill="#F1F1F1" height="2" style="stroke:#181818;stroke-width:0.5;" width="4" x="210.5841" y="90.4883"/><rect fill="#F1F1F1" height="2" style="stroke:#181818;stroke-width:0.5;" width="4" x="210.5841" y="94.4883"/><text fill="#000000" font-family="sans-serif" font-size="14" lengthAdjust="spacing" textLength="91.1641" x="116.42" y="117.0234">application(s)</text></g><!--entity PrivKey--><g class="entity" data-qualified-name="Origin.PrivKey" data-source-line="16" id="ent0008"><path d="M279.95,232.2383 L279.95,280.2148 A2.5,2.5 0 0 0 282.45,282.7148 L427.5516,282.7148 A2.5,2.5 0 0 0 430.0516,280.2148 L430.0516,239.7383 L420.0516,229.7383 L282.45,229.7383 A2.5,2.5 0 0 0 279.95,232.2383" fill="#F1F1F1" style="stroke:#181818;stroke-width:0.5;"/><path d="M420.0516,229.7383 L420.0516,237.2383 A2.5,2.5 0 0 0 422.5516,239.7383 L430.0516,239.7383" fill="#F1F1F1" style="stroke:#181818;stroke-width:0.5;"/><text fill="#000000" font-family="sans-serif" font-size="14" lengthAdjust="spacing" textLength="130.1016" x="289.95" y="253.2734">siglog-private.pem</text><text fill="#000000" font-family="sans-serif" font-size="14" lengthAdjust="spacing" textLength="87.2266" x="289.95" y="269.7617">(mode 0600)</text></g><!--entity InA--><g class="entity" data-qualified-name="Origin.RsyslogA.InA" data-source-line="12" id="ent0005"><rect fill="#F1F1F1" height="46.4883" rx="2.5" ry="2.5" style="stroke:#181818;stroke-width:0.5;" width="105.4814" x="114.26" y="232.9783"/><rect fill="#F1F1F1" height="10" style="stroke:#181818;stroke-width:0.5;" width="15" x="199.7414" y="237.9783"/><rect fill="#F1F1F1" height="2" style="stroke:#181818;stroke-width:0.5;" width="4" x="197.7414" y="239.9783"/><rect fill="#F1F1F1" height="2" style="stroke:#181818;stroke-width:0.5;" width="4" x="197.7414" y="243.9783"/><text fill="#000000" font-family="sans-serif" font-size="14" lengthAdjust="spacing" textLength="65.4814" x="129.26" y="266.5134">imuxsock</text></g><!--entity MMA--><g class="entity" data-qualified-name="Origin.RsyslogA.MMA" data-source-line="13" id="ent0006"><rect fill="#F1F1F1" height="46.4883" rx="2.5" ry="2.5" style="stroke:#181818;stroke-width:0.5;" width="161.7617" x="86.12" y="359.7083"/><rect fill="#F1F1F1" height="10" style="stroke:#181818;stroke-width:0.5;" width="15" x="227.8817" y="364.7083"/><rect fill="#F1F1F1" height="2" style="stroke:#181818;stroke-width:0.5;" width="4" x="225.8817" y="366.7083"/><rect fill="#F1F1F1" height="2" style="stroke:#181818;stroke-width:0.5;" width="4" x="225.8817" y="370.7083"/><text fill="#000000" font-family="sans-serif" font-size="14" lengthAdjust="spacing" textLength="121.7617" x="101.12" y="393.2434">mmhashchainsigs</text></g><!--entity RelpOut--><g class="entity" data-qualified-name="Origin.RsyslogA.RelpOut" data-source-line="14" id="ent0007"><rect fill="#F1F1F1" height="46.4883" rx="2.5" ry="2.5" style="stroke:#181818;stroke-width:0.5;" width="88.0566" x="85.97" y="483.1983"/><rect fill="#F1F1F1" height="10" style="stroke:#181818;stroke-width:0.5;" width="15" x="154.0266" y="488.1983"/><rect fill="#F1F1F1" height="2" style="stroke:#181818;stroke-width:0.5;" width="4" x="152.0266" y="490.1983"/><rect fill="#F1F1F1" height="2" style="stroke:#181818;stroke-width:0.5;" width="4" x="152.0266" y="494.1983"/><text fill="#000000" font-family="sans-serif" font-size="14" lengthAdjust="spacing" textLength="48.0566" x="100.97" y="516.7334">omrelp</text></g><!--entity LogFile--><g class="entity" data-qualified-name="Receiver.LogFile" data-source-line="26" id="ent0014"><path d="M64.08,1119.6183 L64.08,1151.1066 A2.5,2.5 0 0 0 66.58,1153.6066 L223.412,1153.6066 A2.5,2.5 0 0 0 225.912,1151.1066 L225.912,1127.1183 L215.912,1117.1183 L66.58,1117.1183 A2.5,2.5 0 0 0 64.08,1119.6183" fill="#F1F1F1" style="stroke:#181818;stroke-width:0.5;"/><path d="M215.912,1117.1183 L215.912,1124.6183 A2.5,2.5 0 0 0 218.412,1127.1183 L225.912,1127.1183" fill="#F1F1F1" style="stroke:#181818;stroke-width:0.5;"/><text fill="#000000" font-family="sans-serif" font-size="14" lengthAdjust="spacing" textLength="141.832" x="74.08" y="1140.6534">/var/log/&lt;host&gt;.log</text></g><!--entity RelpIn--><g class="entity" data-qualified-name="Receiver.RsyslogB.RelpIn" data-source-line="23" id="ent0012"><rect fill="#F1F1F1" height="46.4883" rx="2.5" ry="2.5" style="stroke:#181818;stroke-width:0.5;" width="83.5039" x="88.25" y="814.1783"/><rect fill="#F1F1F1" height="10" style="stroke:#181818;stroke-width:0.5;" width="15" x="151.7539" y="819.1783"/><rect fill="#F1F1F1" height="2" style="stroke:#181818;stroke-width:0.5;" width="4" x="149.7539" y="821.1783"/><rect fill="#F1F1F1" height="2" style="stroke:#181818;stroke-width:0.5;" width="4" x="149.7539" y="825.1783"/><text fill="#000000" font-family="sans-serif" font-size="14" lengthAdjust="spacing" textLength="43.5039" x="103.25" y="847.7134">imrelp</text></g><!--entity OmfileB--><g class="entity" data-qualified-name="Receiver.RsyslogB.OmfileB" data-source-line="24" id="ent0013"><rect fill="#F1F1F1" height="62.9766" rx="2.5" ry="2.5" style="stroke:#181818;stroke-width:0.5;" width="131.2051" x="64.4" y="950.4183"/><rect fill="#F1F1F1" height="10" style="stroke:#181818;stroke-width:0.5;" width="15" x="175.6051" y="955.4183"/><rect fill="#F1F1F1" height="2" style="stroke:#181818;stroke-width:0.5;" width="4" x="173.6051" y="957.4183"/><rect fill="#F1F1F1" height="2" style="stroke:#181818;stroke-width:0.5;" width="4" x="173.6051" y="961.4183"/><text fill="#000000" font-family="sans-serif" font-size="14" lengthAdjust="spacing" textLength="42.7109" x="79.4" y="983.9534">omfile</text><text fill="#000000" font-family="sans-serif" font-size="14" lengthAdjust="spacing" textLength="91.2051" x="79.4" y="1000.4417">(sd-preserve)</text></g><!--entity Verifier--><g class="entity" data-qualified-name="Audit.Verifier" data-source-line="30" id="ent0016"><rect fill="#F1F1F1" height="46.4883" rx="2.5" ry="2.5" style="stroke:#181818;stroke-width:0.5;" width="207.1455" x="596.43" y="1112.1183"/><rect fill="#F1F1F1" height="10" style="stroke:#181818;stroke-width:0.5;" width="15" x="783.5755" y="1117.1183"/><rect fill="#F1F1F1" height="2" style="stroke:#181818;stroke-width:0.5;" width="4" x="781.5755" y="1119.1183"/><rect fill="#F1F1F1" height="2" style="stroke:#181818;stroke-width:0.5;" width="4" x="781.5755" y="1123.1183"/><text fill="#000000" font-family="sans-serif" font-size="14" lengthAdjust="spacing" textLength="167.1455" x="611.43" y="1145.6534">mmhashchainsigs-verify</text></g><!--entity PubKey--><g class="entity" data-qualified-name="Audit.PubKey" data-source-line="31" id="ent0017"><path d="M627.46,966.1683 L627.46,997.6566 A2.5,2.5 0 0 0 629.96,1000.1566 L770.0371,1000.1566 A2.5,2.5 0 0 0 772.5371,997.6566 L772.5371,973.6683 L762.5371,963.6683 L629.96,963.6683 A2.5,2.5 0 0 0 627.46,966.1683" fill="#F1F1F1" style="stroke:#181818;stroke-width:0.5;"/><path d="M762.5371,963.6683 L762.5371,971.1683 A2.5,2.5 0 0 0 765.0371,973.6683 L772.5371,973.6683" fill="#F1F1F1" style="stroke:#181818;stroke-width:0.5;"/><text fill="#000000" font-family="sans-serif" font-size="14" lengthAdjust="spacing" textLength="125.0771" x="637.46" y="987.2034">siglog-public.pem</text></g><!--entity RELP--><g class="entity" data-qualified-name="RELP" data-source-line="19" id="ent0009"><path d="M87.3538,625.2944 C91.5842,616.5246 98.8634,617.7044 103.4616,624.9239 C107.3444,618.1892 111.6097,617.2096 117.2502,622.9869 C120.8133,615.479 127.8428,615.5857 131.7276,622.6677 C134.9647,616.8789 141.3246,616.9303 144.5282,622.7048 C149.6996,615.101 156.2664,616.5521 160.247,623.9523 C165.4796,616.9442 170.1579,618.9191 173.9519,625.4125 C184.2418,627.1095 186.6406,634.214 179.558,641.8397 C184.2639,647.6854 182.4464,654.1289 175.0098,656.1025 C171.8438,663.5968 166.5392,665.5962 160.5286,659.0328 C156.2658,666.565 149.6294,666.4711 145.3392,659.0605 C142.7734,665.6899 136.3898,667.5439 131.7183,661.2861 C126.9536,668.6627 119.9808,666.8134 116.1891,660.2056 C111.9791,667.2542 105.2724,665.3803 102.4151,658.8351 C97.5414,663.9575 91.0703,662.9971 88.3057,656.3144 C80.6444,653.004 79.7364,647.5396 86.1573,642.1007 C78.5252,637.1238 78.0031,629.0623 87.3538,625.2944" fill="#F1F1F1" style="stroke:#181818;stroke-width:0.5;"/><text fill="#000000" font-family="sans-serif" font-size="14" lengthAdjust="spacing" textLength="71.7021" x="94.15" y="645.2234">TLS / RELP</text></g><g class="entity" data-qualified-name="GMN28" data-source-line="47" id="ent0029"><path d="M306.19,953.9483 L306.19,1009.8799 L547.8028,1009.8799 L547.8028,963.9483 L537.8028,953.9483 L306.19,953.9483" fill="#FEFFDD" style="stroke:#181818;stroke-width:0.5;"/><path d="M537.8028,953.9483 L537.8028,963.9483 L547.8028,963.9483 L537.8028,953.9483" fill="#FEFFDD" style="stroke:#181818;stroke-width:1;"/><text fill="#000000" font-family="sans-serif" font-size="13" lengthAdjust="spacing" textLength="220.6128" x="312.19" y="971.5166">Receiver stores messages verbatim</text><text fill="#000000" font-family="sans-serif" font-size="13" lengthAdjust="spacing" textLength="218.8037" x="312.19" y="986.8272">through the sd-preserve template;</text><text fill="#000000" font-family="sans-serif" font-size="13" lengthAdjust="spacing" textLength="154.6099" x="312.19" y="1002.1377">it holds no signing keys.</text></g><g class="entity" data-qualified-name="GMN31" data-source-line="53" id="ent0032"><path d="M860.07,1107.3983 L860.07,1163.3299 L1091.9328,1163.3299 L1091.9328,1117.3983 L1081.9328,1107.3983 L860.07,1107.3983" fill="#FEFFDD" style="stroke:#181818;stroke-width:0.5;"/><path d="M1081.9328,1107.3983 L1081.9328,1117.3983 L1091.9328,1117.3983 L1081.9328,1107.3983" fill="#FEFFDD" style="stroke:#181818;stroke-width:1;"/><text fill="#000000" font-family="sans-serif" font-size="13" lengthAdjust="spacing" textLength="210.8628" x="866.07" y="1124.9666">Verifier needs only the public key</text><text fill="#000000" font-family="sans-serif" font-size="13" lengthAdjust="spacing" textLength="195.2095" x="866.07" y="1140.2772">and the log file. It can run on a</text><text fill="#000000" font-family="sans-serif" font-size="13" lengthAdjust="spacing" textLength="207.105" x="866.07" y="1155.5877">different host -- or later in time.</text></g><!--link App to InA--><g class="link" data-entity-1="ent0003" data-entity-2="ent0005" data-link-type="dependency" data-source-line="34" id="lnk18"><path d="M167,130.4583 C167,158.2583 167,199.0183 167,226.7183" fill="none" id="App-to-InA" style="stroke:#181818;stroke-width:1;"/><polygon fill="#181818" points="167,232.7183,171,223.7183,167,227.7183,163,223.7183,167,232.7183" style="stroke:#181818;stroke-width:1;"/><text fill="#000000" font-family="sans-serif" font-size="13" lengthAdjust="spacing" textLength="48.3501" x="168" y="173.5466">syslog()</text></g><!--link InA to MMA--><g class="link" data-entity-1="ent0005" data-entity-2="ent0006" data-link-type="dependency" data-source-line="35" id="lnk19"><path d="M145.48,279.9483 C134.94,293.8483 125.57,312.2683 131,329.7083 C134.31,340.3383 137.043,345.8837 143.453,354.5537" fill="none" id="InA-to-MMA" style="stroke:#181818;stroke-width:1;"/><polygon fill="#181818" points="147.02,359.3783,144.8859,349.7634,144.0475,355.3578,138.4531,354.5194,147.02,359.3783" style="stroke:#181818;stroke-width:1;"/><text fill="#000000" font-family="sans-serif" font-size="13" lengthAdjust="spacing" textLength="44.8589" x="132" y="326.2766">smsg_t</text></g><!--link MMA to RelpOut--><g class="link" data-entity-1="ent0006" data-entity-2="ent0007" data-link-type="dependency" data-source-line="36" id="lnk20"><path d="M160.13,406.5183 C153.48,428.3483 145.2173,455.4783 138.5873,477.2583" fill="none" id="MMA-to-RelpOut" style="stroke:#181818;stroke-width:1;"/><polygon fill="#181818" points="136.84,482.9983,143.2876,475.5532,138.2961,478.215,135.6343,473.2235,136.84,482.9983" style="stroke:#181818;stroke-width:1;"/><text fill="#000000" font-family="sans-serif" font-size="13" lengthAdjust="spacing" textLength="122.6113" x="151.72" y="449.7666">smsg_t + siglog SD</text></g><!--link PrivKey to MMA--><g class="link" data-entity-1="ent0008" data-entity-2="ent0006" data-link-type="dependency" data-source-line="37" id="lnk21"><path d="M316.05,283.0683 C282.17,305.5483 238.5597,334.4811 206.1697,355.9711" fill="none" id="PrivKey-to-MMA" style="stroke:#181818;stroke-width:1;stroke-dasharray:7,7;"/><polygon fill="#181818" points="201.17,359.2883,210.8809,357.6457,205.3364,356.524,206.458,350.9795,201.17,359.2883" style="stroke:#181818;stroke-width:1;"/><text fill="#000000" font-family="sans-serif" font-size="13" lengthAdjust="spacing" textLength="76.2227" x="267.64" y="326.2766">load at start</text></g><!--link RelpOut to RELP--><g class="link" data-entity-1="ent0007" data-entity-2="ent0009" data-link-type="dependency" data-source-line="38" id="lnk22"><path d="M130,530.0483 C130,554.2783 130,586.5083 130,610.6283" fill="none" id="RelpOut-to-RELP" style="stroke:#181818;stroke-width:1;"/><polygon fill="#181818" points="130,616.6283,134,607.6283,130,611.6283,126,607.6283,130,616.6283" style="stroke:#181818;stroke-width:1;"/></g><!--link RELP to RelpIn--><g class="link" data-entity-1="ent0009" data-entity-2="ent0012" data-link-type="dependency" data-source-line="39" id="lnk23"><path d="M130,663.3583 C130,700.9683 130,770.3283 130,807.9583" fill="none" id="RELP-to-RelpIn" style="stroke:#181818;stroke-width:1;"/><polygon fill="#181818" points="130,813.9583,134,804.9583,130,808.9583,126,804.9583,130,813.9583" style="stroke:#181818;stroke-width:1;"/></g><!--link RelpIn to OmfileB--><g class="link" data-entity-1="ent0012" data-entity-2="ent0013" data-link-type="dependency" data-source-line="40" id="lnk24"><path d="M130,860.9983 C130,885.0083 130,917.1483 130,943.9583" fill="none" id="RelpIn-to-OmfileB" style="stroke:#181818;stroke-width:1;"/><polygon fill="#181818" points="130,949.9583,134,940.9583,130,944.9583,126,940.9583,130,949.9583" style="stroke:#181818;stroke-width:1;"/></g><!--link OmfileB to LogFile--><g class="link" data-entity-1="ent0013" data-entity-2="ent0014" data-link-type="dependency" data-source-line="41" id="lnk25"><path d="M133.04,1013.5583 C136.12,1044.6783 140.1879,1085.7876 142.6879,1110.9976" fill="none" id="OmfileB-to-LogFile" style="stroke:#181818;stroke-width:1;"/><polygon fill="#181818" points="143.28,1116.9683,146.3723,1107.6175,142.7866,1111.9927,138.4114,1108.4069,143.28,1116.9683" style="stroke:#181818;stroke-width:1;"/><text fill="#000000" font-family="sans-serif" font-size="13" lengthAdjust="spacing" textLength="73.9756" x="190.1821" y="1058.9666">append line</text><text fill="#000000" font-family="sans-serif" font-size="13" lengthAdjust="spacing" textLength="173.7798" x="140.28" y="1074.2772">[siglog SD][client SD]MSG\n</text></g><!--link LogFile to Verifier--><g class="link" data-entity-1="ent0014" data-entity-2="ent0016" data-link-type="dependency" data-source-line="43" id="lnk26"><path d="M226.3,1135.3683 C324.3,1135.3683 483.15,1135.3683 590.24,1135.3683" fill="none" id="LogFile-to-Verifier" style="stroke:#181818;stroke-width:1;"/><polygon fill="#181818" points="596.24,1135.3683,587.24,1131.3683,591.24,1135.3683,587.24,1139.3683,596.24,1135.3683" style="stroke:#181818;stroke-width:1;"/><text fill="#000000" font-family="sans-serif" font-size="13" lengthAdjust="spacing" textLength="132.4375" x="345.17" y="1128.9366">copy / fetch / mount</text></g><!--link PubKey to Verifier--><g class="link" data-entity-1="ent0017" data-entity-2="ent0016" data-link-type="dependency" data-source-line="44" id="lnk27"><path d="M700,1000.5783 C700,1028.1283 700,1075.2783 700,1105.6383" fill="none" id="PubKey-to-Verifier" style="stroke:#181818;stroke-width:1;stroke-dasharray:7,7;"/><polygon fill="#181818" points="700,1111.6383,704,1102.6383,700,1106.6383,696,1102.6383,700,1111.6383" style="stroke:#181818;stroke-width:1;"/></g><!--link Receiver to GMN28--><g class="link" data-entity-1="ent0010" data-entity-2="ent0029" data-link-type="association" data-source-line="47" id="lnk30"><path d="M282.0803,845.9491 C282.1811,846.043 282.2828,846.1377 282.3853,846.2331 C282.5904,846.424 282.7987,846.618 283.0103,846.8151 C284.7032,848.3914 286.6047,850.1619 288.6887,852.1025 C297.025,859.8648 308.2825,870.3477 320.795,881.9995 C345.82,905.3033 375.865,933.2833 397.6,953.5283" fill="none" id="Receiver-GMN28" style="stroke:#181818;stroke-width:1;stroke-dasharray:7,7;"/></g><!--link Audit to GMN31--><g class="link" data-entity-1="ent0015" data-entity-2="ent0032" data-link-type="association" data-source-line="53" id="lnk33"><path d="M836.3003,991.4019 C836.5034,991.6097 836.7097,991.8208 836.9193,992.0353 C838.5957,993.7511 840.4784,995.6779 842.5413,997.7891 C850.7925,1006.2336 861.925,1017.6264 874.26,1030.2495 C898.93,1055.4958 928.41,1085.6633 949.27,1107.0083" fill="none" id="Audit-GMN31" style="stroke:#181818;stroke-width:1;stroke-dasharray:7,7;"/></g><?plantuml-src VLJDRjGm4BxxAKRBfHNQtLxW0AZIbWAgQDMgHLow27cJIMAjVoBRMOWg91w29-H9cB6JjBGBMMbjZsS-ptppsL55ZM1C8qDJD5BPeEe0lt_-WkjtvrTmYgrslK4RuKgrg9L58S9MsLPwQI0qidJVbAsXaZhWWnthIeGx0VITo69RUzVPygtJpiEpgkHVtdE-H3_ONwHF_10YHSyklQgLXSQ5E0CPO5XdrCAPrbbER2RRLgj2HkNiGJXChgksJLuPo8S-Q5UddUiyNmqmZw2KwRu7LsoJwvbTxVDvH5PolRZOw-gCHztcSsbosSNazIFzLugOdn44fJDllTh9Y8iMpTeU64xxwENHKQxcYZO_Oi_C5Dfr9Sm-dT_0ChKeWzDaPEqQ2rGxzFUyJPQx_tDoyYzE_YhYpEwlbCkXr4D9jM10lyES_6NQENbI-78d_P9ENRxXH8yNOpBdhdvF3lSoM7MbYX1YQd3kRh8yqS6ZniofP5NrAU8pJnNwFSHt6n8FyvwfxZO3qoGXcC-FMGNm2Z931uU2bsocZhFPXFfh5BnWuz3aQGEUGpu6Rax5q4LOBCPexMG9CjNcenY34n0tDDt04PPepqEoZAGEOx8Dn14kNGYq9V1jNTlRAOCljuLMp1HDBsu-hDTMY368uaUE2A1mRK_wgZ0M3Os6BcyKcPgK_aGdjIWYR5oCpe2h9gaHpvFgGdGa230OWgnfGhODzTAGJspeNQWR6X4U20SYcbRJTNXDFjJfnkaoa6wPJCklpHRxi11S8v__98ka3mgTAhA81E2ixjDHkUUCGawIKDZ8736P2pYBK4WBlhCK0f9yIbLLw9awrYgn3VHUSO8Uw46YMl11Ddy0?></g></svg>