<?plantuml 1.2026.2?><svg xmlns="http://www.w3.org/2000/svg" xmlns:xlink="http://www.w3.org/1999/xlink" contentStyleType="text/css" data-diagram-type="SEQUENCE" height="1364px" preserveAspectRatio="none" style="width:1248px;height:1364px;background:#FFFFFF;" version="1.1" viewBox="0 0 1248 1364" width="1248px" zoomAndPan="magnify"><title>mmhashchainsigs-verify &#8212; Verification Sequence</title><defs/><g><text fill="#000000" font-family="sans-serif" font-size="14" font-weight="bold" lengthAdjust="spacing" textLength="359.1328" x="445.9873" y="28.5352">mmhashchainsigs-verify &#8212; Verification Sequence</text><rect fill="none" height="673.1426" style="stroke:#000000;stroke-width:1.5;" width="763.4395" x="307.8721" y="325.8398"/><rect fill="none" height="131.2422" style="stroke:#000000;stroke-width:1.5;" width="486.0635" x="575.248" y="453.3926"/><rect fill="none" height="199.4844" style="stroke:#000000;stroke-width:1.5;" width="486.0635" x="575.248" y="750.1875"/><rect fill="none" height="74.9316" style="stroke:#000000;stroke-width:1.5;" width="313.5415" x="575.248" y="1042.293"/><rect fill="none" height="106.1973" style="stroke:#000000;stroke-width:1.5;" width="499.0176" x="10" y="1160.5352"/><g class="participant-lifeline" data-entity-uid="part1" data-qualified-name="Operator" id="part1-lifeline"><g><title>Operator</title><rect fill="#000000" fill-opacity="0.00000" height="1164.7559" width="8" x="49.2559" y="118.9766"/><line style="stroke:#181818;stroke-width:0.5;stroke-dasharray:5,5;" x1="53" x2="53" y1="118.9766" y2="1283.7324"/></g></g><g class="participant-lifeline" data-entity-uid="part2" data-qualified-name="CLI" id="part2-lifeline"><g><title>mmhashchainsigs-verify</title><rect fill="#000000" fill-opacity="0.00000" height="1164.7559" width="8" x="404.4448" y="118.9766"/><line style="stroke:#181818;stroke-width:0.5;stroke-dasharray:5,5;" x1="407.8721" x2="407.8721" y1="118.9766" y2="1283.7324"/></g></g><g class="participant-lifeline" data-entity-uid="part3" data-qualified-name="Ctx" id="part3-lifeline"><g><title>verifier_ctx_t</title><rect fill="#000000" fill-opacity="0.00000" height="1164.7559" width="8" x="632.1348" y="118.9766"/><line style="stroke:#181818;stroke-width:0.5;stroke-dasharray:5,5;" x1="635.248" x2="635.248" y1="118.9766" y2="1283.7324"/></g></g><g class="participant-lifeline" data-entity-uid="part4" data-qualified-name="Fmt" id="part4-lifeline"><g><title>hcs_format</title><rect fill="#000000" fill-opacity="0.00000" height="1164.7559" width="8" x="864.1538" y="118.9766"/><line style="stroke:#181818;stroke-width:0.5;stroke-dasharray:5,5;" x1="867.6182" x2="867.6182" y1="118.9766" y2="1283.7324"/></g></g><g class="participant-lifeline" data-entity-uid="part5" data-qualified-name="Crypto" id="part5-lifeline"><g><title>hcs_crypto</title><rect fill="#000000" fill-opacity="0.00000" height="1164.7559" width="8" x="991.0005" y="118.9766"/><line style="stroke:#181818;stroke-width:0.5;stroke-dasharray:5,5;" x1="994.6895" x2="994.6895" y1="118.9766" y2="1283.7324"/></g></g><g class="participant-lifeline" data-entity-uid="part6" data-qualified-name="File" id="part6-lifeline"><g><title>log file</title><rect fill="#000000" fill-opacity="0.00000" height="1164.7559" width="8" x="1083.7349" y="118.9766"/><line style="stroke:#181818;stroke-width:0.5;stroke-dasharray:5,5;" x1="1087.3115" x2="1087.3115" y1="118.9766" y2="1283.7324"/></g></g><g class="participant-lifeline" data-entity-uid="part7" data-qualified-name="Pub" id="part7-lifeline"><g><title>public key ..pem.</title><rect fill="#000000" fill-opacity="0.00000" height="1164.7559" width="8" x="1181.6328" y="118.9766"/><line style="stroke:#181818;stroke-width:0.5;stroke-dasharray:5,5;" x1="1185.1582" x2="1185.1582" y1="118.9766" y2="1283.7324"/></g></g><g class="participant participant-head" data-entity-uid="part1" data-qualified-name="Operator" id="part1-head"><text fill="#000000" font-family="sans-serif" font-size="14" lengthAdjust="spacing" textLength="60.5117" x="20" y="116.0234">Operator</text><ellipse cx="53.2559" cy="50.9883" fill="#E2E2F0" rx="8" ry="8" style="stroke:#181818;stroke-width:0.5;"/><path d="M53.2559,58.9883 L53.2559,85.9883 M40.2559,66.9883 L66.2559,66.9883 M53.2559,85.9883 L40.2559,100.9883 M53.2559,85.9883 L66.2559,100.9883" fill="none" style="stroke:#181818;stroke-width:0.5;"/></g><g class="participant participant-tail" data-entity-uid="part1" data-qualified-name="Operator" id="part1-tail"><text fill="#000000" font-family="sans-serif" font-size="14" lengthAdjust="spacing" textLength="60.5117" x="20" y="1296.2676">Operator</text><ellipse cx="53.2559" cy="1307.7207" fill="#E2E2F0" rx="8" ry="8" style="stroke:#181818;stroke-width:0.5;"/><path d="M53.2559,1315.7207 L53.2559,1342.7207 M40.2559,1323.7207 L66.2559,1323.7207 M53.2559,1342.7207 L40.2559,1357.7207 M53.2559,1342.7207 L66.2559,1357.7207" fill="none" style="stroke:#181818;stroke-width:0.5;"/></g><g class="participant participant-head" data-entity-uid="part2" data-qualified-name="CLI" id="part2-head"><rect fill="#E2E2F0" height="46.9766" rx="2.5" ry="2.5" style="stroke:#181818;stroke-width:0.5;" width="181.1455" x="317.8721" y="71"/><text fill="#000000" font-family="sans-serif" font-size="14" lengthAdjust="spacing" textLength="167.1455" x="324.8721" y="91.5352">mmhashchainsigs-verify</text><text fill="#000000" font-family="sans-serif" font-size="14" lengthAdjust="spacing" textLength="30.29" x="393.2998" y="108.0234">(CLI)</text></g><g class="participant participant-tail" data-entity-uid="part2" data-qualified-name="CLI" id="part2-tail"><rect fill="#E2E2F0" height="46.9766" rx="2.5" ry="2.5" style="stroke:#181818;stroke-width:0.5;" width="181.1455" x="317.8721" y="1282.7324"/><text fill="#000000" font-family="sans-serif" font-size="14" lengthAdjust="spacing" textLength="167.1455" x="324.8721" y="1303.2676">mmhashchainsigs-verify</text><text fill="#000000" font-family="sans-serif" font-size="14" lengthAdjust="spacing" textLength="30.29" x="393.2998" y="1319.7559">(CLI)</text></g><g class="participant participant-head" data-entity-uid="part3" data-qualified-name="Ctx" id="part3-head"><rect fill="#E2E2F0" height="30.4883" rx="2.5" ry="2.5" style="stroke:#181818;stroke-width:0.5;" width="101.7734" x="585.248" y="87.4883"/><text fill="#000000" font-family="sans-serif" font-size="14" lengthAdjust="spacing" textLength="87.7734" x="592.248" y="108.0234">verifier_ctx_t</text></g><g class="participant participant-tail" data-entity-uid="part3" data-qualified-name="Ctx" id="part3-tail"><rect fill="#E2E2F0" height="30.4883" rx="2.5" ry="2.5" style="stroke:#181818;stroke-width:0.5;" width="101.7734" x="585.248" y="1282.7324"/><text fill="#000000" font-family="sans-serif" font-size="14" lengthAdjust="spacing" textLength="87.7734" x="592.248" y="1303.2676">verifier_ctx_t</text></g><g class="participant participant-head" data-entity-uid="part4" data-qualified-name="Fmt" id="part4-head"><rect fill="#E2E2F0" height="46.9766" rx="2.5" ry="2.5" style="stroke:#181818;stroke-width:0.5;" width="121.0713" x="807.6182" y="71"/><text fill="#000000" font-family="sans-serif" font-size="14" lengthAdjust="spacing" textLength="75.5098" x="830.3989" y="91.5352">hcs_format</text><text fill="#000000" font-family="sans-serif" font-size="14" lengthAdjust="spacing" textLength="107.0713" x="814.6182" y="108.0234">(SD parse/strip)</text></g><g class="participant participant-tail" data-entity-uid="part4" data-qualified-name="Fmt" id="part4-tail"><rect fill="#E2E2F0" height="46.9766" rx="2.5" ry="2.5" style="stroke:#181818;stroke-width:0.5;" width="121.0713" x="807.6182" y="1282.7324"/><text fill="#000000" font-family="sans-serif" font-size="14" lengthAdjust="spacing" textLength="75.5098" x="830.3989" y="1303.2676">hcs_format</text><text fill="#000000" font-family="sans-serif" font-size="14" lengthAdjust="spacing" textLength="107.0713" x="814.6182" y="1319.7559">(SD parse/strip)</text></g><g class="participant participant-head" data-entity-uid="part5" data-qualified-name="Crypto" id="part5-head"><rect fill="#E2E2F0" height="46.9766" rx="2.5" ry="2.5" style="stroke:#181818;stroke-width:0.5;" width="112.6221" x="938.6895" y="71"/><text fill="#000000" font-family="sans-serif" font-size="14" lengthAdjust="spacing" textLength="72.8574" x="958.5718" y="91.5352">hcs_crypto</text><text fill="#000000" font-family="sans-serif" font-size="14" lengthAdjust="spacing" textLength="98.6221" x="945.6895" y="108.0234">(hash + verify)</text></g><g class="participant participant-tail" data-entity-uid="part5" data-qualified-name="Crypto" id="part5-tail"><rect fill="#E2E2F0" height="46.9766" rx="2.5" ry="2.5" style="stroke:#181818;stroke-width:0.5;" width="112.6221" x="938.6895" y="1282.7324"/><text fill="#000000" font-family="sans-serif" font-size="14" lengthAdjust="spacing" textLength="72.8574" x="958.5718" y="1303.2676">hcs_crypto</text><text fill="#000000" font-family="sans-serif" font-size="14" lengthAdjust="spacing" textLength="98.6221" x="945.6895" y="1319.7559">(hash + verify)</text></g><g class="participant participant-head" data-entity-uid="part6" data-qualified-name="File" id="part6-head"><text fill="#000000" font-family="sans-serif" font-size="14" lengthAdjust="spacing" textLength="46.8467" x="1061.3115" y="116.0234">log file</text><path d="M1069.7349,66.4883 C1069.7349,56.4883 1087.7349,56.4883 1087.7349,56.4883 C1087.7349,56.4883 1105.7349,56.4883 1105.7349,66.4883 L1105.7349,92.4883 C1105.7349,102.4883 1087.7349,102.4883 1087.7349,102.4883 C1087.7349,102.4883 1069.7349,102.4883 1069.7349,92.4883 L1069.7349,66.4883" fill="#E2E2F0" style="stroke:#181818;stroke-width:0.5;"/><path d="M1069.7349,66.4883 C1069.7349,76.4883 1087.7349,76.4883 1087.7349,76.4883 C1087.7349,76.4883 1105.7349,76.4883 1105.7349,66.4883" fill="none" style="stroke:#181818;stroke-width:0.5;"/></g><g class="participant participant-tail" data-entity-uid="part6" data-qualified-name="File" id="part6-tail"><text fill="#000000" font-family="sans-serif" font-size="14" lengthAdjust="spacing" textLength="46.8467" x="1061.3115" y="1296.2676">log file</text><path d="M1069.7349,1309.2207 C1069.7349,1299.2207 1087.7349,1299.2207 1087.7349,1299.2207 C1087.7349,1299.2207 1105.7349,1299.2207 1105.7349,1309.2207 L1105.7349,1335.2207 C1105.7349,1345.2207 1087.7349,1345.2207 1087.7349,1345.2207 C1087.7349,1345.2207 1069.7349,1345.2207 1069.7349,1335.2207 L1069.7349,1309.2207" fill="#E2E2F0" style="stroke:#181818;stroke-width:0.5;"/><path d="M1069.7349,1309.2207 C1069.7349,1319.2207 1087.7349,1319.2207 1087.7349,1319.2207 C1087.7349,1319.2207 1105.7349,1319.2207 1105.7349,1309.2207" fill="none" style="stroke:#181818;stroke-width:0.5;"/></g><g class="participant participant-head" data-entity-uid="part7" data-qualified-name="Pub" id="part7-head"><text fill="#000000" font-family="sans-serif" font-size="14" lengthAdjust="spacing" textLength="116.9492" x="1124.1582" y="116.0234">public key (.pem)</text><ellipse cx="1185.6328" cy="86.4883" fill="#E2E2F0" rx="12" ry="12" style="stroke:#181818;stroke-width:0.5;"/><line style="stroke:#181818;stroke-width:0.5;" x1="1173.6328" x2="1197.6328" y1="100.4883" y2="100.4883"/></g><g class="participant participant-tail" data-entity-uid="part7" data-qualified-name="Pub" id="part7-tail"><text fill="#000000" font-family="sans-serif" font-size="14" lengthAdjust="spacing" textLength="116.9492" x="1124.1582" y="1296.2676">public key (.pem)</text><ellipse cx="1185.6328" cy="1315.2207" fill="#E2E2F0" rx="12" ry="12" style="stroke:#181818;stroke-width:0.5;"/><line style="stroke:#181818;stroke-width:0.5;" x1="1173.6328" x2="1197.6328" y1="1329.2207" y2="1329.2207"/></g><g class="message" data-entity-1="part1" data-entity-2="part2" id="msg1"><polygon fill="#181818" points="396.4448,146.2871,406.4448,150.2871,396.4448,154.2871,400.4448,150.2871" style="stroke:#181818;stroke-width:1;"/><line style="stroke:#181818;stroke-width:1;" x1="53.2559" x2="402.4448" y1="150.2871" y2="150.2871"/><text fill="#000000" font-family="sans-serif" font-size="13" lengthAdjust="spacing" textLength="189.6362" x="136.0322" y="145.5449">argv: -k pub.pem path/to/log</text></g><g class="message" data-entity-1="part2" data-entity-2="part3" id="msg2"><polygon fill="#181818" points="624.1348,175.5977,634.1348,179.5977,624.1348,183.5977,628.1348,179.5977" style="stroke:#181818;stroke-width:1;"/><line style="stroke:#181818;stroke-width:1;" x1="408.4448" x2="630.1348" y1="179.5977" y2="179.5977"/><text fill="#000000" font-family="sans-serif" font-size="13" lengthAdjust="spacing" textLength="203.6899" x="420.4448" y="174.8555">verifier_init(ctx, pub.pem, strict)</text></g><g class="message" data-entity-1="part3" data-entity-2="part5" id="msg3"><polygon fill="#181818" points="983.0005,204.9082,993.0005,208.9082,983.0005,212.9082,987.0005,208.9082" style="stroke:#181818;stroke-width:1;"/><line style="stroke:#181818;stroke-width:1;" x1="636.1348" x2="989.0005" y1="208.9082" y2="208.9082"/><text fill="#000000" font-family="sans-serif" font-size="13" lengthAdjust="spacing" textLength="163.3062" x="733.9146" y="204.166">load + fingerprint pubkey</text></g><g class="message" data-entity-1="part5" data-entity-2="part7" id="msg4"><polygon fill="#181818" points="1173.6328,234.2188,1183.6328,238.2188,1173.6328,242.2188,1177.6328,238.2188" style="stroke:#181818;stroke-width:1;"/><line style="stroke:#181818;stroke-width:1;" x1="995.0005" x2="1179.6328" y1="238.2188" y2="238.2188"/><text fill="#000000" font-family="sans-serif" font-size="13" lengthAdjust="spacing" textLength="57.4653" x="1061.584" y="233.4766">read PEM</text></g><g class="message" data-entity-1="part7" data-entity-2="part5" id="msg5"><polygon fill="#181818" points="1006.0005,248.2188,996.0005,252.2188,1006.0005,256.2188,1002.0005,252.2188" style="stroke:#181818;stroke-width:1;"/><line style="stroke:#181818;stroke-width:1;stroke-dasharray:2,2;" x1="1000.0005" x2="1184.6328" y1="252.2188" y2="252.2188"/></g><g class="message" data-entity-1="part5" data-entity-2="part3" id="msg6"><polygon fill="#181818" points="647.1348,277.5293,637.1348,281.5293,647.1348,285.5293,643.1348,281.5293" style="stroke:#181818;stroke-width:1;"/><line style="stroke:#181818;stroke-width:1;stroke-dasharray:2,2;" x1="641.1348" x2="994.0005" y1="281.5293" y2="281.5293"/><text fill="#000000" font-family="sans-serif" font-size="13" lengthAdjust="spacing" textLength="140.0674" x="745.5339" y="276.7871">EVP_PKEY*, pubkey_fp</text></g><g class="message" data-entity-1="part2" data-entity-2="part6" id="msg7"><polygon fill="#181818" points="1075.7349,306.8398,1085.7349,310.8398,1075.7349,314.8398,1079.7349,310.8398" style="stroke:#181818;stroke-width:1;"/><line style="stroke:#181818;stroke-width:1;" x1="408.4448" x2="1081.7349" y1="310.8398" y2="310.8398"/><text fill="#000000" font-family="sans-serif" font-size="13" lengthAdjust="spacing" textLength="44.7129" x="725.7334" y="306.0977">fopen()</text></g><path d="M307.8721,325.8398 L382.3188,325.8398 L382.3188,333.1504 L372.3188,343.1504 L307.8721,343.1504 L307.8721,325.8398" fill="#EEEEEE" style="stroke:#000000;stroke-width:1.5;"/><rect fill="none" height="673.1426" style="stroke:#000000;stroke-width:1.5;" width="763.4395" x="307.8721" y="325.8398"/><text fill="#000000" font-family="sans-serif" font-size="13" font-weight="bold" lengthAdjust="spacing" textLength="29.4468" x="322.8721" y="339.4082">loop</text><text fill="#000000" font-family="sans-serif" font-size="11" font-weight="bold" lengthAdjust="spacing" textLength="166.4717" x="397.3188" y="338.4746">[while getline(&amp;line, ...) != -1]</text><g class="message" data-entity-1="part2" data-entity-2="part3" id="msg8"><polygon fill="#181818" points="624.1348,360.4609,634.1348,364.4609,624.1348,368.4609,628.1348,364.4609" style="stroke:#181818;stroke-width:1;"/><line style="stroke:#181818;stroke-width:1;" x1="408.4448" x2="630.1348" y1="364.4609" y2="364.4609"/><text fill="#000000" font-family="sans-serif" font-size="13" lengthAdjust="spacing" textLength="159.8975" x="442.3411" y="359.7188">verifier_process_line(line)</text></g><g class="message" data-entity-1="part3" data-entity-2="part4" id="msg9"><polygon fill="#181818" points="856.1538,389.7715,866.1538,393.7715,856.1538,397.7715,860.1538,393.7715" style="stroke:#181818;stroke-width:1;"/><line style="stroke:#181818;stroke-width:1;" x1="636.1348" x2="862.1538" y1="393.7715" y2="393.7715"/><text fill="#000000" font-family="sans-serif" font-size="13" lengthAdjust="spacing" textLength="175.2397" x="664.5244" y="389.0293">hcs_strip_sd_from_line(line)</text></g><g class="message" data-entity-1="part4" data-entity-2="part3" id="msg10"><polygon fill="#181818" points="647.1348,434.3926,637.1348,438.3926,647.1348,442.3926,643.1348,438.3926" style="stroke:#181818;stroke-width:1;"/><line style="stroke:#181818;stroke-width:1;stroke-dasharray:2,2;" x1="641.1348" x2="867.1538" y1="438.3926" y2="438.3926"/><text fill="#000000" font-family="sans-serif" font-size="13" lengthAdjust="spacing" textLength="91.1904" x="706.5491" y="418.3398">payload bytes,</text><text fill="#000000" font-family="sans-serif" font-size="13" lengthAdjust="spacing" textLength="208.019" x="648.1348" y="433.6504">hcs_sd_record_t {type, seq, h, ...}</text></g><path d="M575.248,453.3926 L637.3867,453.3926 L637.3867,460.7031 L627.3867,470.7031 L575.248,470.7031 L575.248,453.3926" fill="#EEEEEE" style="stroke:#000000;stroke-width:1.5;"/><rect fill="none" height="131.2422" style="stroke:#000000;stroke-width:1.5;" width="486.0635" x="575.248" y="453.3926"/><text fill="#000000" font-family="sans-serif" font-size="13" font-weight="bold" lengthAdjust="spacing" textLength="17.1387" x="590.248" y="466.9609">alt</text><text fill="#000000" font-family="sans-serif" font-size="11" font-weight="bold" lengthAdjust="spacing" textLength="97.0718" x="652.3867" y="466.0273">[sd.type == INIT]</text><g class="message" data-entity-1="part3" data-entity-2="part3" id="msg11"><line style="stroke:#181818;stroke-width:1;" x1="636.1348" x2="678.1348" y1="492.0137" y2="492.0137"/><line style="stroke:#181818;stroke-width:1;" x1="678.1348" x2="678.1348" y1="492.0137" y2="505.0137"/><line style="stroke:#181818;stroke-width:1;" x1="637.1348" x2="678.1348" y1="505.0137" y2="505.0137"/><polygon fill="#181818" points="647.1348,501.0137,637.1348,505.0137,647.1348,509.0137,643.1348,505.0137" style="stroke:#181818;stroke-width:1;"/><text fill="#000000" font-family="sans-serif" font-size="13" lengthAdjust="spacing" textLength="162.7539" x="643.1348" y="487.2715">check pubkey_fp matches</text></g><g class="message" data-entity-1="part3" data-entity-2="part5" id="msg12"><polygon fill="#181818" points="983.0005,530.3242,993.0005,534.3242,983.0005,538.3242,987.0005,534.3242" style="stroke:#181818;stroke-width:1;"/><line style="stroke:#181818;stroke-width:1;" x1="636.1348" x2="989.0005" y1="534.3242" y2="534.3242"/><text fill="#000000" font-family="sans-serif" font-size="13" lengthAdjust="spacing" textLength="171.7549" x="729.6902" y="529.582">hcs_chain_init_hash() -&gt; IV</text></g><g class="message" data-entity-1="part3" data-entity-2="part3" id="msg13"><line style="stroke:#181818;stroke-width:1;" x1="636.1348" x2="678.1348" y1="563.6348" y2="563.6348"/><line style="stroke:#181818;stroke-width:1;" x1="678.1348" x2="678.1348" y1="563.6348" y2="576.6348"/><line style="stroke:#181818;stroke-width:1;" x1="637.1348" x2="678.1348" y1="576.6348" y2="576.6348"/><polygon fill="#181818" points="647.1348,572.6348,637.1348,576.6348,647.1348,580.6348,643.1348,576.6348" style="stroke:#181818;stroke-width:1;"/><text fill="#000000" font-family="sans-serif" font-size="13" lengthAdjust="spacing" textLength="192.6831" x="643.1348" y="558.8926">chain_hash = IV; next_seq = 1</text></g><g class="message" data-entity-1="part3" data-entity-2="part5" id="msg14"><polygon fill="#181818" points="983.0005,624.2559,993.0005,628.2559,983.0005,632.2559,987.0005,628.2559" style="stroke:#181818;stroke-width:1;"/><line style="stroke:#181818;stroke-width:1;" x1="636.1348" x2="989.0005" y1="628.2559" y2="628.2559"/><text fill="#000000" font-family="sans-serif" font-size="13" lengthAdjust="spacing" textLength="118.8472" x="756.144" y="608.2031">hcs_sha256_chain(</text><text fill="#000000" font-family="sans-serif" font-size="13" lengthAdjust="spacing" textLength="196.8091" x="721.2764" y="623.5137">chain_hash, next_seq, payload)</text></g><g class="message" data-entity-1="part5" data-entity-2="part3" id="msg15"><polygon fill="#181818" points="647.1348,653.5664,637.1348,657.5664,647.1348,661.5664,643.1348,657.5664" style="stroke:#181818;stroke-width:1;"/><line style="stroke:#181818;stroke-width:1;stroke-dasharray:2,2;" x1="641.1348" x2="994.0005" y1="657.5664" y2="657.5664"/><text fill="#000000" font-family="sans-serif" font-size="13" lengthAdjust="spacing" textLength="26.0762" x="802.5295" y="652.8242">H(n)</text></g><g class="message" data-entity-1="part3" data-entity-2="part3" id="msg16"><line style="stroke:#181818;stroke-width:1;" x1="636.1348" x2="678.1348" y1="686.877" y2="686.877"/><line style="stroke:#181818;stroke-width:1;" x1="678.1348" x2="678.1348" y1="686.877" y2="699.877"/><line style="stroke:#181818;stroke-width:1;" x1="637.1348" x2="678.1348" y1="699.877" y2="699.877"/><polygon fill="#181818" points="647.1348,695.877,637.1348,699.877,647.1348,703.877,643.1348,699.877" style="stroke:#181818;stroke-width:1;"/><text fill="#000000" font-family="sans-serif" font-size="13" lengthAdjust="spacing" textLength="195.5713" x="643.1348" y="682.1348">compare H(n) vs sd.chain_hash</text></g><path d="M641,712.877 L641,737.877 L819,737.877 L819,722.877 L809,712.877 L641,712.877" fill="#FEFFDD" style="stroke:#181818;stroke-width:0.5;"/><path d="M809,712.877 L809,722.877 L819,722.877 L809,712.877" fill="#FEFFDD" style="stroke:#181818;stroke-width:0.5;"/><text fill="#000000" font-family="sans-serif" font-size="13" lengthAdjust="spacing" textLength="157.1934" x="647" y="730.4453">mismatch -&gt; add_error()</text><path d="M575.248,750.1875 L637.3867,750.1875 L637.3867,757.498 L627.3867,767.498 L575.248,767.498 L575.248,750.1875" fill="#EEEEEE" style="stroke:#000000;stroke-width:1.5;"/><rect fill="none" height="199.4844" style="stroke:#000000;stroke-width:1.5;" width="486.0635" x="575.248" y="750.1875"/><text fill="#000000" font-family="sans-serif" font-size="13" font-weight="bold" lengthAdjust="spacing" textLength="17.1387" x="590.248" y="763.7559">alt</text><text fill="#000000" font-family="sans-serif" font-size="11" font-weight="bold" lengthAdjust="spacing" textLength="91.8672" x="652.3867" y="762.8223">[sd.type == SIG]</text><g class="message" data-entity-1="part3" data-entity-2="part5" id="msg17"><polygon fill="#181818" points="983.0005,800.1191,993.0005,804.1191,983.0005,808.1191,987.0005,804.1191" style="stroke:#181818;stroke-width:1;"/><line style="stroke:#181818;stroke-width:1;" x1="636.1348" x2="989.0005" y1="804.1191" y2="804.1191"/><text fill="#000000" font-family="sans-serif" font-size="13" lengthAdjust="spacing" textLength="129.7271" x="750.7041" y="784.0664">hcs_ed25519_verify(</text><text fill="#000000" font-family="sans-serif" font-size="13" lengthAdjust="spacing" textLength="215.0713" x="712.1453" y="799.377">pubkey, chain_hash, sd.signature)</text></g><g class="message" data-entity-1="part5" data-entity-2="part3" id="msg18"><polygon fill="#181818" points="647.1348,829.4297,637.1348,833.4297,647.1348,837.4297,643.1348,833.4297" style="stroke:#181818;stroke-width:1;"/><line style="stroke:#181818;stroke-width:1;stroke-dasharray:2,2;" x1="641.1348" x2="994.0005" y1="833.4297" y2="833.4297"/><text fill="#000000" font-family="sans-serif" font-size="13" lengthAdjust="spacing" textLength="62.2705" x="784.4324" y="828.6875">0 / 1 / -1</text></g><path d="M641,846.4297 L641,901.4297 L825,901.4297 L825,856.4297 L815,846.4297 L641,846.4297" fill="#FEFFDD" style="stroke:#181818;stroke-width:0.5;"/><path d="M815,846.4297 L815,856.4297 L825,856.4297 L815,846.4297" fill="#FEFFDD" style="stroke:#181818;stroke-width:0.5;"/><text fill="#000000" font-family="sans-serif" font-size="13" lengthAdjust="spacing" textLength="109.3955" x="647" y="863.998">0  signature valid</text><text fill="#000000" font-family="sans-serif" font-size="13" lengthAdjust="spacing" textLength="131.6758" x="647" y="879.3086">1  invalid (add_error)</text><text fill="#000000" font-family="sans-serif" font-size="13" lengthAdjust="spacing" textLength="163.5728" x="647" y="894.6191">-1 verify error (add_error)</text><g class="message" data-entity-1="part3" data-entity-2="part3" id="msg19"><line style="stroke:#181818;stroke-width:1;" x1="636.1348" x2="678.1348" y1="928.6719" y2="928.6719"/><line style="stroke:#181818;stroke-width:1;" x1="678.1348" x2="678.1348" y1="928.6719" y2="941.6719"/><line style="stroke:#181818;stroke-width:1;" x1="637.1348" x2="678.1348" y1="941.6719" y2="941.6719"/><polygon fill="#181818" points="647.1348,937.6719,637.1348,941.6719,647.1348,945.6719,643.1348,941.6719" style="stroke:#181818;stroke-width:1;"/><text fill="#000000" font-family="sans-serif" font-size="13" lengthAdjust="spacing" textLength="178.3438" x="643.1348" y="923.9297">last_signed_seq = sd.seq_to</text></g><g class="message" data-entity-1="part3" data-entity-2="part3" id="msg20"><line style="stroke:#181818;stroke-width:1;" x1="636.1348" x2="678.1348" y1="977.9824" y2="977.9824"/><line style="stroke:#181818;stroke-width:1;" x1="678.1348" x2="678.1348" y1="977.9824" y2="990.9824"/><line style="stroke:#181818;stroke-width:1;" x1="637.1348" x2="678.1348" y1="990.9824" y2="990.9824"/><polygon fill="#181818" points="647.1348,986.9824,637.1348,990.9824,647.1348,994.9824,643.1348,990.9824" style="stroke:#181818;stroke-width:1;"/><text fill="#000000" font-family="sans-serif" font-size="13" lengthAdjust="spacing" textLength="175.2715" x="643.1348" y="973.2402">next_seq++; msg_count++</text></g><g class="message" data-entity-1="part2" data-entity-2="part3" id="msg21"><polygon fill="#181818" points="624.1348,1023.293,634.1348,1027.293,624.1348,1031.293,628.1348,1027.293" style="stroke:#181818;stroke-width:1;"/><line style="stroke:#181818;stroke-width:1;" x1="408.4448" x2="630.1348" y1="1027.293" y2="1027.293"/><text fill="#000000" font-family="sans-serif" font-size="13" lengthAdjust="spacing" textLength="105.0981" x="469.7407" y="1022.5508">verifier_finalize()</text></g><path d="M575.248,1042.293 L637.3867,1042.293 L637.3867,1049.6035 L627.3867,1059.6035 L575.248,1059.6035 L575.248,1042.293" fill="#EEEEEE" style="stroke:#000000;stroke-width:1.5;"/><rect fill="none" height="74.9316" style="stroke:#000000;stroke-width:1.5;" width="313.5415" x="575.248" y="1042.293"/><text fill="#000000" font-family="sans-serif" font-size="13" font-weight="bold" lengthAdjust="spacing" textLength="17.1387" x="590.248" y="1055.8613">alt</text><text fill="#000000" font-family="sans-serif" font-size="11" font-weight="bold" lengthAdjust="spacing" textLength="231.4028" x="652.3867" y="1054.9277">[strict &amp;&amp; next_seq-1 &gt; last_signed_seq]</text><g class="message" data-entity-1="part3" data-entity-2="part3" id="msg22"><line style="stroke:#181818;stroke-width:1;" x1="636.1348" x2="678.1348" y1="1096.2246" y2="1096.2246"/><line style="stroke:#181818;stroke-width:1;" x1="678.1348" x2="678.1348" y1="1096.2246" y2="1109.2246"/><line style="stroke:#181818;stroke-width:1;" x1="637.1348" x2="678.1348" y1="1109.2246" y2="1109.2246"/><polygon fill="#181818" points="647.1348,1105.2246,637.1348,1109.2246,647.1348,1113.2246,643.1348,1109.2246" style="stroke:#181818;stroke-width:1;"/><text fill="#000000" font-family="sans-serif" font-size="13" lengthAdjust="spacing" textLength="145.8184" x="643.1348" y="1076.1719">add_error("N messages</text><text fill="#000000" font-family="sans-serif" font-size="13" lengthAdjust="spacing" textLength="130.8823" x="650.6028" y="1091.4824">at tail are unsigned")</text></g><g class="message" data-entity-1="part2" data-entity-2="part3" id="msg23"><polygon fill="#181818" points="624.1348,1141.5352,634.1348,1145.5352,624.1348,1149.5352,628.1348,1145.5352" style="stroke:#181818;stroke-width:1;"/><line style="stroke:#181818;stroke-width:1;" x1="408.4448" x2="630.1348" y1="1145.5352" y2="1145.5352"/><text fill="#000000" font-family="sans-serif" font-size="13" lengthAdjust="spacing" textLength="108.6274" x="467.9761" y="1140.793">verifier_passed()?</text></g><path d="M10,1160.5352 L72.1387,1160.5352 L72.1387,1167.8457 L62.1387,1177.8457 L10,1177.8457 L10,1160.5352" fill="#EEEEEE" style="stroke:#000000;stroke-width:1.5;"/><rect fill="none" height="106.1973" style="stroke:#000000;stroke-width:1.5;" width="499.0176" x="10" y="1160.5352"/><text fill="#000000" font-family="sans-serif" font-size="13" font-weight="bold" lengthAdjust="spacing" textLength="17.1387" x="25" y="1174.1035">alt</text><text fill="#000000" font-family="sans-serif" font-size="11" font-weight="bold" lengthAdjust="spacing" textLength="34.3481" x="87.1387" y="1173.1699">[pass]</text><g class="message" data-entity-1="part2" data-entity-2="part1" id="msg24"><polygon fill="#181818" points="64.2559,1210.4668,54.2559,1214.4668,64.2559,1218.4668,60.2559,1214.4668" style="stroke:#181818;stroke-width:1;"/><line style="stroke:#181818;stroke-width:1;" x1="58.2559" x2="407.4448" y1="1214.4668" y2="1214.4668"/><text fill="#000000" font-family="sans-serif" font-size="13" lengthAdjust="spacing" textLength="298.2192" x="81.7407" y="1194.4141">"PASS: N messages verified, S signature blocks"</text><text fill="#000000" font-family="sans-serif" font-size="13" lengthAdjust="spacing" textLength="36.1689" x="212.7659" y="1209.7246">exit 0</text></g><line style="stroke:#000000;stroke-width:1;stroke-dasharray:2,2;" x1="10" x2="509.0176" y1="1223.4668" y2="1223.4668"/><text fill="#000000" font-family="sans-serif" font-size="11" font-weight="bold" lengthAdjust="spacing" textLength="26.3345" x="15" y="1234.1016">[fail]</text><g class="message" data-entity-1="part2" data-entity-2="part1" id="msg25"><polygon fill="#181818" points="64.2559,1254.7324,54.2559,1258.7324,64.2559,1262.7324,60.2559,1258.7324" style="stroke:#181818;stroke-width:1;"/><line style="stroke:#181818;stroke-width:1;" x1="58.2559" x2="407.4448" y1="1258.7324" y2="1258.7324"/><text fill="#000000" font-family="sans-serif" font-size="13" lengthAdjust="spacing" textLength="331.189" x="65.2559" y="1253.9902">"FAIL: ... errors", exit 1 (or 3 if fingerprint mismatch)</text></g><?plantuml-src VLNXRjis4FxFfxZfHo3DibDto82wI8TWIrTZRMV0HO011WIQEbc49L8bwJJUC60FiIVia_H8oRATA3LWWIA_-_XzTqVAILSXr7N9RIbABfML6pk-HoEBFNpzxt-uyqCfk9DQmH8_xr09PCnkfMguuJNOakVwYrGRA7XbyNIbGtz0Q_a6RogvKI1GEJICSU6qWJyRD9m6Z2AS5BBXoa4qB6Ubub_VpvC8k0KQd8S4Y4IJ2VUGkHRZ7iunfR1PeKtD7L4jVmDQj7XfdP5Do_gsTayZXDatJbE4rmGZQCLqCi8QoxdZQsuHeafJ6cI5BHqD6DcLRWzHirjNKi0Mzn1F6gnRWiLkpTWX2J1-uut13BZPtCzWl0MAyc2IwifBfo-9dtc8Hxe7GlQ-fP8k9lFf8IO5xqouX7ca3mXYAQRIF2SZ1TKCJMCaEQKOKiOw2859624D4d9n-u7vrt7FqUDw6RTtYspnn-rVFwOTLLOq1w4-3GGfT8CgJXYhj6xWI-bdD-WggJ2-yCyK9fD90ZzSmtZAW7x3HXkZ1JLK5WBz8sd1hKag8O5ztK9TCvjdXT7rOxI77TKtV1zoijuxjEbAXV0yCoYqoJC7_xXzG_AedrCeWyn_MQ3XbGERJ_moN5_3_EFyKvW_4TJk84eKssDgW7gGfkmJyA54eV5y_uUwPhxruiGZvdVFRU31eKL9nzrhKFZWCb9ChsqsKUMCFRSN7UANLp-tMyOh1ITyQK-L7XBLPVnn4xoBrLajEcMwfZE5OHNkhS_NaJp0bNO8HcvA1xheecffGuuy3y_p38tHndVFGDgNyz-_cqZCNrvTJLzbxSaDzjfAf6SsYP5k6yNTpdHTCkZo1Lp2bFvTamuQw5U0uD2pmZslP7woE0MGAan2tBjCJW3ZQNVVG5WQH55XWuBXngYufUAH0ioxTl0-yND6ntYmBKBKeUIZqMkexIOJUgVSQCG2UlXSqdL2Hlv6AbAeJxXyuEAYvo8lRnxBURhpiTZHHwZRBuTTKVx0SLc1xwITQWcYv7jw6cujvd7oIv3ZtqulbVxEdK6qk5akPt3SxS2Hfx0yATwwqc9henNvaGvUCAIl7NtpPFKSxzkR-VkPlotQujaeXH0wXPW0Fu4ipkxWGykthhu1?></g></svg>